<?xml version="1.0" encoding="UTF-8" standalone="no"?>
<!-- Created with Vectornator (http://vectornator.io/) -->
<svg xmlns="http://www.w3.org/2000/svg" xmlns:xlink="http://www.w3.org/1999/xlink" height="100%" stroke-miterlimit="10" style="fill-rule:nonzero;clip-rule:evenodd;stroke-linecap:round;stroke-linejoin:round;" version="1.1" viewBox="0 0 900 900" width="100%" xml:space="preserve">
<defs></defs>
<g id="Layer-3">
<path d="M627.161 110.917C691.822 119.942 751.043 170.015 775.275 233.192C799.508 296.37 788.875 372.405 754.505 428.165C720.011 483.924 661.778 519.16 623.699 583.327C585.743 647.617 568.063 740.714 516.013 788.684C464.086 836.655 377.789 839.498 300.393 815.266C222.998 791.157 154.38 739.972 133.486 671.973C112.715 603.974 139.544 519.036 153.638 451.284C167.733 383.532 168.969 332.966 190.729 294.268C212.489 255.694 254.648 228.989 296.684 209.702C338.596 190.291 380.385 178.298 436.392 156.168C492.398 134.037 562.5 101.892 627.161 110.917" fill="#d2e67a" fill-rule="nonzero" opacity="1" stroke="none"></path>
</g>
<g id="Layer-1">
<path d="M235.379 449.231C227.719 441.571 215.3 441.571 207.64 449.231C199.982 456.889 199.982 469.309 207.64 476.968L221.509 490.836L235.379 476.968C243.037 469.309 243.037 456.889 235.379 449.231ZM221.509 451.235C224.48 451.235 226.888 453.643 226.888 456.613C226.888 459.585 224.48 461.992 221.509 461.992C218.538 461.992 216.13 459.585 216.13 456.613C216.13 453.643 218.539 451.235 221.509 451.235ZM213.792 471.731C213.792 467.47 217.247 464.014 221.51 464.014C225.771 464.014 229.226 467.47 229.226 471.731L213.792 471.731Z" fill="#000000" fill-rule="nonzero" opacity="1" stroke="none"></path>
<g opacity="1">
<path d="M320.615 265.892C309.801 265.892 301.002 274.691 301.002 285.505C301.002 296.32 309.801 305.118 320.615 305.118C331.43 305.118 340.228 296.32 340.228 285.505C340.228 274.691 331.43 265.892 320.615 265.892ZM320.615 300.449C312.376 300.449 305.672 293.745 305.672 285.505C305.672 277.266 312.376 270.562 320.615 270.562C328.855 270.562 335.559 277.266 335.559 285.505C335.559 293.745 328.855 300.449 320.615 300.449Z" fill="#000000" fill-rule="nonzero" opacity="1" stroke="none"></path>
<path d="M320.802 274.761C319.82 274.761 319.025 275.556 319.025 276.538L319.025 284.583L313.352 290.256C312.658 290.95 312.658 292.075 313.352 292.769C314.046 293.463 315.171 293.463 315.865 292.769L322.579 286.055L322.579 284.234L322.579 276.538C322.579 275.556 321.783 274.761 320.802 274.761Z" fill="#000000" fill-rule="nonzero" opacity="1" stroke="none"></path>
</g>
<g opacity="1">
<path d="M391.613 288.913C391.613 287.401 391.127 286.129 390.155 285.097C389.183 284.065 387.941 283.273 386.429 282.721C387.005 282.457 387.557 282.139 388.085 281.767C388.613 281.395 389.075 280.975 389.471 280.507C389.867 280.039 390.179 279.505 390.407 278.905C390.635 278.305 390.749 277.633 390.749 276.889C390.749 275.905 390.515 275.005 390.047 274.189C389.579 273.373 388.955 272.665 388.175 272.065C387.395 271.465 386.483 271.003 385.439 270.679C384.395 270.355 383.297 270.193 382.145 270.193C380.993 270.193 379.895 270.355 378.851 270.679C377.807 271.003 376.895 271.465 376.115 272.065C375.335 272.665 374.711 273.373 374.243 274.189C373.775 275.005 373.541 275.905 373.541 276.889C373.541 277.633 373.655 278.305 373.883 278.905C374.111 279.505 374.423 280.039 374.819 280.507C375.215 280.975 375.677 281.395 376.205 281.767C376.733 282.139 377.285 282.457 377.861 282.721C376.349 283.273 375.107 284.071 374.135 285.115C373.163 286.159 372.677 287.437 372.677 288.949C372.677 290.005 372.917 290.977 373.397 291.865C373.877 292.753 374.543 293.509 375.395 294.133C376.247 294.757 377.249 295.243 378.401 295.591C379.553 295.939 380.801 296.113 382.145 296.113C383.489 296.113 384.737 295.939 385.889 295.591C387.041 295.243 388.043 294.757 388.895 294.133C389.747 293.509 390.413 292.753 390.893 291.865C391.373 290.977 391.613 289.993 391.613 288.913ZM387.905 277.069C387.905 277.765 387.755 278.395 387.455 278.959C387.155 279.523 386.747 280.009 386.231 280.417C385.715 280.825 385.103 281.143 384.395 281.371C383.687 281.599 382.937 281.713 382.145 281.713C381.353 281.713 380.603 281.599 379.895 281.371C379.187 281.143 378.575 280.825 378.059 280.417C377.543 280.009 377.135 279.523 376.835 278.959C376.535 278.395 376.385 277.765 376.385 277.069C376.385 276.421 376.529 275.833 376.817 275.305C377.105 274.777 377.507 274.315 378.023 273.919C378.539 273.523 379.151 273.217 379.859 273.001C380.567 272.785 381.329 272.677 382.145 272.677C382.961 272.677 383.723 272.785 384.431 273.001C385.139 273.217 385.751 273.523 386.267 273.919C386.783 274.315 387.185 274.783 387.473 275.323C387.761 275.863 387.905 276.445 387.905 277.069ZM388.733 288.877C388.733 289.525 388.583 290.137 388.283 290.713C387.983 291.289 387.551 291.793 386.987 292.225C386.423 292.657 385.733 292.999 384.917 293.251C384.101 293.503 383.177 293.629 382.145 293.629C381.113 293.629 380.189 293.503 379.373 293.251C378.557 292.999 377.867 292.657 377.303 292.225C376.739 291.793 376.307 291.289 376.007 290.713C375.707 290.137 375.557 289.525 375.557 288.877C375.557 288.157 375.725 287.503 376.061 286.915C376.397 286.327 376.865 285.823 377.465 285.403C378.065 284.983 378.767 284.653 379.571 284.413C380.375 284.173 381.233 284.053 382.145 284.053C383.057 284.053 383.915 284.173 384.719 284.413C385.523 284.653 386.219 284.983 386.807 285.403C387.395 285.823 387.863 286.327 388.211 286.915C388.559 287.503 388.733 288.157 388.733 288.877Z" fill="#000000" fill-rule="nonzero" opacity="1" stroke="none"></path>
<path d="M399.749 280.921L399.749 277.141L396.437 277.141L396.437 280.921L399.749 280.921ZM399.749 295.753L399.749 291.973L396.437 291.973L396.437 295.753L399.749 295.753Z" fill="#000000" fill-rule="nonzero" opacity="1" stroke="none"></path>
<path d="M418.109 273.109L410.153 282.073L410.729 283.765L412.349 283.765C414.437 283.765 416.135 284.185 417.443 285.025C418.751 285.865 419.405 287.077 419.405 288.661C419.405 289.405 419.261 290.083 418.973 290.695C418.685 291.307 418.295 291.829 417.803 292.261C417.311 292.693 416.729 293.023 416.057 293.251C415.385 293.479 414.665 293.593 413.897 293.593C412.337 293.593 410.963 293.269 409.775 292.621C408.587 291.973 407.501 291.049 406.517 289.849L404.465 291.685C405.497 293.029 406.793 294.115 408.353 294.943C409.913 295.771 411.749 296.185 413.861 296.185C415.037 296.185 416.135 295.999 417.155 295.627C418.175 295.255 419.063 294.733 419.819 294.061C420.575 293.389 421.175 292.585 421.619 291.649C422.063 290.713 422.285 289.681 422.285 288.553C422.285 287.401 422.057 286.393 421.601 285.529C421.145 284.665 420.539 283.945 419.783 283.369C419.027 282.793 418.145 282.349 417.137 282.037C416.129 281.725 415.073 281.521 413.969 281.425L421.889 272.641L421.889 270.553L405.797 270.553L405.797 273.109L418.109 273.109Z" fill="#000000" fill-rule="nonzero" opacity="1" stroke="none"></path>
<path d="M448.241 283.117C448.241 281.341 447.995 279.667 447.503 278.095C447.011 276.523 446.303 275.143 445.379 273.955C444.455 272.767 443.339 271.831 442.031 271.147C440.723 270.463 439.265 270.121 437.657 270.121C436.025 270.121 434.549 270.469 433.229 271.165C431.909 271.861 430.787 272.803 429.863 273.991C428.939 275.179 428.225 276.565 427.721 278.149C427.217 279.733 426.965 281.413 426.965 283.189C426.965 284.965 427.211 286.639 427.703 288.211C428.195 289.783 428.903 291.163 429.827 292.351C430.751 293.539 431.867 294.475 433.175 295.159C434.483 295.843 435.953 296.185 437.585 296.185C439.193 296.185 440.657 295.837 441.977 295.141C443.297 294.445 444.419 293.503 445.343 292.315C446.267 291.127 446.981 289.741 447.485 288.157C447.989 286.573 448.241 284.893 448.241 283.117ZM445.289 283.189C445.289 284.581 445.115 285.907 444.767 287.167C444.419 288.427 443.915 289.531 443.255 290.479C442.595 291.427 441.791 292.183 440.843 292.747C439.895 293.311 438.833 293.593 437.657 293.593C436.481 293.593 435.413 293.311 434.453 292.747C433.493 292.183 432.677 291.421 432.005 290.461C431.333 289.501 430.817 288.385 430.457 287.113C430.097 285.841 429.917 284.509 429.917 283.117C429.917 281.725 430.097 280.399 430.457 279.139C430.817 277.879 431.327 276.775 431.987 275.827C432.647 274.879 433.451 274.123 434.399 273.559C435.347 272.995 436.409 272.713 437.585 272.713C438.761 272.713 439.823 273.001 440.771 273.577C441.719 274.153 442.529 274.921 443.201 275.881C443.873 276.841 444.389 277.951 444.749 279.211C445.109 280.471 445.289 281.797 445.289 283.189Z" fill="#000000" fill-rule="nonzero" opacity="1" stroke="none"></path>
<path d="M471.101 279.337C472.853 279.337 474.215 279.763 475.187 280.615C476.159 281.467 476.645 282.733 476.645 284.413L476.645 285.061C475.805 284.821 474.941 284.629 474.053 284.485C473.165 284.341 472.121 284.269 470.921 284.269C469.745 284.269 468.671 284.401 467.699 284.665C466.727 284.929 465.887 285.313 465.179 285.817C464.471 286.321 463.925 286.951 463.541 287.707C463.157 288.463 462.965 289.333 462.965 290.317C462.965 291.301 463.163 292.153 463.559 292.873C463.955 293.593 464.483 294.199 465.143 294.691C465.803 295.183 466.547 295.549 467.375 295.789C468.203 296.029 469.049 296.149 469.913 296.149C471.569 296.149 472.943 295.825 474.035 295.177C475.127 294.529 475.997 293.785 476.645 292.945L476.645 295.753L479.309 295.753L479.309 284.377C479.309 281.905 478.625 280.039 477.257 278.779C475.889 277.519 473.933 276.889 471.389 276.889C470.021 276.889 468.809 277.027 467.753 277.303C466.697 277.579 465.653 277.957 464.621 278.437L465.449 280.705C466.313 280.297 467.195 279.967 468.095 279.715C468.995 279.463 469.997 279.337 471.101 279.337ZM471.209 286.321C472.361 286.321 473.387 286.405 474.287 286.573C475.187 286.741 475.985 286.921 476.681 287.113L476.681 288.913C476.681 289.657 476.519 290.335 476.195 290.947C475.871 291.559 475.427 292.087 474.863 292.531C474.299 292.975 473.639 293.323 472.883 293.575C472.127 293.827 471.317 293.953 470.453 293.953C469.829 293.953 469.235 293.869 468.671 293.701C468.107 293.533 467.609 293.287 467.177 292.963C466.745 292.639 466.403 292.249 466.151 291.793C465.899 291.337 465.773 290.809 465.773 290.209C465.773 289.009 466.241 288.061 467.177 287.365C468.113 286.669 469.457 286.321 471.209 286.321Z" fill="#000000" fill-rule="nonzero" opacity="1" stroke="none"></path>
<path d="M499.973 280.453C499.469 279.397 498.725 278.515 497.741 277.807C496.757 277.099 495.509 276.745 493.997 276.745C493.205 276.745 492.509 276.841 491.909 277.033C491.309 277.225 490.769 277.483 490.289 277.807C489.809 278.131 489.383 278.509 489.011 278.941C488.639 279.373 488.297 279.817 487.985 280.273L487.985 277.141L485.213 277.141L485.213 295.753L487.985 295.753L487.985 285.133C487.985 284.269 488.117 283.483 488.381 282.775C488.645 282.067 489.011 281.449 489.479 280.921C489.947 280.393 490.493 279.985 491.117 279.697C491.741 279.409 492.425 279.265 493.169 279.265C494.657 279.265 495.827 279.751 496.679 280.723C497.531 281.695 497.957 283.057 497.957 284.809L497.957 295.753L500.693 295.753L500.693 285.025C500.693 284.113 500.831 283.297 501.107 282.577C501.383 281.857 501.755 281.251 502.223 280.759C502.691 280.267 503.237 279.895 503.861 279.643C504.485 279.391 505.145 279.265 505.841 279.265C507.353 279.265 508.535 279.751 509.387 280.723C510.239 281.695 510.665 283.081 510.665 284.881L510.665 295.753L513.437 295.753L513.437 284.233C513.437 281.905 512.825 280.075 511.601 278.743C510.377 277.411 508.685 276.745 506.525 276.745C505.709 276.745 504.971 276.841 504.311 277.033C503.651 277.225 503.057 277.489 502.529 277.825C502.001 278.161 501.527 278.557 501.107 279.013C500.687 279.469 500.309 279.949 499.973 280.453Z" fill="#000000" fill-rule="nonzero" opacity="1" stroke="none"></path>
<path d="M539.501 286.393L539.501 283.477L529.493 283.477L529.493 286.393L539.501 286.393Z" fill="#000000" fill-rule="nonzero" opacity="1" stroke="none"></path>
<path d="M568.445 270.373L554.189 287.725L554.909 289.777L568.193 289.777L568.193 295.753L570.929 295.753L570.929 289.777L574.853 289.777L574.853 287.401L570.929 287.401L570.929 270.373L568.445 270.373ZM568.193 287.401L557.609 287.401L568.193 274.405L568.193 287.401Z" fill="#000000" fill-rule="nonzero" opacity="1" stroke="none"></path>
<path d="M583.061 280.921L583.061 277.141L579.749 277.141L579.749 280.921L583.061 280.921ZM583.061 295.753L583.061 291.973L579.749 291.973L579.749 295.753L583.061 295.753Z" fill="#000000" fill-rule="nonzero" opacity="1" stroke="none"></path>
<path d="M601.421 273.109L593.465 282.073L594.041 283.765L595.661 283.765C597.749 283.765 599.447 284.185 600.755 285.025C602.063 285.865 602.717 287.077 602.717 288.661C602.717 289.405 602.573 290.083 602.285 290.695C601.997 291.307 601.607 291.829 601.115 292.261C600.623 292.693 600.041 293.023 599.369 293.251C598.697 293.479 597.977 293.593 597.209 293.593C595.649 293.593 594.275 293.269 593.087 292.621C591.899 291.973 590.813 291.049 589.829 289.849L587.777 291.685C588.809 293.029 590.105 294.115 591.665 294.943C593.225 295.771 595.061 296.185 597.173 296.185C598.349 296.185 599.447 295.999 600.467 295.627C601.487 295.255 602.375 294.733 603.131 294.061C603.887 293.389 604.487 292.585 604.931 291.649C605.375 290.713 605.597 289.681 605.597 288.553C605.597 287.401 605.369 286.393 604.913 285.529C604.457 284.665 603.851 283.945 603.095 283.369C602.339 282.793 601.457 282.349 600.449 282.037C599.441 281.725 598.385 281.521 597.281 281.425L605.201 272.641L605.201 270.553L589.109 270.553L589.109 273.109L601.421 273.109Z" fill="#000000" fill-rule="nonzero" opacity="1" stroke="none"></path>
<path d="M631.553 283.117C631.553 281.341 631.307 279.667 630.815 278.095C630.323 276.523 629.615 275.143 628.691 273.955C627.767 272.767 626.651 271.831 625.343 271.147C624.035 270.463 622.577 270.121 620.969 270.121C619.337 270.121 617.861 270.469 616.541 271.165C615.221 271.861 614.099 272.803 613.175 273.991C612.251 275.179 611.537 276.565 611.033 278.149C610.529 279.733 610.277 281.413 610.277 283.189C610.277 284.965 610.523 286.639 611.015 288.211C611.507 289.783 612.215 291.163 613.139 292.351C614.063 293.539 615.179 294.475 616.487 295.159C617.795 295.843 619.265 296.185 620.897 296.185C622.505 296.185 623.969 295.837 625.289 295.141C626.609 294.445 627.731 293.503 628.655 292.315C629.579 291.127 630.293 289.741 630.797 288.157C631.301 286.573 631.553 284.893 631.553 283.117ZM628.601 283.189C628.601 284.581 628.427 285.907 628.079 287.167C627.731 288.427 627.227 289.531 626.567 290.479C625.907 291.427 625.103 292.183 624.155 292.747C623.207 293.311 622.145 293.593 620.969 293.593C619.793 293.593 618.725 293.311 617.765 292.747C616.805 292.183 615.989 291.421 615.317 290.461C614.645 289.501 614.129 288.385 613.769 287.113C613.409 285.841 613.229 284.509 613.229 283.117C613.229 281.725 613.409 280.399 613.769 279.139C614.129 277.879 614.639 276.775 615.299 275.827C615.959 274.879 616.763 274.123 617.711 273.559C618.659 272.995 619.721 272.713 620.897 272.713C622.073 272.713 623.135 273.001 624.083 273.577C625.031 274.153 625.841 274.921 626.513 275.881C627.185 276.841 627.701 277.951 628.061 279.211C628.421 280.471 628.601 281.797 628.601 283.189Z" fill="#000000" fill-rule="nonzero" opacity="1" stroke="none"></path>
<path d="M666.473 286.429C666.473 284.893 666.221 283.525 665.717 282.325C665.213 281.125 664.541 280.111 663.701 279.283C662.861 278.455 661.907 277.825 660.839 277.393C659.771 276.961 658.685 276.745 657.581 276.745C656.717 276.745 655.931 276.859 655.223 277.087C654.515 277.315 653.873 277.615 653.297 277.987C652.721 278.359 652.199 278.797 651.731 279.301C651.263 279.805 650.837 280.333 650.453 280.885L650.453 277.141L647.681 277.141L647.681 301.513L650.453 301.513L650.453 292.189C650.813 292.717 651.227 293.221 651.695 293.701C652.163 294.181 652.685 294.601 653.261 294.961C653.837 295.321 654.485 295.609 655.205 295.825C655.925 296.041 656.717 296.149 657.581 296.149C658.709 296.149 659.807 295.927 660.875 295.483C661.943 295.039 662.891 294.403 663.719 293.575C664.547 292.747 665.213 291.733 665.717 290.533C666.221 289.333 666.473 287.965 666.473 286.429ZM663.629 286.465C663.629 287.593 663.455 288.607 663.107 289.507C662.759 290.407 662.291 291.163 661.703 291.775C661.115 292.387 660.419 292.855 659.615 293.179C658.811 293.503 657.965 293.665 657.077 293.665C656.213 293.665 655.379 293.491 654.575 293.143C653.771 292.795 653.051 292.309 652.415 291.685C651.779 291.061 651.275 290.299 650.903 289.399C650.531 288.499 650.345 287.509 650.345 286.429C650.345 285.349 650.531 284.365 650.903 283.477C651.275 282.589 651.779 281.833 652.415 281.209C653.051 280.585 653.771 280.099 654.575 279.751C655.379 279.403 656.213 279.229 657.077 279.229C657.965 279.229 658.805 279.397 659.597 279.733C660.389 280.069 661.085 280.555 661.685 281.191C662.285 281.827 662.759 282.589 663.107 283.477C663.455 284.365 663.629 285.361 663.629 286.465Z" fill="#000000" fill-rule="nonzero" opacity="1" stroke="none"></path>
<path d="M686.345 280.453C685.841 279.397 685.097 278.515 684.113 277.807C683.129 277.099 681.881 276.745 680.369 276.745C679.577 276.745 678.881 276.841 678.281 277.033C677.681 277.225 677.141 277.483 676.661 277.807C676.181 278.131 675.755 278.509 675.383 278.941C675.011 279.373 674.669 279.817 674.357 280.273L674.357 277.141L671.585 277.141L671.585 295.753L674.357 295.753L674.357 285.133C674.357 284.269 674.489 283.483 674.753 282.775C675.017 282.067 675.383 281.449 675.851 280.921C676.319 280.393 676.865 279.985 677.489 279.697C678.113 279.409 678.797 279.265 679.541 279.265C681.029 279.265 682.199 279.751 683.051 280.723C683.903 281.695 684.329 283.057 684.329 284.809L684.329 295.753L687.065 295.753L687.065 285.025C687.065 284.113 687.203 283.297 687.479 282.577C687.755 281.857 688.127 281.251 688.595 280.759C689.063 280.267 689.609 279.895 690.233 279.643C690.857 279.391 691.517 279.265 692.213 279.265C693.725 279.265 694.907 279.751 695.759 280.723C696.611 281.695 697.037 283.081 697.037 284.881L697.037 295.753L699.809 295.753L699.809 284.233C699.809 281.905 699.197 280.075 697.973 278.743C696.749 277.411 695.057 276.745 692.897 276.745C692.081 276.745 691.343 276.841 690.683 277.033C690.023 277.225 689.429 277.489 688.901 277.825C688.373 278.161 687.899 278.557 687.479 279.013C687.059 279.469 686.681 279.949 686.345 280.453Z" fill="#000000" fill-rule="nonzero" opacity="1" stroke="none"></path>
</g>
<g opacity="1">
<path d="M396.154 323.156L396.154 343.568L398.998 343.568L398.998 318.368L396.118 318.368L386.938 332.12L377.758 318.368L374.878 318.368L374.878 343.568L377.65 343.568L377.65 323.192L386.83 336.656L386.974 336.656L396.154 323.156Z" fill="#000000" fill-rule="nonzero" opacity="1" stroke="none"></path>
<path d="M423.91 334.244C423.91 332.924 423.67 331.676 423.19 330.5C422.71 329.324 422.038 328.298 421.174 327.422C420.31 326.546 419.284 325.85 418.096 325.334C416.908 324.818 415.618 324.56 414.226 324.56C412.81 324.56 411.508 324.818 410.32 325.334C409.132 325.85 408.106 326.552 407.242 327.44C406.378 328.328 405.706 329.366 405.226 330.554C404.746 331.742 404.506 332.996 404.506 334.316C404.506 335.636 404.746 336.884 405.226 338.06C405.706 339.236 406.378 340.262 407.242 341.138C408.106 342.014 409.126 342.71 410.302 343.226C411.478 343.742 412.762 344 414.154 344C415.546 344 416.842 343.742 418.042 343.226C419.242 342.71 420.274 342.008 421.138 341.12C422.002 340.232 422.68 339.194 423.172 338.006C423.664 336.818 423.91 335.564 423.91 334.244ZM421.066 334.316C421.066 335.324 420.898 336.266 420.562 337.142C420.226 338.018 419.758 338.78 419.158 339.428C418.558 340.076 417.838 340.586 416.998 340.958C416.158 341.33 415.234 341.516 414.226 341.516C413.242 341.516 412.33 341.324 411.49 340.94C410.65 340.556 409.924 340.04 409.312 339.392C408.7 338.744 408.22 337.976 407.872 337.088C407.524 336.2 407.35 335.252 407.35 334.244C407.35 333.236 407.518 332.294 407.854 331.418C408.19 330.542 408.652 329.774 409.24 329.114C409.828 328.454 410.542 327.938 411.382 327.566C412.222 327.194 413.146 327.008 414.154 327.008C415.138 327.008 416.05 327.2 416.89 327.584C417.73 327.968 418.462 328.49 419.086 329.15C419.71 329.81 420.196 330.584 420.544 331.472C420.892 332.36 421.066 333.308 421.066 334.316Z" fill="#000000" fill-rule="nonzero" opacity="1" stroke="none"></path>
<path d="M431.686 332.912C431.686 332.048 431.824 331.256 432.1 330.536C432.376 329.816 432.766 329.198 433.27 328.682C433.774 328.166 434.368 327.77 435.052 327.494C435.736 327.218 436.474 327.08 437.266 327.08C438.922 327.08 440.194 327.584 441.082 328.592C441.97 329.6 442.414 330.968 442.414 332.696L442.414 343.568L445.186 343.568L445.186 332.012C445.186 330.908 445.024 329.9 444.7 328.988C444.376 328.076 443.908 327.29 443.296 326.63C442.684 325.97 441.94 325.46 441.064 325.1C440.188 324.74 439.186 324.56 438.058 324.56C436.45 324.56 435.142 324.914 434.134 325.622C433.126 326.33 432.31 327.188 431.686 328.196L431.686 324.956L428.914 324.956L428.914 343.568L431.686 343.568L431.686 332.912Z" fill="#000000" fill-rule="nonzero" opacity="1" stroke="none"></path>
<path d="M468.802 343.568L468.802 317.288L466.03 317.288L466.03 328.52C465.67 327.992 465.256 327.488 464.788 327.008C464.32 326.528 463.798 326.108 463.222 325.748C462.646 325.388 461.998 325.1 461.278 324.884C460.558 324.668 459.766 324.56 458.902 324.56C457.774 324.56 456.682 324.782 455.626 325.226C454.57 325.67 453.622 326.306 452.782 327.134C451.942 327.962 451.27 328.976 450.766 330.176C450.262 331.376 450.01 332.744 450.01 334.28C450.01 335.816 450.262 337.184 450.766 338.384C451.27 339.584 451.942 340.598 452.782 341.426C453.622 342.254 454.57 342.884 455.626 343.316C456.682 343.748 457.774 343.964 458.902 343.964C459.766 343.964 460.552 343.856 461.26 343.64C461.968 343.424 462.61 343.124 463.186 342.74C463.762 342.356 464.284 341.912 464.752 341.408C465.22 340.904 465.646 340.376 466.03 339.824L466.03 343.568L468.802 343.568ZM466.138 334.244C466.138 335.324 465.952 336.314 465.58 337.214C465.208 338.114 464.704 338.876 464.068 339.5C463.432 340.124 462.712 340.61 461.908 340.958C461.104 341.306 460.27 341.48 459.406 341.48C458.518 341.48 457.678 341.312 456.886 340.976C456.094 340.64 455.398 340.154 454.798 339.518C454.198 338.882 453.724 338.12 453.376 337.232C453.028 336.344 452.854 335.348 452.854 334.244C452.854 333.116 453.028 332.102 453.376 331.202C453.724 330.302 454.192 329.546 454.78 328.934C455.368 328.322 456.058 327.854 456.85 327.53C457.642 327.206 458.494 327.044 459.406 327.044C460.27 327.044 461.104 327.218 461.908 327.566C462.712 327.914 463.432 328.4 464.068 329.024C464.704 329.648 465.208 330.404 465.58 331.292C465.952 332.18 466.138 333.164 466.138 334.244Z" fill="#000000" fill-rule="nonzero" opacity="1" stroke="none"></path>
<path d="M481.726 327.152C483.478 327.152 484.84 327.578 485.812 328.43C486.784 329.282 487.27 330.548 487.27 332.228L487.27 332.876C486.43 332.636 485.566 332.444 484.678 332.3C483.79 332.156 482.746 332.084 481.546 332.084C480.37 332.084 479.296 332.216 478.324 332.48C477.352 332.744 476.512 333.128 475.804 333.632C475.096 334.136 474.55 334.766 474.166 335.522C473.782 336.278 473.59 337.148 473.59 338.132C473.59 339.116 473.788 339.968 474.184 340.688C474.58 341.408 475.108 342.014 475.768 342.506C476.428 342.998 477.172 343.364 478 343.604C478.828 343.844 479.674 343.964 480.538 343.964C482.194 343.964 483.568 343.64 484.66 342.992C485.752 342.344 486.622 341.6 487.27 340.76L487.27 343.568L489.934 343.568L489.934 332.192C489.934 329.72 489.25 327.854 487.882 326.594C486.514 325.334 484.558 324.704 482.014 324.704C480.646 324.704 479.434 324.842 478.378 325.118C477.322 325.394 476.278 325.772 475.246 326.252L476.074 328.52C476.938 328.112 477.82 327.782 478.72 327.53C479.62 327.278 480.622 327.152 481.726 327.152ZM481.834 334.136C482.986 334.136 484.012 334.22 484.912 334.388C485.812 334.556 486.61 334.736 487.306 334.928L487.306 336.728C487.306 337.472 487.144 338.15 486.82 338.762C486.496 339.374 486.052 339.902 485.488 340.346C484.924 340.79 484.264 341.138 483.508 341.39C482.752 341.642 481.942 341.768 481.078 341.768C480.454 341.768 479.86 341.684 479.296 341.516C478.732 341.348 478.234 341.102 477.802 340.778C477.37 340.454 477.028 340.064 476.776 339.608C476.524 339.152 476.398 338.624 476.398 338.024C476.398 336.824 476.866 335.876 477.802 335.18C478.738 334.484 480.082 334.136 481.834 334.136Z" fill="#000000" fill-rule="nonzero" opacity="1" stroke="none"></path>
<path d="M512.002 324.956L509.05 324.956L503.074 340.472L496.306 324.956L493.246 324.956L501.706 343.496C501.154 344.816 500.59 345.728 500.014 346.232C499.438 346.736 498.73 346.988 497.89 346.988C497.29 346.988 496.768 346.934 496.324 346.826C495.88 346.718 495.43 346.544 494.974 346.304L494.038 348.5C494.662 348.812 495.286 349.046 495.91 349.202C496.534 349.358 497.23 349.436 497.998 349.436C499.39 349.436 500.572 349.04 501.544 348.248C502.516 347.456 503.398 346.1 504.19 344.18L512.002 324.956Z" fill="#000000" fill-rule="nonzero" opacity="1" stroke="none"></path>
<path d="M536.446 334.208L536.446 331.292L526.438 331.292L526.438 334.208L536.446 334.208Z" fill="#000000" fill-rule="nonzero" opacity="1" stroke="none"></path>
<path d="M571.258 318.368L553.15 318.368L553.15 343.568L555.994 343.568L555.994 332.588L569.638 332.588L569.638 329.996L555.994 329.996L555.994 320.996L571.258 320.996L571.258 318.368Z" fill="#000000" fill-rule="nonzero" opacity="1" stroke="none"></path>
<path d="M579.07 336.152C579.07 334.76 579.262 333.53 579.646 332.462C580.03 331.394 580.558 330.5 581.23 329.78C581.902 329.06 582.688 328.52 583.588 328.16C584.488 327.8 585.442 327.62 586.45 327.62L586.666 327.62L586.666 324.632C585.778 324.608 584.95 324.716 584.182 324.956C583.414 325.196 582.706 325.55 582.058 326.018C581.41 326.486 580.834 327.044 580.33 327.692C579.826 328.34 579.406 329.048 579.07 329.816L579.07 324.956L576.298 324.956L576.298 343.568L579.07 343.568L579.07 336.152Z" fill="#000000" fill-rule="nonzero" opacity="1" stroke="none"></path>
<path d="M594.118 320.888L594.118 317.828L590.95 317.828L590.95 320.888L594.118 320.888ZM593.902 343.568L593.902 324.956L591.13 324.956L591.13 343.568L593.902 343.568Z" fill="#000000" fill-rule="nonzero" opacity="1" stroke="none"></path>
<path d="M618.058 343.568L618.058 317.288L615.286 317.288L615.286 328.52C614.926 327.992 614.512 327.488 614.044 327.008C613.576 326.528 613.054 326.108 612.478 325.748C611.902 325.388 611.254 325.1 610.534 324.884C609.814 324.668 609.022 324.56 608.158 324.56C607.03 324.56 605.938 324.782 604.882 325.226C603.826 325.67 602.878 326.306 602.038 327.134C601.198 327.962 600.526 328.976 600.022 330.176C599.518 331.376 599.266 332.744 599.266 334.28C599.266 335.816 599.518 337.184 600.022 338.384C600.526 339.584 601.198 340.598 602.038 341.426C602.878 342.254 603.826 342.884 604.882 343.316C605.938 343.748 607.03 343.964 608.158 343.964C609.022 343.964 609.808 343.856 610.516 343.64C611.224 343.424 611.866 343.124 612.442 342.74C613.018 342.356 613.54 341.912 614.008 341.408C614.476 340.904 614.902 340.376 615.286 339.824L615.286 343.568L618.058 343.568ZM615.394 334.244C615.394 335.324 615.208 336.314 614.836 337.214C614.464 338.114 613.96 338.876 613.324 339.5C612.688 340.124 611.968 340.61 611.164 340.958C610.36 341.306 609.526 341.48 608.662 341.48C607.774 341.48 606.934 341.312 606.142 340.976C605.35 340.64 604.654 340.154 604.054 339.518C603.454 338.882 602.98 338.12 602.632 337.232C602.284 336.344 602.11 335.348 602.11 334.244C602.11 333.116 602.284 332.102 602.632 331.202C602.98 330.302 603.448 329.546 604.036 328.934C604.624 328.322 605.314 327.854 606.106 327.53C606.898 327.206 607.75 327.044 608.662 327.044C609.526 327.044 610.36 327.218 611.164 327.566C611.968 327.914 612.688 328.4 613.324 329.024C613.96 329.648 614.464 330.404 614.836 331.292C615.208 332.18 615.394 333.164 615.394 334.244Z" fill="#000000" fill-rule="nonzero" opacity="1" stroke="none"></path>
<path d="M630.982 327.152C632.734 327.152 634.096 327.578 635.068 328.43C636.04 329.282 636.526 330.548 636.526 332.228L636.526 332.876C635.686 332.636 634.822 332.444 633.934 332.3C633.046 332.156 632.002 332.084 630.802 332.084C629.626 332.084 628.552 332.216 627.58 332.48C626.608 332.744 625.768 333.128 625.06 333.632C624.352 334.136 623.806 334.766 623.422 335.522C623.038 336.278 622.846 337.148 622.846 338.132C622.846 339.116 623.044 339.968 623.44 340.688C623.836 341.408 624.364 342.014 625.024 342.506C625.684 342.998 626.428 343.364 627.256 343.604C628.084 343.844 628.93 343.964 629.794 343.964C631.45 343.964 632.824 343.64 633.916 342.992C635.008 342.344 635.878 341.6 636.526 340.76L636.526 343.568L639.19 343.568L639.19 332.192C639.19 329.72 638.506 327.854 637.138 326.594C635.77 325.334 633.814 324.704 631.27 324.704C629.902 324.704 628.69 324.842 627.634 325.118C626.578 325.394 625.534 325.772 624.502 326.252L625.33 328.52C626.194 328.112 627.076 327.782 627.976 327.53C628.876 327.278 629.878 327.152 630.982 327.152ZM631.09 334.136C632.242 334.136 633.268 334.22 634.168 334.388C635.068 334.556 635.866 334.736 636.562 334.928L636.562 336.728C636.562 337.472 636.4 338.15 636.076 338.762C635.752 339.374 635.308 339.902 634.744 340.346C634.18 340.79 633.52 341.138 632.764 341.39C632.008 341.642 631.198 341.768 630.334 341.768C629.71 341.768 629.116 341.684 628.552 341.516C627.988 341.348 627.49 341.102 627.058 340.778C626.626 340.454 626.284 340.064 626.032 339.608C625.78 339.152 625.654 338.624 625.654 338.024C625.654 336.824 626.122 335.876 627.058 335.18C627.994 334.484 629.338 334.136 631.09 334.136Z" fill="#000000" fill-rule="nonzero" opacity="1" stroke="none"></path>
<path d="M661.258 324.956L658.306 324.956L652.33 340.472L645.562 324.956L642.502 324.956L650.962 343.496C650.41 344.816 649.846 345.728 649.27 346.232C648.694 346.736 647.986 346.988 647.146 346.988C646.546 346.988 646.024 346.934 645.58 346.826C645.136 346.718 644.686 346.544 644.23 346.304L643.294 348.5C643.918 348.812 644.542 349.046 645.166 349.202C645.79 349.358 646.486 349.436 647.254 349.436C648.646 349.436 649.828 349.04 650.8 348.248C651.772 347.456 652.654 346.1 653.446 344.18L661.258 324.956Z" fill="#000000" fill-rule="nonzero" opacity="1" stroke="none"></path>
</g>
<g opacity="1">
<path d="M302.032 454.532C302.032 452.756 301.708 451.1 301.06 449.564C300.412 448.028 299.494 446.696 298.306 445.568C297.118 444.44 295.702 443.558 294.058 442.922C292.414 442.286 290.608 441.968 288.64 441.968L279.892 441.968L279.892 467.168L288.64 467.168C290.608 467.168 292.414 466.844 294.058 466.196C295.702 465.548 297.118 464.66 298.306 463.532C299.494 462.404 300.412 461.066 301.06 459.518C301.708 457.97 302.032 456.308 302.032 454.532ZM299.08 454.604C299.08 456.02 298.834 457.328 298.342 458.528C297.85 459.728 297.154 460.778 296.254 461.678C295.354 462.578 294.256 463.28 292.96 463.784C291.664 464.288 290.224 464.54 288.64 464.54L282.736 464.54L282.736 444.596L288.64 444.596C290.224 444.596 291.664 444.854 292.96 445.37C294.256 445.886 295.354 446.594 296.254 447.494C297.154 448.394 297.85 449.456 298.342 450.68C298.834 451.904 299.08 453.212 299.08 454.604Z" fill="#000000" fill-rule="nonzero" opacity="1" stroke="none"></path>
<path d="M314.308 450.752C316.06 450.752 317.422 451.178 318.394 452.03C319.366 452.882 319.852 454.148 319.852 455.828L319.852 456.476C319.012 456.236 318.148 456.044 317.26 455.9C316.372 455.756 315.328 455.684 314.128 455.684C312.952 455.684 311.878 455.816 310.906 456.08C309.934 456.344 309.094 456.728 308.386 457.232C307.678 457.736 307.132 458.366 306.748 459.122C306.364 459.878 306.172 460.748 306.172 461.732C306.172 462.716 306.37 463.568 306.766 464.288C307.162 465.008 307.69 465.614 308.35 466.106C309.01 466.598 309.754 466.964 310.582 467.204C311.41 467.444 312.256 467.564 313.12 467.564C314.776 467.564 316.15 467.24 317.242 466.592C318.334 465.944 319.204 465.2 319.852 464.36L319.852 467.168L322.516 467.168L322.516 455.792C322.516 453.32 321.832 451.454 320.464 450.194C319.096 448.934 317.14 448.304 314.596 448.304C313.228 448.304 312.016 448.442 310.96 448.718C309.904 448.994 308.86 449.372 307.828 449.852L308.656 452.12C309.52 451.712 310.402 451.382 311.302 451.13C312.202 450.878 313.204 450.752 314.308 450.752ZM314.416 457.736C315.568 457.736 316.594 457.82 317.494 457.988C318.394 458.156 319.192 458.336 319.888 458.528L319.888 460.328C319.888 461.072 319.726 461.75 319.402 462.362C319.078 462.974 318.634 463.502 318.07 463.946C317.506 464.39 316.846 464.738 316.09 464.99C315.334 465.242 314.524 465.368 313.66 465.368C313.036 465.368 312.442 465.284 311.878 465.116C311.314 464.948 310.816 464.702 310.384 464.378C309.952 464.054 309.61 463.664 309.358 463.208C309.106 462.752 308.98 462.224 308.98 461.624C308.98 460.424 309.448 459.476 310.384 458.78C311.32 458.084 312.664 457.736 314.416 457.736Z" fill="#000000" fill-rule="nonzero" opacity="1" stroke="none"></path>
<path d="M341.2 461.948L341.2 461.876C341.2 461.036 341.026 460.328 340.678 459.752C340.33 459.176 339.868 458.684 339.292 458.276C338.716 457.868 338.074 457.532 337.366 457.268C336.658 457.004 335.944 456.764 335.224 456.548C334.6 456.356 334 456.164 333.424 455.972C332.848 455.78 332.338 455.564 331.894 455.324C331.45 455.084 331.096 454.802 330.832 454.478C330.568 454.154 330.436 453.776 330.436 453.344L330.436 453.272C330.436 452.504 330.76 451.862 331.408 451.346C332.056 450.83 332.932 450.572 334.036 450.572C334.948 450.572 335.878 450.734 336.826 451.058C337.774 451.382 338.68 451.82 339.544 452.372L340.804 450.284C339.844 449.66 338.776 449.162 337.6 448.79C336.424 448.418 335.26 448.232 334.108 448.232C333.196 448.232 332.35 448.358 331.57 448.61C330.79 448.862 330.118 449.222 329.554 449.69C328.99 450.158 328.552 450.722 328.24 451.382C327.928 452.042 327.772 452.768 327.772 453.56L327.772 453.632C327.772 454.496 327.958 455.216 328.33 455.792C328.702 456.368 329.182 456.848 329.77 457.232C330.358 457.616 331.018 457.934 331.75 458.186C332.482 458.438 333.208 458.672 333.928 458.888C334.528 459.056 335.11 459.236 335.674 459.428C336.238 459.62 336.736 459.842 337.168 460.094C337.6 460.346 337.942 460.64 338.194 460.976C338.446 461.312 338.572 461.708 338.572 462.164L338.572 462.236C338.572 463.148 338.212 463.868 337.492 464.396C336.772 464.924 335.848 465.188 334.72 465.188C333.616 465.188 332.518 464.984 331.426 464.576C330.334 464.168 329.284 463.58 328.276 462.812L326.872 464.792C327.928 465.632 329.14 466.298 330.508 466.79C331.876 467.282 333.232 467.528 334.576 467.528C335.512 467.528 336.382 467.402 337.186 467.15C337.99 466.898 338.686 466.532 339.274 466.052C339.862 465.572 340.33 464.99 340.678 464.306C341.026 463.622 341.2 462.836 341.2 461.948Z" fill="#000000" fill-rule="nonzero" opacity="1" stroke="none"></path>
<path d="M362.332 464L360.568 462.344C359.824 463.136 358.99 463.796 358.066 464.324C357.142 464.852 356.08 465.116 354.88 465.116C353.896 465.116 352.99 464.93 352.162 464.558C351.334 464.186 350.614 463.67 350.002 463.01C349.39 462.35 348.91 461.576 348.562 460.688C348.214 459.8 348.04 458.852 348.04 457.844C348.04 456.836 348.208 455.894 348.544 455.018C348.88 454.142 349.348 453.374 349.948 452.714C350.548 452.054 351.256 451.538 352.072 451.166C352.888 450.794 353.764 450.608 354.7 450.608C355.972 450.608 357.046 450.884 357.922 451.436C358.798 451.988 359.608 452.648 360.352 453.416L362.188 451.472C361.756 451.016 361.288 450.584 360.784 450.176C360.28 449.768 359.728 449.414 359.128 449.114C358.528 448.814 357.868 448.58 357.148 448.412C356.428 448.244 355.624 448.16 354.736 448.16C353.368 448.16 352.102 448.418 350.938 448.934C349.774 449.45 348.766 450.152 347.914 451.04C347.062 451.928 346.396 452.966 345.916 454.154C345.436 455.342 345.196 456.596 345.196 457.916C345.196 459.236 345.436 460.484 345.916 461.66C346.396 462.836 347.062 463.862 347.914 464.738C348.766 465.614 349.774 466.31 350.938 466.826C352.102 467.342 353.368 467.6 354.736 467.6C356.488 467.6 357.958 467.264 359.146 466.592C360.334 465.92 361.396 465.056 362.332 464Z" fill="#000000" fill-rule="nonzero" opacity="1" stroke="none"></path>
<path d="M384.616 457.844C384.616 456.524 384.376 455.276 383.896 454.1C383.416 452.924 382.744 451.898 381.88 451.022C381.016 450.146 379.99 449.45 378.802 448.934C377.614 448.418 376.324 448.16 374.932 448.16C373.516 448.16 372.214 448.418 371.026 448.934C369.838 449.45 368.812 450.152 367.948 451.04C367.084 451.928 366.412 452.966 365.932 454.154C365.452 455.342 365.212 456.596 365.212 457.916C365.212 459.236 365.452 460.484 365.932 461.66C366.412 462.836 367.084 463.862 367.948 464.738C368.812 465.614 369.832 466.31 371.008 466.826C372.184 467.342 373.468 467.6 374.86 467.6C376.252 467.6 377.548 467.342 378.748 466.826C379.948 466.31 380.98 465.608 381.844 464.72C382.708 463.832 383.386 462.794 383.878 461.606C384.37 460.418 384.616 459.164 384.616 457.844ZM381.772 457.916C381.772 458.924 381.604 459.866 381.268 460.742C380.932 461.618 380.464 462.38 379.864 463.028C379.264 463.676 378.544 464.186 377.704 464.558C376.864 464.93 375.94 465.116 374.932 465.116C373.948 465.116 373.036 464.924 372.196 464.54C371.356 464.156 370.63 463.64 370.018 462.992C369.406 462.344 368.926 461.576 368.578 460.688C368.23 459.8 368.056 458.852 368.056 457.844C368.056 456.836 368.224 455.894 368.56 455.018C368.896 454.142 369.358 453.374 369.946 452.714C370.534 452.054 371.248 451.538 372.088 451.166C372.928 450.794 373.852 450.608 374.86 450.608C375.844 450.608 376.756 450.8 377.596 451.184C378.436 451.568 379.168 452.09 379.792 452.75C380.416 453.41 380.902 454.184 381.25 455.072C381.598 455.96 381.772 456.908 381.772 457.916Z" fill="#000000" fill-rule="nonzero" opacity="1" stroke="none"></path>
<path d="M404.38 451.868C403.876 450.812 403.132 449.93 402.148 449.222C401.164 448.514 399.916 448.16 398.404 448.16C397.612 448.16 396.916 448.256 396.316 448.448C395.716 448.64 395.176 448.898 394.696 449.222C394.216 449.546 393.79 449.924 393.418 450.356C393.046 450.788 392.704 451.232 392.392 451.688L392.392 448.556L389.62 448.556L389.62 467.168L392.392 467.168L392.392 456.548C392.392 455.684 392.524 454.898 392.788 454.19C393.052 453.482 393.418 452.864 393.886 452.336C394.354 451.808 394.9 451.4 395.524 451.112C396.148 450.824 396.832 450.68 397.576 450.68C399.064 450.68 400.234 451.166 401.086 452.138C401.938 453.11 402.364 454.472 402.364 456.224L402.364 467.168L405.1 467.168L405.1 456.44C405.1 455.528 405.238 454.712 405.514 453.992C405.79 453.272 406.162 452.666 406.63 452.174C407.098 451.682 407.644 451.31 408.268 451.058C408.892 450.806 409.552 450.68 410.248 450.68C411.76 450.68 412.942 451.166 413.794 452.138C414.646 453.11 415.072 454.496 415.072 456.296L415.072 467.168L417.844 467.168L417.844 455.648C417.844 453.32 417.232 451.49 416.008 450.158C414.784 448.826 413.092 448.16 410.932 448.16C410.116 448.16 409.378 448.256 408.718 448.448C408.058 448.64 407.464 448.904 406.936 449.24C406.408 449.576 405.934 449.972 405.514 450.428C405.094 450.884 404.716 451.364 404.38 451.868Z" fill="#000000" fill-rule="nonzero" opacity="1" stroke="none"></path>
<path d="M442.648 457.844C442.648 456.308 442.396 454.94 441.892 453.74C441.388 452.54 440.716 451.526 439.876 450.698C439.036 449.87 438.082 449.24 437.014 448.808C435.946 448.376 434.86 448.16 433.756 448.16C432.892 448.16 432.106 448.274 431.398 448.502C430.69 448.73 430.048 449.03 429.472 449.402C428.896 449.774 428.374 450.212 427.906 450.716C427.438 451.22 427.012 451.748 426.628 452.3L426.628 440.888L423.856 440.888L423.856 467.168L426.628 467.168L426.628 463.604C426.988 464.132 427.402 464.636 427.87 465.116C428.338 465.596 428.86 466.016 429.436 466.376C430.012 466.736 430.66 467.024 431.38 467.24C432.1 467.456 432.892 467.564 433.756 467.564C434.884 467.564 435.982 467.342 437.05 466.898C438.118 466.454 439.066 465.818 439.894 464.99C440.722 464.162 441.388 463.148 441.892 461.948C442.396 460.748 442.648 459.38 442.648 457.844ZM439.804 457.88C439.804 459.008 439.63 460.022 439.282 460.922C438.934 461.822 438.466 462.578 437.878 463.19C437.29 463.802 436.594 464.27 435.79 464.594C434.986 464.918 434.14 465.08 433.252 465.08C432.388 465.08 431.554 464.906 430.75 464.558C429.946 464.21 429.226 463.724 428.59 463.1C427.954 462.476 427.45 461.714 427.078 460.814C426.706 459.914 426.52 458.924 426.52 457.844C426.52 456.764 426.706 455.78 427.078 454.892C427.45 454.004 427.954 453.248 428.59 452.624C429.226 452 429.946 451.514 430.75 451.166C431.554 450.818 432.388 450.644 433.252 450.644C434.14 450.644 434.98 450.812 435.772 451.148C436.564 451.484 437.26 451.97 437.86 452.606C438.46 453.242 438.934 454.004 439.282 454.892C439.63 455.78 439.804 456.776 439.804 457.88Z" fill="#000000" fill-rule="nonzero" opacity="1" stroke="none"></path>
<path d="M445.96 470.3L446.392 471.56C447.76 471.248 448.768 470.714 449.416 469.958C450.064 469.202 450.388 468.092 450.388 466.628L450.388 463.388L447.076 463.388L447.076 467.168L448.372 467.168C448.444 467.936 448.288 468.566 447.904 469.058C447.52 469.55 446.872 469.964 445.96 470.3Z" fill="#000000" fill-rule="nonzero" opacity="1" stroke="none"></path>
<path d="M469.684 448.268C469.684 447.692 469.81 447.152 470.062 446.648C470.314 446.144 470.674 445.712 471.142 445.352C471.61 444.992 472.174 444.704 472.834 444.488C473.494 444.272 474.232 444.164 475.048 444.164C476.344 444.164 477.586 444.38 478.774 444.812C479.962 445.244 481.144 445.94 482.32 446.9L483.976 444.704C482.68 443.672 481.342 442.898 479.962 442.382C478.582 441.866 476.968 441.608 475.12 441.608C473.92 441.608 472.816 441.782 471.808 442.13C470.8 442.478 469.924 442.958 469.18 443.57C468.436 444.182 467.86 444.908 467.452 445.748C467.044 446.588 466.84 447.512 466.84 448.52C466.84 449.576 467.008 450.488 467.344 451.256C467.68 452.024 468.196 452.696 468.892 453.272C469.588 453.848 470.47 454.34 471.538 454.748C472.606 455.156 473.86 455.516 475.3 455.828C476.62 456.116 477.706 456.416 478.558 456.728C479.41 457.04 480.076 457.388 480.556 457.772C481.036 458.156 481.372 458.582 481.564 459.05C481.756 459.518 481.852 460.052 481.852 460.652C481.852 461.948 481.342 462.992 480.322 463.784C479.302 464.576 477.94 464.972 476.236 464.972C474.484 464.972 472.936 464.678 471.592 464.09C470.248 463.502 468.916 462.608 467.596 461.408L465.832 463.496C467.344 464.864 468.934 465.878 470.602 466.538C472.27 467.198 474.112 467.528 476.128 467.528C477.376 467.528 478.528 467.36 479.584 467.024C480.64 466.688 481.546 466.208 482.302 465.584C483.058 464.96 483.652 464.204 484.084 463.316C484.516 462.428 484.732 461.444 484.732 460.364C484.732 458.42 484.066 456.896 482.734 455.792C481.402 454.688 479.332 453.824 476.524 453.2C475.132 452.912 473.992 452.606 473.104 452.282C472.216 451.958 471.52 451.598 471.016 451.202C470.512 450.806 470.164 450.368 469.972 449.888C469.78 449.408 469.684 448.868 469.684 448.268Z" fill="#000000" fill-rule="nonzero" opacity="1" stroke="none"></path>
<path d="M503.272 459.212C503.272 460.076 503.128 460.868 502.84 461.588C502.552 462.308 502.162 462.926 501.67 463.442C501.178 463.958 500.59 464.354 499.906 464.63C499.222 464.906 498.484 465.044 497.692 465.044C496.036 465.044 494.764 464.54 493.876 463.532C492.988 462.524 492.544 461.156 492.544 459.428L492.544 448.556L489.772 448.556L489.772 460.112C489.772 461.216 489.934 462.224 490.258 463.136C490.582 464.048 491.05 464.834 491.662 465.494C492.274 466.154 493.018 466.664 493.894 467.024C494.77 467.384 495.772 467.564 496.9 467.564C498.508 467.564 499.816 467.21 500.824 466.502C501.832 465.794 502.648 464.936 503.272 463.928L503.272 467.168L506.008 467.168L506.008 448.556L503.272 448.556L503.272 459.212Z" fill="#000000" fill-rule="nonzero" opacity="1" stroke="none"></path>
<path d="M515.476 444.488L515.476 441.428L512.308 441.428L512.308 444.488L515.476 444.488ZM515.26 467.168L515.26 448.556L512.488 448.556L512.488 467.168L515.26 467.168Z" fill="#000000" fill-rule="nonzero" opacity="1" stroke="none"></path>
<path d="M525.448 451.004L531.352 451.004L531.352 448.556L525.448 448.556L525.448 442.94L522.676 442.94L522.676 448.556L520.084 448.556L520.084 451.004L522.676 451.004L522.676 462.236C522.676 463.172 522.808 463.976 523.072 464.648C523.336 465.32 523.702 465.866 524.17 466.286C524.638 466.706 525.196 467.012 525.844 467.204C526.492 467.396 527.188 467.492 527.932 467.492C528.604 467.492 529.21 467.426 529.75 467.294C530.29 467.162 530.8 466.964 531.28 466.7L531.28 464.324C530.8 464.564 530.35 464.732 529.93 464.828C529.51 464.924 529.06 464.972 528.58 464.972C527.644 464.972 526.888 464.744 526.312 464.288C525.736 463.832 525.448 463.028 525.448 461.876L525.448 451.004Z" fill="#000000" fill-rule="nonzero" opacity="1" stroke="none"></path>
<path d="M537.364 458.888L552.124 458.888C552.148 458.72 552.16 458.564 552.16 458.42C552.16 458.276 552.16 458.144 552.16 458.024C552.16 456.656 551.968 455.372 551.584 454.172C551.2 452.972 550.636 451.928 549.892 451.04C549.148 450.152 548.236 449.45 547.156 448.934C546.076 448.418 544.852 448.16 543.484 448.16C542.188 448.16 540.994 448.412 539.902 448.916C538.81 449.42 537.868 450.11 537.076 450.986C536.284 451.862 535.666 452.894 535.222 454.082C534.778 455.27 534.556 456.536 534.556 457.88C534.556 459.32 534.802 460.64 535.294 461.84C535.786 463.04 536.452 464.066 537.292 464.918C538.132 465.77 539.116 466.43 540.244 466.898C541.372 467.366 542.572 467.6 543.844 467.6C545.62 467.6 547.108 467.282 548.308 466.646C549.508 466.01 550.576 465.164 551.512 464.108L549.784 462.56C549.016 463.352 548.17 463.988 547.246 464.468C546.322 464.948 545.212 465.188 543.916 465.188C543.1 465.188 542.32 465.05 541.576 464.774C540.832 464.498 540.16 464.09 539.56 463.55C538.96 463.01 538.468 462.35 538.084 461.57C537.7 460.79 537.46 459.896 537.364 458.888ZM537.364 456.836C537.46 455.924 537.676 455.084 538.012 454.316C538.348 453.548 538.78 452.882 539.308 452.318C539.836 451.754 540.448 451.31 541.144 450.986C541.84 450.662 542.596 450.5 543.412 450.5C544.348 450.5 545.17 450.674 545.878 451.022C546.586 451.37 547.186 451.832 547.678 452.408C548.17 452.984 548.554 453.656 548.83 454.424C549.106 455.192 549.28 455.996 549.352 456.836L537.364 456.836Z" fill="#000000" fill-rule="nonzero" opacity="1" stroke="none"></path>
<path d="M579.016 441.968L568.288 441.968L568.288 467.168L579.484 467.168C580.852 467.168 582.1 467.012 583.228 466.7C584.356 466.388 585.322 465.938 586.126 465.35C586.93 464.762 587.548 464.036 587.98 463.172C588.412 462.308 588.628 461.336 588.628 460.256C588.628 459.392 588.484 458.624 588.196 457.952C587.908 457.28 587.524 456.704 587.044 456.224C586.564 455.744 585.994 455.33 585.334 454.982C584.674 454.634 583.972 454.352 583.228 454.136C583.732 453.92 584.218 453.65 584.686 453.326C585.154 453.002 585.58 452.6 585.964 452.12C586.348 451.64 586.654 451.088 586.882 450.464C587.11 449.84 587.224 449.108 587.224 448.268C587.224 447.308 587.032 446.438 586.648 445.658C586.264 444.878 585.712 444.218 584.992 443.678C584.272 443.138 583.408 442.718 582.4 442.418C581.392 442.118 580.264 441.968 579.016 441.968ZM578.548 453.2L571.096 453.2L571.096 444.524L578.764 444.524C580.564 444.524 581.944 444.896 582.904 445.64C583.864 446.384 584.344 447.392 584.344 448.664C584.344 450.152 583.804 451.28 582.724 452.048C581.644 452.816 580.252 453.2 578.548 453.2ZM579.556 464.612L571.096 464.612L571.096 455.72L579.052 455.72C581.26 455.72 582.928 456.098 584.056 456.854C585.184 457.61 585.748 458.684 585.748 460.076C585.748 461.516 585.196 462.632 584.092 463.424C582.988 464.216 581.476 464.612 579.556 464.612Z" fill="#000000" fill-rule="nonzero" opacity="1" stroke="none"></path>
</g>
<g opacity="1">
<path d="M285.071 489.536L284.441 488.546C281.781 490.046 279.731 491.876 278.291 494.036C276.851 496.196 276.131 498.646 276.131 501.386C276.131 504.126 276.851 506.576 278.291 508.736C279.731 510.896 281.781 512.726 284.441 514.226L285.071 513.236C282.691 511.776 280.866 510.066 279.596 508.106C278.326 506.146 277.691 503.906 277.691 501.386C277.691 498.866 278.326 496.626 279.596 494.666C280.866 492.706 282.691 490.996 285.071 489.536Z" fill="#000000" fill-rule="nonzero" opacity="1" stroke="none"></path>
<path d="M303.911 509.996L303.911 508.556L291.581 508.556L291.581 488.996L290.021 488.996L290.021 509.996L303.911 509.996Z" fill="#000000" fill-rule="nonzero" opacity="1" stroke="none"></path>
<path d="M310.121 490.706L310.121 488.696L308.291 488.696L308.291 490.706L310.121 490.706ZM309.941 509.996L309.941 494.696L308.471 494.696L308.471 509.996L309.941 509.996Z" fill="#000000" fill-rule="nonzero" opacity="1" stroke="none"></path>
<path d="M330.941 502.346L330.941 502.286C330.941 501.046 330.726 499.931 330.296 498.941C329.866 497.951 329.301 497.116 328.601 496.436C327.901 495.756 327.106 495.236 326.216 494.876C325.326 494.516 324.421 494.336 323.501 494.336C322.741 494.336 322.046 494.441 321.416 494.651C320.786 494.861 320.216 495.136 319.706 495.476C319.196 495.816 318.731 496.216 318.311 496.676C317.891 497.136 317.521 497.616 317.201 498.116L317.201 488.096L315.731 488.096L315.731 509.996L317.201 509.996L317.201 506.696C317.521 507.176 317.886 507.636 318.296 508.076C318.706 508.516 319.166 508.906 319.676 509.246C320.186 509.586 320.761 509.856 321.401 510.056C322.041 510.256 322.741 510.356 323.501 510.356C324.421 510.356 325.326 510.171 326.216 509.801C327.106 509.431 327.901 508.901 328.601 508.211C329.301 507.521 329.866 506.681 330.296 505.691C330.726 504.701 330.941 503.586 330.941 502.346ZM329.351 502.406C329.351 503.426 329.196 504.341 328.886 505.151C328.576 505.961 328.151 506.646 327.611 507.206C327.071 507.766 326.436 508.196 325.706 508.496C324.976 508.796 324.191 508.946 323.351 508.946C322.551 508.946 321.776 508.786 321.026 508.466C320.276 508.146 319.611 507.701 319.031 507.131C318.451 506.561 317.986 505.871 317.636 505.061C317.286 504.251 317.111 503.356 317.111 502.376L317.111 502.316C317.111 501.336 317.286 500.446 317.636 499.646C317.986 498.846 318.451 498.156 319.031 497.576C319.611 496.996 320.276 496.546 321.026 496.226C321.776 495.906 322.551 495.746 323.351 495.746C324.151 495.746 324.916 495.901 325.646 496.211C326.376 496.521 327.016 496.961 327.566 497.531C328.116 498.101 328.551 498.796 328.871 499.616C329.191 500.436 329.351 501.346 329.351 502.346L329.351 502.406Z" fill="#000000" fill-rule="nonzero" opacity="1" stroke="none"></path>
<path d="M343.781 496.076L343.781 494.456C343.021 494.436 342.296 494.531 341.606 494.741C340.916 494.951 340.281 495.261 339.701 495.671C339.121 496.081 338.601 496.576 338.141 497.156C337.681 497.736 337.301 498.366 337.001 499.046L337.001 494.696L335.531 494.696L335.531 509.996L337.001 509.996L337.001 503.726C337.001 502.486 337.181 501.391 337.541 500.441C337.901 499.491 338.386 498.691 338.996 498.041C339.606 497.391 340.311 496.901 341.111 496.571C341.911 496.241 342.751 496.076 343.631 496.076L343.781 496.076Z" fill="#000000" fill-rule="nonzero" opacity="1" stroke="none"></path>
<path d="M358.721 509.996L358.721 500.456C358.721 498.456 358.151 496.956 357.011 495.956C355.871 494.956 354.311 494.456 352.331 494.456C351.271 494.456 350.311 494.576 349.451 494.816C348.591 495.056 347.741 495.376 346.901 495.776L347.441 497.066C348.141 496.706 348.881 496.411 349.661 496.181C350.441 495.951 351.301 495.836 352.241 495.836C353.821 495.836 355.056 496.226 355.946 497.006C356.836 497.786 357.281 498.956 357.281 500.516L357.281 501.176C356.541 500.976 355.781 500.816 355.001 500.696C354.221 500.576 353.291 500.516 352.211 500.516C351.211 500.516 350.301 500.626 349.481 500.846C348.661 501.066 347.961 501.386 347.381 501.806C346.801 502.226 346.346 502.746 346.016 503.366C345.686 503.986 345.521 504.696 345.521 505.496L345.521 505.556C345.521 506.356 345.696 507.056 346.046 507.656C346.396 508.256 346.851 508.756 347.411 509.156C347.971 509.556 348.601 509.856 349.301 510.056C350.001 510.256 350.711 510.356 351.431 510.356C352.151 510.356 352.816 510.271 353.426 510.101C354.036 509.931 354.581 509.711 355.061 509.441C355.541 509.171 355.966 508.861 356.336 508.511C356.706 508.161 357.021 507.806 357.281 507.446L357.281 509.996L358.721 509.996ZM357.311 504.266C357.311 504.966 357.156 505.606 356.846 506.186C356.536 506.766 356.116 507.261 355.586 507.671C355.056 508.081 354.441 508.401 353.741 508.631C353.041 508.861 352.301 508.976 351.521 508.976C350.941 508.976 350.381 508.896 349.841 508.736C349.301 508.576 348.826 508.346 348.416 508.046C348.006 507.746 347.681 507.381 347.441 506.951C347.201 506.521 347.081 506.026 347.081 505.466L347.081 505.406C347.081 504.326 347.516 503.461 348.386 502.811C349.256 502.161 350.501 501.836 352.121 501.836C353.221 501.836 354.201 501.911 355.061 502.061C355.921 502.211 356.671 502.366 357.311 502.526L357.311 504.266Z" fill="#000000" fill-rule="nonzero" opacity="1" stroke="none"></path>
<path d="M372.251 496.076L372.251 494.456C371.491 494.436 370.766 494.531 370.076 494.741C369.386 494.951 368.751 495.261 368.171 495.671C367.591 496.081 367.071 496.576 366.611 497.156C366.151 497.736 365.771 498.366 365.471 499.046L365.471 494.696L364.001 494.696L364.001 509.996L365.471 509.996L365.471 503.726C365.471 502.486 365.651 501.391 366.011 500.441C366.371 499.491 366.856 498.691 367.466 498.041C368.076 497.391 368.781 496.901 369.581 496.571C370.381 496.241 371.221 496.076 372.101 496.076L372.251 496.076Z" fill="#000000" fill-rule="nonzero" opacity="1" stroke="none"></path>
<path d="M389.591 494.696L387.971 494.696L382.451 508.376L376.091 494.696L374.381 494.696L381.731 509.906C381.451 510.566 381.171 511.126 380.891 511.586C380.611 512.046 380.321 512.421 380.021 512.711C379.721 513.001 379.401 513.206 379.061 513.326C378.721 513.446 378.351 513.506 377.951 513.506C377.371 513.506 376.891 513.461 376.511 513.371C376.131 513.281 375.741 513.136 375.341 512.936L374.831 514.226C375.351 514.446 375.841 514.611 376.301 514.721C376.761 514.831 377.281 514.886 377.861 514.886C378.961 514.886 379.916 514.561 380.726 513.911C381.536 513.261 382.281 512.136 382.961 510.536L389.591 494.696Z" fill="#000000" fill-rule="nonzero" opacity="1" stroke="none"></path>
<path d="M412.871 505.826L412.871 505.766C412.871 505.086 412.726 504.516 412.436 504.056C412.146 503.596 411.761 503.201 411.281 502.871C410.801 502.541 410.261 502.271 409.661 502.061C409.061 501.851 408.451 501.656 407.831 501.476C407.291 501.316 406.761 501.151 406.241 500.981C405.721 500.811 405.266 500.616 404.876 500.396C404.486 500.176 404.171 499.911 403.931 499.601C403.691 499.291 403.571 498.926 403.571 498.506L403.571 498.446C403.571 497.686 403.886 497.051 404.516 496.541C405.146 496.031 405.991 495.776 407.051 495.776C407.871 495.776 408.686 495.916 409.496 496.196C410.306 496.476 411.061 496.846 411.761 497.306L412.541 496.076C411.781 495.556 410.916 495.146 409.946 494.846C408.976 494.546 408.031 494.396 407.111 494.396C406.371 494.396 405.691 494.501 405.071 494.711C404.451 494.921 403.921 495.216 403.481 495.596C403.041 495.976 402.696 496.421 402.446 496.931C402.196 497.441 402.071 498.006 402.071 498.626L402.071 498.686C402.071 499.366 402.226 499.936 402.536 500.396C402.846 500.856 403.251 501.241 403.751 501.551C404.251 501.861 404.816 502.116 405.446 502.316C406.076 502.516 406.701 502.706 407.321 502.886C407.861 503.046 408.371 503.206 408.851 503.366C409.331 503.526 409.761 503.726 410.141 503.966C410.521 504.206 410.821 504.486 411.041 504.806C411.261 505.126 411.371 505.506 411.371 505.946L411.371 506.006C411.371 506.906 411.016 507.616 410.306 508.136C409.596 508.656 408.721 508.916 407.681 508.916C406.701 508.916 405.751 508.741 404.831 508.391C403.911 508.041 403.031 507.546 402.191 506.906L401.321 508.076C402.141 508.736 403.111 509.271 404.231 509.681C405.351 510.091 406.471 510.296 407.591 510.296C408.331 510.296 409.021 510.191 409.661 509.981C410.301 509.771 410.861 509.471 411.341 509.081C411.821 508.691 412.196 508.221 412.466 507.671C412.736 507.121 412.871 506.506 412.871 505.826Z" fill="#000000" fill-rule="nonzero" opacity="1" stroke="none"></path>
<path d="M419.411 490.706L419.411 488.696L417.581 488.696L417.581 490.706L419.411 490.706ZM419.231 509.996L419.231 494.696L417.761 494.696L417.761 509.996L419.231 509.996Z" fill="#000000" fill-rule="nonzero" opacity="1" stroke="none"></path>
<path d="M439.241 509.996L439.241 488.096L437.771 488.096L437.771 497.996C437.451 497.516 437.086 497.056 436.676 496.616C436.266 496.176 435.806 495.786 435.296 495.446C434.786 495.106 434.211 494.836 433.571 494.636C432.931 494.436 432.231 494.336 431.471 494.336C430.551 494.336 429.646 494.521 428.756 494.891C427.866 495.261 427.071 495.791 426.371 496.481C425.671 497.171 425.106 498.011 424.676 499.001C424.246 499.991 424.031 501.106 424.031 502.346L424.031 502.406C424.031 503.646 424.246 504.761 424.676 505.751C425.106 506.741 425.671 507.576 426.371 508.256C427.071 508.936 427.866 509.456 428.756 509.816C429.646 510.176 430.551 510.356 431.471 510.356C432.231 510.356 432.926 510.251 433.556 510.041C434.186 509.831 434.756 509.556 435.266 509.216C435.776 508.876 436.236 508.476 436.646 508.016C437.056 507.556 437.431 507.076 437.771 506.576L437.771 509.996L439.241 509.996ZM437.861 502.376C437.861 503.356 437.686 504.246 437.336 505.046C436.986 505.846 436.521 506.536 435.941 507.116C435.361 507.696 434.696 508.146 433.946 508.466C433.196 508.786 432.421 508.946 431.621 508.946C430.821 508.946 430.056 508.791 429.326 508.481C428.596 508.171 427.956 507.731 427.406 507.161C426.856 506.591 426.421 505.896 426.101 505.076C425.781 504.256 425.621 503.346 425.621 502.346L425.621 502.286C425.621 501.266 425.776 500.351 426.086 499.541C426.396 498.731 426.821 498.046 427.361 497.486C427.901 496.926 428.536 496.496 429.266 496.196C429.996 495.896 430.781 495.746 431.621 495.746C432.421 495.746 433.196 495.906 433.946 496.226C434.696 496.546 435.361 496.991 435.941 497.561C436.521 498.131 436.986 498.821 437.336 499.631C437.686 500.441 437.861 501.336 437.861 502.316L437.861 502.376Z" fill="#000000" fill-rule="nonzero" opacity="1" stroke="none"></path>
<path d="M445.331 502.946L458.021 502.946C458.041 502.826 458.051 502.736 458.051 502.676C458.051 502.596 458.051 502.506 458.051 502.406L458.051 502.346C458.051 501.206 457.886 500.151 457.556 499.181C457.226 498.211 456.756 497.366 456.146 496.646C455.536 495.926 454.801 495.361 453.941 494.951C453.081 494.541 452.111 494.336 451.031 494.336C449.991 494.336 449.031 494.546 448.151 494.966C447.271 495.386 446.506 495.956 445.856 496.676C445.206 497.396 444.696 498.241 444.326 499.211C443.956 500.181 443.771 501.216 443.771 502.316L443.771 502.376C443.771 503.576 443.971 504.666 444.371 505.646C444.771 506.626 445.316 507.466 446.006 508.166C446.696 508.866 447.496 509.406 448.406 509.786C449.316 510.166 450.271 510.356 451.271 510.356C452.731 510.356 453.956 510.086 454.946 509.546C455.936 509.006 456.821 508.316 457.601 507.476L456.581 506.576C455.941 507.256 455.206 507.826 454.376 508.286C453.546 508.746 452.531 508.976 451.331 508.976C450.571 508.976 449.846 508.841 449.156 508.571C448.466 508.301 447.851 507.906 447.311 507.386C446.771 506.866 446.321 506.236 445.961 505.496C445.601 504.756 445.391 503.906 445.331 502.946ZM445.331 501.626C445.391 500.786 445.581 500.001 445.901 499.271C446.221 498.541 446.626 497.911 447.116 497.381C447.606 496.851 448.181 496.436 448.841 496.136C449.501 495.836 450.211 495.686 450.971 495.686C451.851 495.686 452.621 495.851 453.281 496.181C453.941 496.511 454.496 496.951 454.946 497.501C455.396 498.051 455.746 498.681 455.996 499.391C456.246 500.101 456.401 500.846 456.461 501.626L445.331 501.626Z" fill="#000000" fill-rule="nonzero" opacity="1" stroke="none"></path>
<path d="M486.011 502.346L486.011 502.286C486.011 501.206 485.816 500.186 485.426 499.226C485.036 498.266 484.491 497.426 483.791 496.706C483.091 495.986 482.266 495.411 481.316 494.981C480.366 494.551 479.321 494.336 478.181 494.336C477.041 494.336 475.991 494.551 475.031 494.981C474.071 495.411 473.236 495.996 472.526 496.736C471.816 497.476 471.266 498.326 470.876 499.286C470.486 500.246 470.291 501.266 470.291 502.346L470.291 502.406C470.291 503.486 470.486 504.506 470.876 505.466C471.266 506.426 471.811 507.266 472.511 507.986C473.211 508.706 474.036 509.281 474.986 509.711C475.936 510.141 476.981 510.356 478.121 510.356C479.261 510.356 480.311 510.141 481.271 509.711C482.231 509.281 483.066 508.696 483.776 507.956C484.486 507.216 485.036 506.366 485.426 505.406C485.816 504.446 486.011 503.426 486.011 502.346ZM484.421 502.406C484.421 503.306 484.266 504.156 483.956 504.956C483.646 505.756 483.216 506.451 482.666 507.041C482.116 507.631 481.456 508.101 480.686 508.451C479.916 508.801 479.081 508.976 478.181 508.976C477.301 508.976 476.476 508.806 475.706 508.466C474.936 508.126 474.266 507.656 473.696 507.056C473.126 506.456 472.681 505.751 472.361 504.941C472.041 504.131 471.881 503.266 471.881 502.346L471.881 502.286C471.881 501.386 472.036 500.536 472.346 499.736C472.656 498.936 473.086 498.241 473.636 497.651C474.186 497.061 474.846 496.591 475.616 496.241C476.386 495.891 477.221 495.716 478.121 495.716C479.001 495.716 479.826 495.886 480.596 496.226C481.366 496.566 482.036 497.036 482.606 497.636C483.176 498.236 483.621 498.941 483.941 499.751C484.261 500.561 484.421 501.426 484.421 502.346L484.421 502.406Z" fill="#000000" fill-rule="nonzero" opacity="1" stroke="none"></path>
<path d="M498.281 489.746L498.281 488.366C497.941 488.246 497.591 488.156 497.231 488.096C496.871 488.036 496.461 488.006 496.001 488.006C494.561 488.006 493.441 488.456 492.641 489.356C491.841 490.256 491.441 491.536 491.441 493.196L491.441 494.696L489.221 494.696L489.221 496.046L491.441 496.046L491.441 509.996L492.911 509.996L492.911 496.046L498.251 496.046L498.251 494.696L492.911 494.696L492.911 493.226C492.911 490.646 493.941 489.356 496.001 489.356C496.401 489.356 496.771 489.386 497.111 489.446C497.451 489.506 497.841 489.606 498.281 489.746Z" fill="#000000" fill-rule="nonzero" opacity="1" stroke="none"></path>
<path d="M528.881 499.496L528.881 499.436C528.881 497.956 528.611 496.581 528.071 495.311C527.531 494.041 526.766 492.936 525.776 491.996C524.786 491.056 523.606 490.321 522.236 489.791C520.866 489.261 519.361 488.996 517.721 488.996L510.731 488.996L510.731 509.996L517.721 509.996C519.361 509.996 520.866 509.726 522.236 509.186C523.606 508.646 524.786 507.906 525.776 506.966C526.766 506.026 527.531 504.916 528.071 503.636C528.611 502.356 528.881 500.976 528.881 499.496ZM527.261 499.556C527.261 500.816 527.036 501.991 526.586 503.081C526.136 504.171 525.501 505.121 524.681 505.931C523.861 506.741 522.861 507.381 521.681 507.851C520.501 508.321 519.181 508.556 517.721 508.556L512.291 508.556L512.291 490.436L517.721 490.436C519.181 490.436 520.501 490.676 521.681 491.156C522.861 491.636 523.861 492.286 524.681 493.106C525.501 493.926 526.136 494.886 526.586 495.986C527.036 497.086 527.261 498.256 527.261 499.496L527.261 499.556Z" fill="#000000" fill-rule="nonzero" opacity="1" stroke="none"></path>
<path d="M545.801 509.996L545.801 500.456C545.801 498.456 545.231 496.956 544.091 495.956C542.951 494.956 541.391 494.456 539.411 494.456C538.351 494.456 537.391 494.576 536.531 494.816C535.671 495.056 534.821 495.376 533.981 495.776L534.521 497.066C535.221 496.706 535.961 496.411 536.741 496.181C537.521 495.951 538.381 495.836 539.321 495.836C540.901 495.836 542.136 496.226 543.026 497.006C543.916 497.786 544.361 498.956 544.361 500.516L544.361 501.176C543.621 500.976 542.861 500.816 542.081 500.696C541.301 500.576 540.371 500.516 539.291 500.516C538.291 500.516 537.381 500.626 536.561 500.846C535.741 501.066 535.041 501.386 534.461 501.806C533.881 502.226 533.426 502.746 533.096 503.366C532.766 503.986 532.601 504.696 532.601 505.496L532.601 505.556C532.601 506.356 532.776 507.056 533.126 507.656C533.476 508.256 533.931 508.756 534.491 509.156C535.051 509.556 535.681 509.856 536.381 510.056C537.081 510.256 537.791 510.356 538.511 510.356C539.231 510.356 539.896 510.271 540.506 510.101C541.116 509.931 541.661 509.711 542.141 509.441C542.621 509.171 543.046 508.861 543.416 508.511C543.786 508.161 544.101 507.806 544.361 507.446L544.361 509.996L545.801 509.996ZM544.391 504.266C544.391 504.966 544.236 505.606 543.926 506.186C543.616 506.766 543.196 507.261 542.666 507.671C542.136 508.081 541.521 508.401 540.821 508.631C540.121 508.861 539.381 508.976 538.601 508.976C538.021 508.976 537.461 508.896 536.921 508.736C536.381 508.576 535.906 508.346 535.496 508.046C535.086 507.746 534.761 507.381 534.521 506.951C534.281 506.521 534.161 506.026 534.161 505.466L534.161 505.406C534.161 504.326 534.596 503.461 535.466 502.811C536.336 502.161 537.581 501.836 539.201 501.836C540.301 501.836 541.281 501.911 542.141 502.061C543.001 502.211 543.751 502.366 544.391 502.526L544.391 504.266Z" fill="#000000" fill-rule="nonzero" opacity="1" stroke="none"></path>
<path d="M561.311 505.826L561.311 505.766C561.311 505.086 561.166 504.516 560.876 504.056C560.586 503.596 560.201 503.201 559.721 502.871C559.241 502.541 558.701 502.271 558.101 502.061C557.501 501.851 556.891 501.656 556.271 501.476C555.731 501.316 555.201 501.151 554.681 500.981C554.161 500.811 553.706 500.616 553.316 500.396C552.926 500.176 552.611 499.911 552.371 499.601C552.131 499.291 552.011 498.926 552.011 498.506L552.011 498.446C552.011 497.686 552.326 497.051 552.956 496.541C553.586 496.031 554.431 495.776 555.491 495.776C556.311 495.776 557.126 495.916 557.936 496.196C558.746 496.476 559.501 496.846 560.201 497.306L560.981 496.076C560.221 495.556 559.356 495.146 558.386 494.846C557.416 494.546 556.471 494.396 555.551 494.396C554.811 494.396 554.131 494.501 553.511 494.711C552.891 494.921 552.361 495.216 551.921 495.596C551.481 495.976 551.136 496.421 550.886 496.931C550.636 497.441 550.511 498.006 550.511 498.626L550.511 498.686C550.511 499.366 550.666 499.936 550.976 500.396C551.286 500.856 551.691 501.241 552.191 501.551C552.691 501.861 553.256 502.116 553.886 502.316C554.516 502.516 555.141 502.706 555.761 502.886C556.301 503.046 556.811 503.206 557.291 503.366C557.771 503.526 558.201 503.726 558.581 503.966C558.961 504.206 559.261 504.486 559.481 504.806C559.701 505.126 559.811 505.506 559.811 505.946L559.811 506.006C559.811 506.906 559.456 507.616 558.746 508.136C558.036 508.656 557.161 508.916 556.121 508.916C555.141 508.916 554.191 508.741 553.271 508.391C552.351 508.041 551.471 507.546 550.631 506.906L549.761 508.076C550.581 508.736 551.551 509.271 552.671 509.681C553.791 510.091 554.911 510.296 556.031 510.296C556.771 510.296 557.461 510.191 558.101 509.981C558.741 509.771 559.301 509.471 559.781 509.081C560.261 508.691 560.636 508.221 560.906 507.671C561.176 507.121 561.311 506.506 561.311 505.826Z" fill="#000000" fill-rule="nonzero" opacity="1" stroke="none"></path>
<path d="M578.981 507.326L577.961 506.426C577.321 507.146 576.576 507.751 575.726 508.241C574.876 508.731 573.911 508.976 572.831 508.976C571.951 508.976 571.131 508.806 570.371 508.466C569.611 508.126 568.946 507.656 568.376 507.056C567.806 506.456 567.356 505.751 567.026 504.941C566.696 504.131 566.531 503.266 566.531 502.346L566.531 502.286C566.531 501.366 566.691 500.506 567.011 499.706C567.331 498.906 567.766 498.211 568.316 497.621C568.866 497.031 569.516 496.566 570.266 496.226C571.016 495.886 571.831 495.716 572.711 495.716C573.851 495.716 574.821 495.966 575.621 496.466C576.421 496.966 577.151 497.556 577.811 498.236L578.861 497.156C578.501 496.776 578.116 496.416 577.706 496.076C577.296 495.736 576.841 495.436 576.341 495.176C575.841 494.916 575.296 494.711 574.706 494.561C574.116 494.411 573.461 494.336 572.741 494.336C571.641 494.336 570.616 494.551 569.666 494.981C568.716 495.411 567.891 495.996 567.191 496.736C566.491 497.476 565.941 498.326 565.541 499.286C565.141 500.246 564.941 501.266 564.941 502.346L564.941 502.406C564.941 503.486 565.141 504.506 565.541 505.466C565.941 506.426 566.491 507.266 567.191 507.986C567.891 508.706 568.716 509.281 569.666 509.711C570.616 510.141 571.641 510.356 572.741 510.356C574.141 510.356 575.336 510.071 576.326 509.501C577.316 508.931 578.201 508.206 578.981 507.326Z" fill="#000000" fill-rule="nonzero" opacity="1" stroke="none"></path>
<path d="M597.341 502.346L597.341 502.286C597.341 501.206 597.146 500.186 596.756 499.226C596.366 498.266 595.821 497.426 595.121 496.706C594.421 495.986 593.596 495.411 592.646 494.981C591.696 494.551 590.651 494.336 589.511 494.336C588.371 494.336 587.321 494.551 586.361 494.981C585.401 495.411 584.566 495.996 583.856 496.736C583.146 497.476 582.596 498.326 582.206 499.286C581.816 500.246 581.621 501.266 581.621 502.346L581.621 502.406C581.621 503.486 581.816 504.506 582.206 505.466C582.596 506.426 583.141 507.266 583.841 507.986C584.541 508.706 585.366 509.281 586.316 509.711C587.266 510.141 588.311 510.356 589.451 510.356C590.591 510.356 591.641 510.141 592.601 509.711C593.561 509.281 594.396 508.696 595.106 507.956C595.816 507.216 596.366 506.366 596.756 505.406C597.146 504.446 597.341 503.426 597.341 502.346ZM595.751 502.406C595.751 503.306 595.596 504.156 595.286 504.956C594.976 505.756 594.546 506.451 593.996 507.041C593.446 507.631 592.786 508.101 592.016 508.451C591.246 508.801 590.411 508.976 589.511 508.976C588.631 508.976 587.806 508.806 587.036 508.466C586.266 508.126 585.596 507.656 585.026 507.056C584.456 506.456 584.011 505.751 583.691 504.941C583.371 504.131 583.211 503.266 583.211 502.346L583.211 502.286C583.211 501.386 583.366 500.536 583.676 499.736C583.986 498.936 584.416 498.241 584.966 497.651C585.516 497.061 586.176 496.591 586.946 496.241C587.716 495.891 588.551 495.716 589.451 495.716C590.331 495.716 591.156 495.886 591.926 496.226C592.696 496.566 593.366 497.036 593.936 497.636C594.506 498.236 594.951 498.941 595.271 499.751C595.591 500.561 595.751 501.426 595.751 502.346L595.751 502.406Z" fill="#000000" fill-rule="nonzero" opacity="1" stroke="none"></path>
<path d="M625.001 509.996L625.001 500.726C625.001 499.766 624.866 498.891 624.596 498.101C624.326 497.311 623.936 496.641 623.426 496.091C622.916 495.541 622.296 495.111 621.566 494.801C620.836 494.491 620.021 494.336 619.121 494.336C618.401 494.336 617.756 494.426 617.186 494.606C616.616 494.786 616.106 495.031 615.656 495.341C615.206 495.651 614.811 496.006 614.471 496.406C614.131 496.806 613.841 497.216 613.601 497.636C613.381 497.196 613.116 496.776 612.806 496.376C612.496 495.976 612.131 495.626 611.711 495.326C611.291 495.026 610.806 494.786 610.256 494.606C609.706 494.426 609.101 494.336 608.441 494.336C607.761 494.336 607.156 494.421 606.626 494.591C606.096 494.761 605.631 494.991 605.231 495.281C604.831 495.571 604.476 495.901 604.166 496.271C603.856 496.641 603.581 497.026 603.341 497.426L603.341 494.696L601.871 494.696L601.871 509.996L603.341 509.996L603.341 501.176C603.341 500.396 603.466 499.676 603.716 499.016C603.966 498.356 604.311 497.776 604.751 497.276C605.191 496.776 605.711 496.386 606.311 496.106C606.911 495.826 607.551 495.686 608.231 495.686C609.611 495.686 610.701 496.141 611.501 497.051C612.301 497.961 612.701 499.216 612.701 500.816L612.701 509.996L614.171 509.996L614.171 501.086C614.171 500.226 614.301 499.461 614.561 498.791C614.821 498.121 615.171 497.556 615.611 497.096C616.051 496.636 616.566 496.286 617.156 496.046C617.746 495.806 618.361 495.686 619.001 495.686C620.421 495.686 621.531 496.141 622.331 497.051C623.131 497.961 623.531 499.246 623.531 500.906L623.531 509.996L625.001 509.996Z" fill="#000000" fill-rule="nonzero" opacity="1" stroke="none"></path>
<path d="M645.611 502.346L645.611 502.286C645.611 501.046 645.396 499.931 644.966 498.941C644.536 497.951 643.971 497.116 643.271 496.436C642.571 495.756 641.776 495.236 640.886 494.876C639.996 494.516 639.091 494.336 638.171 494.336C637.411 494.336 636.716 494.441 636.086 494.651C635.456 494.861 634.886 495.136 634.376 495.476C633.866 495.816 633.401 496.216 632.981 496.676C632.561 497.136 632.191 497.616 631.871 498.116L631.871 488.096L630.401 488.096L630.401 509.996L631.871 509.996L631.871 506.696C632.191 507.176 632.556 507.636 632.966 508.076C633.376 508.516 633.836 508.906 634.346 509.246C634.856 509.586 635.431 509.856 636.071 510.056C636.711 510.256 637.411 510.356 638.171 510.356C639.091 510.356 639.996 510.171 640.886 509.801C641.776 509.431 642.571 508.901 643.271 508.211C643.971 507.521 644.536 506.681 644.966 505.691C645.396 504.701 645.611 503.586 645.611 502.346ZM644.021 502.406C644.021 503.426 643.866 504.341 643.556 505.151C643.246 505.961 642.821 506.646 642.281 507.206C641.741 507.766 641.106 508.196 640.376 508.496C639.646 508.796 638.861 508.946 638.021 508.946C637.221 508.946 636.446 508.786 635.696 508.466C634.946 508.146 634.281 507.701 633.701 507.131C633.121 506.561 632.656 505.871 632.306 505.061C631.956 504.251 631.781 503.356 631.781 502.376L631.781 502.316C631.781 501.336 631.956 500.446 632.306 499.646C632.656 498.846 633.121 498.156 633.701 497.576C634.281 496.996 634.946 496.546 635.696 496.226C636.446 495.906 637.221 495.746 638.021 495.746C638.821 495.746 639.586 495.901 640.316 496.211C641.046 496.521 641.686 496.961 642.236 497.531C642.786 498.101 643.221 498.796 643.541 499.616C643.861 500.436 644.021 501.346 644.021 502.346L644.021 502.406Z" fill="#000000" fill-rule="nonzero" opacity="1" stroke="none"></path>
<path d="M648.341 489.536C650.721 490.996 652.546 492.706 653.816 494.666C655.086 496.626 655.721 498.866 655.721 501.386C655.721 503.906 655.086 506.146 653.816 508.106C652.546 510.066 650.721 511.776 648.341 513.236L648.971 514.226C651.631 512.726 653.681 510.896 655.121 508.736C656.561 506.576 657.281 504.126 657.281 501.386C657.281 498.646 656.561 496.196 655.121 494.036C653.681 491.876 651.631 490.046 648.971 488.546L648.341 489.536Z" fill="#000000" fill-rule="nonzero" opacity="1" stroke="none"></path>
</g>
</g>
</svg>
