<?xml version="1.0" encoding="UTF-8" standalone="no"?>
<!-- Created with Vectornator (http://vectornator.io/) -->
<svg xmlns="http://www.w3.org/2000/svg" xmlns:xlink="http://www.w3.org/1999/xlink" height="100%" stroke-miterlimit="10" style="fill-rule:nonzero;clip-rule:evenodd;stroke-linecap:round;stroke-linejoin:round;" version="1.1" viewBox="0 0 900 900" width="100%" xml:space="preserve">
<defs></defs>
<g id="Layer-2">
<path d="M748.258 179.768C822.397 222.597 850.86 342.412 843.676 455.043C836.357 567.674 793.663 673.122 719.524 699.28C645.521 725.439 540.074 672.444 431.238 675.832C322.537 679.221 210.313 738.857 136.445 712.698C62.5775 686.54 27.0668 574.315 68.1345 503.294C109.202 432.273 226.984 402.319 300.851 359.354C374.719 316.524 404.672 260.548 479.489 215.685C554.441 170.687 674.255 136.802 748.258 179.768" fill="#ed4962" fill-rule="nonzero" opacity="1" stroke="none"></path>
</g>
<clipPath id="ArtboardFrame">
<rect height="900" width="900" x="0" y="0"></rect>
</clipPath>
<g clip-path="url(#ArtboardFrame)" id="Layer-1">
<g opacity="1">
<path d="M451.396 374.987C451.396 373.715 451.324 372.581 451.18 371.585C451.036 370.589 450.832 369.701 450.568 368.921C450.304 368.141 449.98 367.451 449.596 366.851C449.212 366.251 448.768 365.699 448.264 365.195C447.448 364.379 446.5 363.743 445.42 363.287C444.34 362.831 443.08 362.603 441.64 362.603C440.296 362.603 439.066 362.825 437.95 363.269C436.834 363.713 435.88 364.325 435.088 365.105C434.296 365.885 433.678 366.797 433.234 367.841C432.79 368.885 432.568 370.007 432.568 371.207C432.568 372.359 432.784 373.415 433.216 374.375C433.648 375.335 434.248 376.163 435.016 376.859C435.784 377.555 436.708 378.095 437.788 378.479C438.868 378.863 440.056 379.055 441.352 379.055C443.104 379.055 444.556 378.659 445.708 377.867C446.86 377.075 447.784 376.127 448.48 375.023C448.504 376.631 448.342 378.113 447.994 379.469C447.646 380.825 447.142 381.989 446.482 382.961C445.822 383.933 445.024 384.695 444.088 385.247C443.152 385.799 442.12 386.075 440.992 386.075C439.864 386.075 438.808 385.853 437.824 385.409C436.84 384.965 435.832 384.287 434.8 383.375L433.144 385.571C434.224 386.459 435.376 387.197 436.6 387.785C437.824 388.373 439.264 388.667 440.92 388.667C442.48 388.667 443.902 388.331 445.186 387.659C446.47 386.987 447.574 386.045 448.498 384.833C449.422 383.621 450.136 382.181 450.64 380.513C451.144 378.845 451.396 377.003 451.396 374.987ZM447.94 370.883C447.94 371.603 447.796 372.311 447.508 373.007C447.22 373.703 446.806 374.315 446.266 374.843C445.726 375.371 445.066 375.797 444.286 376.121C443.506 376.445 442.636 376.607 441.676 376.607C440.764 376.607 439.924 376.469 439.156 376.193C438.388 375.917 437.734 375.533 437.194 375.041C436.654 374.549 436.234 373.967 435.934 373.295C435.634 372.623 435.484 371.879 435.484 371.063C435.484 370.271 435.622 369.515 435.898 368.795C436.174 368.075 436.57 367.445 437.086 366.905C437.602 366.365 438.238 365.933 438.994 365.609C439.75 365.285 440.596 365.123 441.532 365.123C442.468 365.123 443.332 365.273 444.124 365.573C444.916 365.873 445.594 366.281 446.158 366.797C446.722 367.313 447.16 367.919 447.472 368.615C447.784 369.311 447.94 370.067 447.94 370.883Z" fill="#000000" fill-rule="nonzero" opacity="1" stroke="none"></path>
<path d="M474.22 371.819C475.972 371.819 477.334 372.245 478.306 373.097C479.278 373.949 479.764 375.215 479.764 376.895L479.764 377.543C478.924 377.303 478.06 377.111 477.172 376.967C476.284 376.823 475.24 376.751 474.04 376.751C472.864 376.751 471.79 376.883 470.818 377.147C469.846 377.411 469.006 377.795 468.298 378.299C467.59 378.803 467.044 379.433 466.66 380.189C466.276 380.945 466.084 381.815 466.084 382.799C466.084 383.783 466.282 384.635 466.678 385.355C467.074 386.075 467.602 386.681 468.262 387.173C468.922 387.665 469.666 388.031 470.494 388.271C471.322 388.511 472.168 388.631 473.032 388.631C474.688 388.631 476.062 388.307 477.154 387.659C478.246 387.011 479.116 386.267 479.764 385.427L479.764 388.235L482.428 388.235L482.428 376.859C482.428 374.387 481.744 372.521 480.376 371.261C479.008 370.001 477.052 369.371 474.508 369.371C473.14 369.371 471.928 369.509 470.872 369.785C469.816 370.061 468.772 370.439 467.74 370.919L468.568 373.187C469.432 372.779 470.314 372.449 471.214 372.197C472.114 371.945 473.116 371.819 474.22 371.819ZM474.328 378.803C475.48 378.803 476.506 378.887 477.406 379.055C478.306 379.223 479.104 379.403 479.8 379.595L479.8 381.395C479.8 382.139 479.638 382.817 479.314 383.429C478.99 384.041 478.546 384.569 477.982 385.013C477.418 385.457 476.758 385.805 476.002 386.057C475.246 386.309 474.436 386.435 473.572 386.435C472.948 386.435 472.354 386.351 471.79 386.183C471.226 386.015 470.728 385.769 470.296 385.445C469.864 385.121 469.522 384.731 469.27 384.275C469.018 383.819 468.892 383.291 468.892 382.691C468.892 381.491 469.36 380.543 470.296 379.847C471.232 379.151 472.576 378.803 474.328 378.803Z" fill="#000000" fill-rule="nonzero" opacity="1" stroke="none"></path>
<path d="M503.092 372.935C502.588 371.879 501.844 370.997 500.86 370.289C499.876 369.581 498.628 369.227 497.116 369.227C496.324 369.227 495.628 369.323 495.028 369.515C494.428 369.707 493.888 369.965 493.408 370.289C492.928 370.613 492.502 370.991 492.13 371.423C491.758 371.855 491.416 372.299 491.104 372.755L491.104 369.623L488.332 369.623L488.332 388.235L491.104 388.235L491.104 377.615C491.104 376.751 491.236 375.965 491.5 375.257C491.764 374.549 492.13 373.931 492.598 373.403C493.066 372.875 493.612 372.467 494.236 372.179C494.86 371.891 495.544 371.747 496.288 371.747C497.776 371.747 498.946 372.233 499.798 373.205C500.65 374.177 501.076 375.539 501.076 377.291L501.076 388.235L503.812 388.235L503.812 377.507C503.812 376.595 503.95 375.779 504.226 375.059C504.502 374.339 504.874 373.733 505.342 373.241C505.81 372.749 506.356 372.377 506.98 372.125C507.604 371.873 508.264 371.747 508.96 371.747C510.472 371.747 511.654 372.233 512.506 373.205C513.358 374.177 513.784 375.563 513.784 377.363L513.784 388.235L516.556 388.235L516.556 376.715C516.556 374.387 515.944 372.557 514.72 371.225C513.496 369.893 511.804 369.227 509.644 369.227C508.828 369.227 508.09 369.323 507.43 369.515C506.77 369.707 506.176 369.971 505.648 370.307C505.12 370.643 504.646 371.039 504.226 371.495C503.806 371.951 503.428 372.431 503.092 372.935Z" fill="#000000" fill-rule="nonzero" opacity="1" stroke="none"></path>
<path d="M542.62 378.875L542.62 375.959L532.612 375.959L532.612 378.875L542.62 378.875Z" fill="#000000" fill-rule="nonzero" opacity="1" stroke="none"></path>
<path d="M561.628 377.579C561.628 376.715 561.766 375.923 562.042 375.203C562.318 374.483 562.708 373.865 563.212 373.349C563.716 372.833 564.31 372.437 564.994 372.161C565.678 371.885 566.416 371.747 567.208 371.747C568.864 371.747 570.136 372.251 571.024 373.259C571.912 374.267 572.356 375.635 572.356 377.363L572.356 388.235L575.128 388.235L575.128 376.679C575.128 375.575 574.966 374.567 574.642 373.655C574.318 372.743 573.85 371.957 573.238 371.297C572.626 370.637 571.882 370.127 571.006 369.767C570.13 369.407 569.128 369.227 568 369.227C566.392 369.227 565.084 369.581 564.076 370.289C563.068 370.997 562.252 371.855 561.628 372.863L561.628 369.623L558.856 369.623L558.856 388.235L561.628 388.235L561.628 377.579Z" fill="#000000" fill-rule="nonzero" opacity="1" stroke="none"></path>
<path d="M599.284 378.911C599.284 377.591 599.044 376.343 598.564 375.167C598.084 373.991 597.412 372.965 596.548 372.089C595.684 371.213 594.658 370.517 593.47 370.001C592.282 369.485 590.992 369.227 589.6 369.227C588.184 369.227 586.882 369.485 585.694 370.001C584.506 370.517 583.48 371.219 582.616 372.107C581.752 372.995 581.08 374.033 580.6 375.221C580.12 376.409 579.88 377.663 579.88 378.983C579.88 380.303 580.12 381.551 580.6 382.727C581.08 383.903 581.752 384.929 582.616 385.805C583.48 386.681 584.5 387.377 585.676 387.893C586.852 388.409 588.136 388.667 589.528 388.667C590.92 388.667 592.216 388.409 593.416 387.893C594.616 387.377 595.648 386.675 596.512 385.787C597.376 384.899 598.054 383.861 598.546 382.673C599.038 381.485 599.284 380.231 599.284 378.911ZM596.44 378.983C596.44 379.991 596.272 380.933 595.936 381.809C595.6 382.685 595.132 383.447 594.532 384.095C593.932 384.743 593.212 385.253 592.372 385.625C591.532 385.997 590.608 386.183 589.6 386.183C588.616 386.183 587.704 385.991 586.864 385.607C586.024 385.223 585.298 384.707 584.686 384.059C584.074 383.411 583.594 382.643 583.246 381.755C582.898 380.867 582.724 379.919 582.724 378.911C582.724 377.903 582.892 376.961 583.228 376.085C583.564 375.209 584.026 374.441 584.614 373.781C585.202 373.121 585.916 372.605 586.756 372.233C587.596 371.861 588.52 371.675 589.528 371.675C590.512 371.675 591.424 371.867 592.264 372.251C593.104 372.635 593.836 373.157 594.46 373.817C595.084 374.477 595.57 375.251 595.918 376.139C596.266 377.027 596.44 377.975 596.44 378.983Z" fill="#000000" fill-rule="nonzero" opacity="1" stroke="none"></path>
<path d="M622.54 378.911C622.54 377.591 622.3 376.343 621.82 375.167C621.34 373.991 620.668 372.965 619.804 372.089C618.94 371.213 617.914 370.517 616.726 370.001C615.538 369.485 614.248 369.227 612.856 369.227C611.44 369.227 610.138 369.485 608.95 370.001C607.762 370.517 606.736 371.219 605.872 372.107C605.008 372.995 604.336 374.033 603.856 375.221C603.376 376.409 603.136 377.663 603.136 378.983C603.136 380.303 603.376 381.551 603.856 382.727C604.336 383.903 605.008 384.929 605.872 385.805C606.736 386.681 607.756 387.377 608.932 387.893C610.108 388.409 611.392 388.667 612.784 388.667C614.176 388.667 615.472 388.409 616.672 387.893C617.872 387.377 618.904 386.675 619.768 385.787C620.632 384.899 621.31 383.861 621.802 382.673C622.294 381.485 622.54 380.231 622.54 378.911ZM619.696 378.983C619.696 379.991 619.528 380.933 619.192 381.809C618.856 382.685 618.388 383.447 617.788 384.095C617.188 384.743 616.468 385.253 615.628 385.625C614.788 385.997 613.864 386.183 612.856 386.183C611.872 386.183 610.96 385.991 610.12 385.607C609.28 385.223 608.554 384.707 607.942 384.059C607.33 383.411 606.85 382.643 606.502 381.755C606.154 380.867 605.98 379.919 605.98 378.911C605.98 377.903 606.148 376.961 606.484 376.085C606.82 375.209 607.282 374.441 607.87 373.781C608.458 373.121 609.172 372.605 610.012 372.233C610.852 371.861 611.776 371.675 612.784 371.675C613.768 371.675 614.68 371.867 615.52 372.251C616.36 372.635 617.092 373.157 617.716 373.817C618.34 374.477 618.826 375.251 619.174 376.139C619.522 377.027 619.696 377.975 619.696 378.983Z" fill="#000000" fill-rule="nonzero" opacity="1" stroke="none"></path>
<path d="M630.316 377.579C630.316 376.715 630.454 375.923 630.73 375.203C631.006 374.483 631.396 373.865 631.9 373.349C632.404 372.833 632.998 372.437 633.682 372.161C634.366 371.885 635.104 371.747 635.896 371.747C637.552 371.747 638.824 372.251 639.712 373.259C640.6 374.267 641.044 375.635 641.044 377.363L641.044 388.235L643.816 388.235L643.816 376.679C643.816 375.575 643.654 374.567 643.33 373.655C643.006 372.743 642.538 371.957 641.926 371.297C641.314 370.637 640.57 370.127 639.694 369.767C638.818 369.407 637.816 369.227 636.688 369.227C635.08 369.227 633.772 369.581 632.764 370.289C631.756 370.997 630.94 371.855 630.316 372.863L630.316 369.623L627.544 369.623L627.544 388.235L630.316 388.235L630.316 377.579Z" fill="#000000" fill-rule="nonzero" opacity="1" stroke="none"></path>
<path d="M648.28 391.367L648.712 392.627C650.08 392.315 651.088 391.781 651.736 391.025C652.384 390.269 652.708 389.159 652.708 387.695L652.708 384.455L649.396 384.455L649.396 388.235L650.692 388.235C650.764 389.003 650.608 389.633 650.224 390.125C649.84 390.617 649.192 391.031 648.28 391.367Z" fill="#000000" fill-rule="nonzero" opacity="1" stroke="none"></path>
<path d="M667.252 364.979L667.936 367.283L672.688 365.807L672.688 388.235L675.496 388.235L675.496 362.855L673.408 362.855L667.252 364.979Z" fill="#000000" fill-rule="nonzero" opacity="1" stroke="none"></path>
<path d="M702.28 378.875L702.28 375.959L692.272 375.959L692.272 378.875L702.28 378.875Z" fill="#000000" fill-rule="nonzero" opacity="1" stroke="none"></path>
<path d="M718.984 375.311L720.892 376.571C721.636 376.163 722.434 375.821 723.286 375.545C724.138 375.269 725.104 375.131 726.184 375.131C727.12 375.131 727.972 375.263 728.74 375.527C729.508 375.791 730.168 376.157 730.72 376.625C731.272 377.093 731.698 377.651 731.998 378.299C732.298 378.947 732.448 379.667 732.448 380.459C732.448 381.275 732.298 382.025 731.998 382.709C731.698 383.393 731.284 383.987 730.756 384.491C730.228 384.995 729.586 385.385 728.83 385.661C728.074 385.937 727.252 386.075 726.364 386.075C725.068 386.075 723.826 385.769 722.638 385.157C721.45 384.545 720.304 383.699 719.2 382.619L717.328 384.671C718.48 385.823 719.818 386.777 721.342 387.533C722.866 388.289 724.528 388.667 726.328 388.667C727.648 388.667 728.86 388.469 729.964 388.073C731.068 387.677 732.016 387.113 732.808 386.381C733.6 385.649 734.218 384.773 734.662 383.753C735.106 382.733 735.328 381.599 735.328 380.351C735.328 379.151 735.106 378.071 734.662 377.111C734.218 376.151 733.6 375.341 732.808 374.681C732.016 374.021 731.092 373.511 730.036 373.151C728.98 372.791 727.84 372.611 726.616 372.611C725.56 372.611 724.654 372.713 723.898 372.917C723.142 373.121 722.392 373.391 721.648 373.727L722.188 365.663L734.212 365.663L734.212 363.035L719.704 363.035L718.984 375.311Z" fill="#000000" fill-rule="nonzero" opacity="1" stroke="none"></path>
<path d="M770.14 378.911C770.14 377.375 769.888 376.007 769.384 374.807C768.88 373.607 768.208 372.593 767.368 371.765C766.528 370.937 765.574 370.307 764.506 369.875C763.438 369.443 762.352 369.227 761.248 369.227C760.384 369.227 759.598 369.341 758.89 369.569C758.182 369.797 757.54 370.097 756.964 370.469C756.388 370.841 755.866 371.279 755.398 371.783C754.93 372.287 754.504 372.815 754.12 373.367L754.12 369.623L751.348 369.623L751.348 393.995L754.12 393.995L754.12 384.671C754.48 385.199 754.894 385.703 755.362 386.183C755.83 386.663 756.352 387.083 756.928 387.443C757.504 387.803 758.152 388.091 758.872 388.307C759.592 388.523 760.384 388.631 761.248 388.631C762.376 388.631 763.474 388.409 764.542 387.965C765.61 387.521 766.558 386.885 767.386 386.057C768.214 385.229 768.88 384.215 769.384 383.015C769.888 381.815 770.14 380.447 770.14 378.911ZM767.296 378.947C767.296 380.075 767.122 381.089 766.774 381.989C766.426 382.889 765.958 383.645 765.37 384.257C764.782 384.869 764.086 385.337 763.282 385.661C762.478 385.985 761.632 386.147 760.744 386.147C759.88 386.147 759.046 385.973 758.242 385.625C757.438 385.277 756.718 384.791 756.082 384.167C755.446 383.543 754.942 382.781 754.57 381.881C754.198 380.981 754.012 379.991 754.012 378.911C754.012 377.831 754.198 376.847 754.57 375.959C754.942 375.071 755.446 374.315 756.082 373.691C756.718 373.067 757.438 372.581 758.242 372.233C759.046 371.885 759.88 371.711 760.744 371.711C761.632 371.711 762.472 371.879 763.264 372.215C764.056 372.551 764.752 373.037 765.352 373.673C765.952 374.309 766.426 375.071 766.774 375.959C767.122 376.847 767.296 377.843 767.296 378.947Z" fill="#000000" fill-rule="nonzero" opacity="1" stroke="none"></path>
<path d="M790.012 372.935C789.508 371.879 788.764 370.997 787.78 370.289C786.796 369.581 785.548 369.227 784.036 369.227C783.244 369.227 782.548 369.323 781.948 369.515C781.348 369.707 780.808 369.965 780.328 370.289C779.848 370.613 779.422 370.991 779.05 371.423C778.678 371.855 778.336 372.299 778.024 372.755L778.024 369.623L775.252 369.623L775.252 388.235L778.024 388.235L778.024 377.615C778.024 376.751 778.156 375.965 778.42 375.257C778.684 374.549 779.05 373.931 779.518 373.403C779.986 372.875 780.532 372.467 781.156 372.179C781.78 371.891 782.464 371.747 783.208 371.747C784.696 371.747 785.866 372.233 786.718 373.205C787.57 374.177 787.996 375.539 787.996 377.291L787.996 388.235L790.732 388.235L790.732 377.507C790.732 376.595 790.87 375.779 791.146 375.059C791.422 374.339 791.794 373.733 792.262 373.241C792.73 372.749 793.276 372.377 793.9 372.125C794.524 371.873 795.184 371.747 795.88 371.747C797.392 371.747 798.574 372.233 799.426 373.205C800.278 374.177 800.704 375.563 800.704 377.363L800.704 388.235L803.476 388.235L803.476 376.715C803.476 374.387 802.864 372.557 801.64 371.225C800.416 369.893 798.724 369.227 796.564 369.227C795.748 369.227 795.01 369.323 794.35 369.515C793.69 369.707 793.096 369.971 792.568 370.307C792.04 370.643 791.566 371.039 791.146 371.495C790.726 371.951 790.348 372.431 790.012 372.935Z" fill="#000000" fill-rule="nonzero" opacity="1" stroke="none"></path>
</g>
<g opacity="1">
<path d="M402.264 359.355C391.787 359.355 383.264 367.878 383.264 378.355C383.264 388.832 391.787 397.355 402.264 397.355C412.74 397.355 421.264 388.832 421.264 378.355C421.264 367.878 412.74 359.355 402.264 359.355ZM402.264 392.831C394.282 392.831 387.787 386.337 387.787 378.355C387.787 370.373 394.282 363.879 402.264 363.879C410.246 363.879 416.74 370.373 416.74 378.355C416.74 386.337 410.246 392.831 402.264 392.831Z" fill="#000000" fill-rule="nonzero" opacity="1" stroke="none"></path>
<path d="M402.444 367.946C401.493 367.946 400.723 368.717 400.723 369.668L400.723 377.461L395.227 382.957C394.555 383.629 394.555 384.719 395.227 385.392C395.899 386.064 396.989 386.064 397.662 385.392L404.166 378.888L404.166 377.124L404.166 369.668C404.166 368.717 403.395 367.946 402.444 367.946Z" fill="#000000" fill-rule="nonzero" opacity="1" stroke="none"></path>
</g>
<g opacity="1">
<path d="M535.992 418.999L535.992 439.411L538.836 439.411L538.836 414.211L535.956 414.211L526.776 427.963L517.596 414.211L514.716 414.211L514.716 439.411L517.488 439.411L517.488 419.035L526.668 432.499L526.812 432.499L535.992 418.999Z" fill="#000000" fill-rule="nonzero" opacity="1" stroke="none"></path>
<path d="M563.748 430.087C563.748 428.767 563.508 427.519 563.028 426.343C562.548 425.167 561.876 424.141 561.012 423.265C560.148 422.389 559.122 421.693 557.934 421.177C556.746 420.661 555.456 420.403 554.064 420.403C552.648 420.403 551.346 420.661 550.158 421.177C548.97 421.693 547.944 422.395 547.08 423.283C546.216 424.171 545.544 425.209 545.064 426.397C544.584 427.585 544.344 428.839 544.344 430.159C544.344 431.479 544.584 432.727 545.064 433.903C545.544 435.079 546.216 436.105 547.08 436.981C547.944 437.857 548.964 438.553 550.14 439.069C551.316 439.585 552.6 439.843 553.992 439.843C555.384 439.843 556.68 439.585 557.88 439.069C559.08 438.553 560.112 437.851 560.976 436.963C561.84 436.075 562.518 435.037 563.01 433.849C563.502 432.661 563.748 431.407 563.748 430.087ZM560.904 430.159C560.904 431.167 560.736 432.109 560.4 432.985C560.064 433.861 559.596 434.623 558.996 435.271C558.396 435.919 557.676 436.429 556.836 436.801C555.996 437.173 555.072 437.359 554.064 437.359C553.08 437.359 552.168 437.167 551.328 436.783C550.488 436.399 549.762 435.883 549.15 435.235C548.538 434.587 548.058 433.819 547.71 432.931C547.362 432.043 547.188 431.095 547.188 430.087C547.188 429.079 547.356 428.137 547.692 427.261C548.028 426.385 548.49 425.617 549.078 424.957C549.666 424.297 550.38 423.781 551.22 423.409C552.06 423.037 552.984 422.851 553.992 422.851C554.976 422.851 555.888 423.043 556.728 423.427C557.568 423.811 558.3 424.333 558.924 424.993C559.548 425.653 560.034 426.427 560.382 427.315C560.73 428.203 560.904 429.151 560.904 430.159Z" fill="#000000" fill-rule="nonzero" opacity="1" stroke="none"></path>
<path d="M571.524 428.755C571.524 427.891 571.662 427.099 571.938 426.379C572.214 425.659 572.604 425.041 573.108 424.525C573.612 424.009 574.206 423.613 574.89 423.337C575.574 423.061 576.312 422.923 577.104 422.923C578.76 422.923 580.032 423.427 580.92 424.435C581.808 425.443 582.252 426.811 582.252 428.539L582.252 439.411L585.024 439.411L585.024 427.855C585.024 426.751 584.862 425.743 584.538 424.831C584.214 423.919 583.746 423.133 583.134 422.473C582.522 421.813 581.778 421.303 580.902 420.943C580.026 420.583 579.024 420.403 577.896 420.403C576.288 420.403 574.98 420.757 573.972 421.465C572.964 422.173 572.148 423.031 571.524 424.039L571.524 420.799L568.752 420.799L568.752 439.411L571.524 439.411L571.524 428.755Z" fill="#000000" fill-rule="nonzero" opacity="1" stroke="none"></path>
<path d="M608.64 439.411L608.64 413.131L605.868 413.131L605.868 424.363C605.508 423.835 605.094 423.331 604.626 422.851C604.158 422.371 603.636 421.951 603.06 421.591C602.484 421.231 601.836 420.943 601.116 420.727C600.396 420.511 599.604 420.403 598.74 420.403C597.612 420.403 596.52 420.625 595.464 421.069C594.408 421.513 593.46 422.149 592.62 422.977C591.78 423.805 591.108 424.819 590.604 426.019C590.1 427.219 589.848 428.587 589.848 430.123C589.848 431.659 590.1 433.027 590.604 434.227C591.108 435.427 591.78 436.441 592.62 437.269C593.46 438.097 594.408 438.727 595.464 439.159C596.52 439.591 597.612 439.807 598.74 439.807C599.604 439.807 600.39 439.699 601.098 439.483C601.806 439.267 602.448 438.967 603.024 438.583C603.6 438.199 604.122 437.755 604.59 437.251C605.058 436.747 605.484 436.219 605.868 435.667L605.868 439.411L608.64 439.411ZM605.976 430.087C605.976 431.167 605.79 432.157 605.418 433.057C605.046 433.957 604.542 434.719 603.906 435.343C603.27 435.967 602.55 436.453 601.746 436.801C600.942 437.149 600.108 437.323 599.244 437.323C598.356 437.323 597.516 437.155 596.724 436.819C595.932 436.483 595.236 435.997 594.636 435.361C594.036 434.725 593.562 433.963 593.214 433.075C592.866 432.187 592.692 431.191 592.692 430.087C592.692 428.959 592.866 427.945 593.214 427.045C593.562 426.145 594.03 425.389 594.618 424.777C595.206 424.165 595.896 423.697 596.688 423.373C597.48 423.049 598.332 422.887 599.244 422.887C600.108 422.887 600.942 423.061 601.746 423.409C602.55 423.757 603.27 424.243 603.906 424.867C604.542 425.491 605.046 426.247 605.418 427.135C605.79 428.023 605.976 429.007 605.976 430.087Z" fill="#000000" fill-rule="nonzero" opacity="1" stroke="none"></path>
<path d="M621.564 422.995C623.316 422.995 624.678 423.421 625.65 424.273C626.622 425.125 627.108 426.391 627.108 428.071L627.108 428.719C626.268 428.479 625.404 428.287 624.516 428.143C623.628 427.999 622.584 427.927 621.384 427.927C620.208 427.927 619.134 428.059 618.162 428.323C617.19 428.587 616.35 428.971 615.642 429.475C614.934 429.979 614.388 430.609 614.004 431.365C613.62 432.121 613.428 432.991 613.428 433.975C613.428 434.959 613.626 435.811 614.022 436.531C614.418 437.251 614.946 437.857 615.606 438.349C616.266 438.841 617.01 439.207 617.838 439.447C618.666 439.687 619.512 439.807 620.376 439.807C622.032 439.807 623.406 439.483 624.498 438.835C625.59 438.187 626.46 437.443 627.108 436.603L627.108 439.411L629.772 439.411L629.772 428.035C629.772 425.563 629.088 423.697 627.72 422.437C626.352 421.177 624.396 420.547 621.852 420.547C620.484 420.547 619.272 420.685 618.216 420.961C617.16 421.237 616.116 421.615 615.084 422.095L615.912 424.363C616.776 423.955 617.658 423.625 618.558 423.373C619.458 423.121 620.46 422.995 621.564 422.995ZM621.672 429.979C622.824 429.979 623.85 430.063 624.75 430.231C625.65 430.399 626.448 430.579 627.144 430.771L627.144 432.571C627.144 433.315 626.982 433.993 626.658 434.605C626.334 435.217 625.89 435.745 625.326 436.189C624.762 436.633 624.102 436.981 623.346 437.233C622.59 437.485 621.78 437.611 620.916 437.611C620.292 437.611 619.698 437.527 619.134 437.359C618.57 437.191 618.072 436.945 617.64 436.621C617.208 436.297 616.866 435.907 616.614 435.451C616.362 434.995 616.236 434.467 616.236 433.867C616.236 432.667 616.704 431.719 617.64 431.023C618.576 430.327 619.92 429.979 621.672 429.979Z" fill="#000000" fill-rule="nonzero" opacity="1" stroke="none"></path>
<path d="M651.84 420.799L648.888 420.799L642.912 436.315L636.144 420.799L633.084 420.799L641.544 439.339C640.992 440.659 640.428 441.571 639.852 442.075C639.276 442.579 638.568 442.831 637.728 442.831C637.128 442.831 636.606 442.777 636.162 442.669C635.718 442.561 635.268 442.387 634.812 442.147L633.876 444.343C634.5 444.655 635.124 444.889 635.748 445.045C636.372 445.201 637.068 445.279 637.836 445.279C639.228 445.279 640.41 444.883 641.382 444.091C642.354 443.299 643.236 441.943 644.028 440.023L651.84 420.799Z" fill="#000000" fill-rule="nonzero" opacity="1" stroke="none"></path>
<path d="M676.284 430.051L676.284 427.135L666.276 427.135L666.276 430.051L676.284 430.051Z" fill="#000000" fill-rule="nonzero" opacity="1" stroke="none"></path>
<path d="M711.096 414.211L692.988 414.211L692.988 439.411L695.832 439.411L695.832 428.431L709.476 428.431L709.476 425.839L695.832 425.839L695.832 416.839L711.096 416.839L711.096 414.211Z" fill="#000000" fill-rule="nonzero" opacity="1" stroke="none"></path>
<path d="M718.908 431.995C718.908 430.603 719.1 429.373 719.484 428.305C719.868 427.237 720.396 426.343 721.068 425.623C721.74 424.903 722.526 424.363 723.426 424.003C724.326 423.643 725.28 423.463 726.288 423.463L726.504 423.463L726.504 420.475C725.616 420.451 724.788 420.559 724.02 420.799C723.252 421.039 722.544 421.393 721.896 421.861C721.248 422.329 720.672 422.887 720.168 423.535C719.664 424.183 719.244 424.891 718.908 425.659L718.908 420.799L716.136 420.799L716.136 439.411L718.908 439.411L718.908 431.995Z" fill="#000000" fill-rule="nonzero" opacity="1" stroke="none"></path>
<path d="M733.956 416.731L733.956 413.671L730.788 413.671L730.788 416.731L733.956 416.731ZM733.74 439.411L733.74 420.799L730.968 420.799L730.968 439.411L733.74 439.411Z" fill="#000000" fill-rule="nonzero" opacity="1" stroke="none"></path>
<path d="M757.896 439.411L757.896 413.131L755.124 413.131L755.124 424.363C754.764 423.835 754.35 423.331 753.882 422.851C753.414 422.371 752.892 421.951 752.316 421.591C751.74 421.231 751.092 420.943 750.372 420.727C749.652 420.511 748.86 420.403 747.996 420.403C746.868 420.403 745.776 420.625 744.72 421.069C743.664 421.513 742.716 422.149 741.876 422.977C741.036 423.805 740.364 424.819 739.86 426.019C739.356 427.219 739.104 428.587 739.104 430.123C739.104 431.659 739.356 433.027 739.86 434.227C740.364 435.427 741.036 436.441 741.876 437.269C742.716 438.097 743.664 438.727 744.72 439.159C745.776 439.591 746.868 439.807 747.996 439.807C748.86 439.807 749.646 439.699 750.354 439.483C751.062 439.267 751.704 438.967 752.28 438.583C752.856 438.199 753.378 437.755 753.846 437.251C754.314 436.747 754.74 436.219 755.124 435.667L755.124 439.411L757.896 439.411ZM755.232 430.087C755.232 431.167 755.046 432.157 754.674 433.057C754.302 433.957 753.798 434.719 753.162 435.343C752.526 435.967 751.806 436.453 751.002 436.801C750.198 437.149 749.364 437.323 748.5 437.323C747.612 437.323 746.772 437.155 745.98 436.819C745.188 436.483 744.492 435.997 743.892 435.361C743.292 434.725 742.818 433.963 742.47 433.075C742.122 432.187 741.948 431.191 741.948 430.087C741.948 428.959 742.122 427.945 742.47 427.045C742.818 426.145 743.286 425.389 743.874 424.777C744.462 424.165 745.152 423.697 745.944 423.373C746.736 423.049 747.588 422.887 748.5 422.887C749.364 422.887 750.198 423.061 751.002 423.409C751.806 423.757 752.526 424.243 753.162 424.867C753.798 425.491 754.302 426.247 754.674 427.135C755.046 428.023 755.232 429.007 755.232 430.087Z" fill="#000000" fill-rule="nonzero" opacity="1" stroke="none"></path>
<path d="M770.82 422.995C772.572 422.995 773.934 423.421 774.906 424.273C775.878 425.125 776.364 426.391 776.364 428.071L776.364 428.719C775.524 428.479 774.66 428.287 773.772 428.143C772.884 427.999 771.84 427.927 770.64 427.927C769.464 427.927 768.39 428.059 767.418 428.323C766.446 428.587 765.606 428.971 764.898 429.475C764.19 429.979 763.644 430.609 763.26 431.365C762.876 432.121 762.684 432.991 762.684 433.975C762.684 434.959 762.882 435.811 763.278 436.531C763.674 437.251 764.202 437.857 764.862 438.349C765.522 438.841 766.266 439.207 767.094 439.447C767.922 439.687 768.768 439.807 769.632 439.807C771.288 439.807 772.662 439.483 773.754 438.835C774.846 438.187 775.716 437.443 776.364 436.603L776.364 439.411L779.028 439.411L779.028 428.035C779.028 425.563 778.344 423.697 776.976 422.437C775.608 421.177 773.652 420.547 771.108 420.547C769.74 420.547 768.528 420.685 767.472 420.961C766.416 421.237 765.372 421.615 764.34 422.095L765.168 424.363C766.032 423.955 766.914 423.625 767.814 423.373C768.714 423.121 769.716 422.995 770.82 422.995ZM770.928 429.979C772.08 429.979 773.106 430.063 774.006 430.231C774.906 430.399 775.704 430.579 776.4 430.771L776.4 432.571C776.4 433.315 776.238 433.993 775.914 434.605C775.59 435.217 775.146 435.745 774.582 436.189C774.018 436.633 773.358 436.981 772.602 437.233C771.846 437.485 771.036 437.611 770.172 437.611C769.548 437.611 768.954 437.527 768.39 437.359C767.826 437.191 767.328 436.945 766.896 436.621C766.464 436.297 766.122 435.907 765.87 435.451C765.618 434.995 765.492 434.467 765.492 433.867C765.492 432.667 765.96 431.719 766.896 431.023C767.832 430.327 769.176 429.979 770.928 429.979Z" fill="#000000" fill-rule="nonzero" opacity="1" stroke="none"></path>
<path d="M801.096 420.799L798.144 420.799L792.168 436.315L785.4 420.799L782.34 420.799L790.8 439.339C790.248 440.659 789.684 441.571 789.108 442.075C788.532 442.579 787.824 442.831 786.984 442.831C786.384 442.831 785.862 442.777 785.418 442.669C784.974 442.561 784.524 442.387 784.068 442.147L783.132 444.343C783.756 444.655 784.38 444.889 785.004 445.045C785.628 445.201 786.324 445.279 787.092 445.279C788.484 445.279 789.666 444.883 790.638 444.091C791.61 443.299 792.492 441.943 793.284 440.023L801.096 420.799Z" fill="#000000" fill-rule="nonzero" opacity="1" stroke="none"></path>
</g>
<path d="M211.554 526.133C204.133 518.712 192.103 518.712 184.682 526.133C177.263 533.552 177.263 545.583 184.682 553.003L198.118 566.437L211.554 553.003C218.972 545.583 218.972 533.552 211.554 526.133ZM198.118 528.074C200.995 528.074 203.328 530.407 203.328 533.285C203.328 536.163 200.995 538.495 198.118 538.495C195.24 538.495 192.907 536.163 192.907 533.285C192.907 530.407 195.24 528.074 198.118 528.074ZM190.642 547.93C190.642 543.801 193.989 540.454 198.118 540.454C202.246 540.454 205.593 543.801 205.593 547.93L190.642 547.93Z" fill="#000000" fill-rule="nonzero" opacity="1" stroke="none"></path>
<g fill="#000000" opacity="1" stroke="none">
<path d="M235.421 518.692L236.105 520.996L240.857 519.52L240.857 541.948L243.665 541.948L243.665 516.568L241.577 516.568L235.421 518.692Z"></path>
<path d="M263.177 536.728L263.177 536.656C263.177 535.816 263.003 535.108 262.655 534.532C262.307 533.956 261.845 533.464 261.269 533.056C260.693 532.648 260.051 532.312 259.343 532.048C258.635 531.784 257.921 531.544 257.201 531.328C256.577 531.136 255.977 530.944 255.401 530.752C254.825 530.56 254.315 530.344 253.871 530.104C253.427 529.864 253.073 529.582 252.809 529.258C252.545 528.934 252.413 528.556 252.413 528.124L252.413 528.052C252.413 527.284 252.737 526.642 253.385 526.126C254.033 525.61 254.909 525.352 256.013 525.352C256.925 525.352 257.855 525.514 258.803 525.838C259.751 526.162 260.657 526.6 261.521 527.152L262.781 525.064C261.821 524.44 260.753 523.942 259.577 523.57C258.401 523.198 257.237 523.012 256.085 523.012C255.173 523.012 254.327 523.138 253.547 523.39C252.767 523.642 252.095 524.002 251.531 524.47C250.967 524.938 250.529 525.502 250.217 526.162C249.905 526.822 249.749 527.548 249.749 528.34L249.749 528.412C249.749 529.276 249.935 529.996 250.307 530.572C250.679 531.148 251.159 531.628 251.747 532.012C252.335 532.396 252.995 532.714 253.727 532.966C254.459 533.218 255.185 533.452 255.905 533.668C256.505 533.836 257.087 534.016 257.651 534.208C258.215 534.4 258.713 534.622 259.145 534.874C259.577 535.126 259.919 535.42 260.171 535.756C260.423 536.092 260.549 536.488 260.549 536.944L260.549 537.016C260.549 537.928 260.189 538.648 259.469 539.176C258.749 539.704 257.825 539.968 256.697 539.968C255.593 539.968 254.495 539.764 253.403 539.356C252.311 538.948 251.261 538.36 250.253 537.592L248.849 539.572C249.905 540.412 251.117 541.078 252.485 541.57C253.853 542.062 255.209 542.308 256.553 542.308C257.489 542.308 258.359 542.182 259.163 541.93C259.967 541.678 260.663 541.312 261.251 540.832C261.839 540.352 262.307 539.77 262.655 539.086C263.003 538.402 263.177 537.616 263.177 536.728Z"></path>
<path d="M271.709 525.784L277.613 525.784L277.613 523.336L271.709 523.336L271.709 517.72L268.937 517.72L268.937 523.336L266.345 523.336L266.345 525.784L268.937 525.784L268.937 537.016C268.937 537.952 269.069 538.756 269.333 539.428C269.597 540.1 269.963 540.646 270.431 541.066C270.899 541.486 271.457 541.792 272.105 541.984C272.753 542.176 273.449 542.272 274.193 542.272C274.865 542.272 275.471 542.206 276.011 542.074C276.551 541.942 277.061 541.744 277.541 541.48L277.541 539.104C277.061 539.344 276.611 539.512 276.191 539.608C275.771 539.704 275.321 539.752 274.841 539.752C273.905 539.752 273.149 539.524 272.573 539.068C271.997 538.612 271.709 537.808 271.709 536.656L271.709 525.784Z"></path>
<path d="M297.089 523.408L297.089 521.896C297.089 519.256 298.169 517.936 300.329 517.936C300.809 517.936 301.253 517.978 301.661 518.062C302.069 518.146 302.525 518.26 303.029 518.404L303.029 515.992C302.573 515.824 302.111 515.704 301.643 515.632C301.175 515.56 300.617 515.524 299.969 515.524C298.169 515.524 296.783 516.052 295.811 517.108C294.839 518.164 294.353 519.712 294.353 521.752L294.353 523.372L291.797 523.372L291.797 525.784L294.353 525.784L294.353 541.948L297.125 541.948L297.125 525.784L302.993 525.784L302.993 523.408L297.089 523.408Z"></path>
<path d="M309.545 541.948L309.545 515.668L306.773 515.668L306.773 541.948L309.545 541.948Z"></path>
<path d="M334.241 532.624C334.241 531.304 334.001 530.056 333.521 528.88C333.041 527.704 332.369 526.678 331.505 525.802C330.641 524.926 329.615 524.23 328.427 523.714C327.239 523.198 325.949 522.94 324.557 522.94C323.141 522.94 321.839 523.198 320.651 523.714C319.463 524.23 318.437 524.932 317.573 525.82C316.709 526.708 316.037 527.746 315.557 528.934C315.077 530.122 314.837 531.376 314.837 532.696C314.837 534.016 315.077 535.264 315.557 536.44C316.037 537.616 316.709 538.642 317.573 539.518C318.437 540.394 319.457 541.09 320.633 541.606C321.809 542.122 323.093 542.38 324.485 542.38C325.877 542.38 327.173 542.122 328.373 541.606C329.573 541.09 330.605 540.388 331.469 539.5C332.333 538.612 333.011 537.574 333.503 536.386C333.995 535.198 334.241 533.944 334.241 532.624ZM331.397 532.696C331.397 533.704 331.229 534.646 330.893 535.522C330.557 536.398 330.089 537.16 329.489 537.808C328.889 538.456 328.169 538.966 327.329 539.338C326.489 539.71 325.565 539.896 324.557 539.896C323.573 539.896 322.661 539.704 321.821 539.32C320.981 538.936 320.255 538.42 319.643 537.772C319.031 537.124 318.551 536.356 318.203 535.468C317.855 534.58 317.681 533.632 317.681 532.624C317.681 531.616 317.849 530.674 318.185 529.798C318.521 528.922 318.983 528.154 319.571 527.494C320.159 526.834 320.873 526.318 321.713 525.946C322.553 525.574 323.477 525.388 324.485 525.388C325.469 525.388 326.381 525.58 327.221 525.964C328.061 526.348 328.793 526.87 329.417 527.53C330.041 528.19 330.527 528.964 330.875 529.852C331.223 530.74 331.397 531.688 331.397 532.696Z"></path>
<path d="M357.497 532.624C357.497 531.304 357.257 530.056 356.777 528.88C356.297 527.704 355.625 526.678 354.761 525.802C353.897 524.926 352.871 524.23 351.683 523.714C350.495 523.198 349.205 522.94 347.813 522.94C346.397 522.94 345.095 523.198 343.907 523.714C342.719 524.23 341.693 524.932 340.829 525.82C339.965 526.708 339.293 527.746 338.813 528.934C338.333 530.122 338.093 531.376 338.093 532.696C338.093 534.016 338.333 535.264 338.813 536.44C339.293 537.616 339.965 538.642 340.829 539.518C341.693 540.394 342.713 541.09 343.889 541.606C345.065 542.122 346.349 542.38 347.741 542.38C349.133 542.38 350.429 542.122 351.629 541.606C352.829 541.09 353.861 540.388 354.725 539.5C355.589 538.612 356.267 537.574 356.759 536.386C357.251 535.198 357.497 533.944 357.497 532.624ZM354.653 532.696C354.653 533.704 354.485 534.646 354.149 535.522C353.813 536.398 353.345 537.16 352.745 537.808C352.145 538.456 351.425 538.966 350.585 539.338C349.745 539.71 348.821 539.896 347.813 539.896C346.829 539.896 345.917 539.704 345.077 539.32C344.237 538.936 343.511 538.42 342.899 537.772C342.287 537.124 341.807 536.356 341.459 535.468C341.111 534.58 340.937 533.632 340.937 532.624C340.937 531.616 341.105 530.674 341.441 529.798C341.777 528.922 342.239 528.154 342.827 527.494C343.415 526.834 344.129 526.318 344.969 525.946C345.809 525.574 346.733 525.388 347.741 525.388C348.725 525.388 349.637 525.58 350.477 525.964C351.317 526.348 352.049 526.87 352.673 527.53C353.297 528.19 353.783 528.964 354.131 529.852C354.479 530.74 354.653 531.688 354.653 532.696Z"></path>
<path d="M365.273 534.532C365.273 533.14 365.465 531.91 365.849 530.842C366.233 529.774 366.761 528.88 367.433 528.16C368.105 527.44 368.891 526.9 369.791 526.54C370.691 526.18 371.645 526 372.653 526L372.869 526L372.869 523.012C371.981 522.988 371.153 523.096 370.385 523.336C369.617 523.576 368.909 523.93 368.261 524.398C367.613 524.866 367.037 525.424 366.533 526.072C366.029 526.72 365.609 527.428 365.273 528.196L365.273 523.336L362.501 523.336L362.501 541.948L365.273 541.948L365.273 534.532Z"></path>
<path d="M418.157 530.572C418.157 528.7 417.755 526.9 416.951 525.172C416.147 523.444 415.037 521.926 413.621 520.618C412.205 519.31 410.543 518.266 408.635 517.486C406.727 516.706 404.669 516.316 402.461 516.316C400.253 516.316 398.189 516.736 396.269 517.576C394.349 518.416 392.681 519.55 391.265 520.978C389.849 522.406 388.733 524.074 387.917 525.982C387.101 527.89 386.693 529.924 386.693 532.084C386.693 534.244 387.095 536.272 387.899 538.168C388.703 540.064 389.825 541.726 391.265 543.154C392.705 544.582 394.403 545.71 396.359 546.538C398.315 547.366 400.445 547.78 402.749 547.78C404.621 547.78 406.331 547.54 407.879 547.06C409.427 546.58 410.897 545.92 412.289 545.08L411.713 544.108C410.321 544.924 408.929 545.536 407.537 545.944C406.145 546.352 404.549 546.556 402.749 546.556C400.589 546.556 398.603 546.178 396.791 545.422C394.979 544.666 393.425 543.634 392.129 542.326C390.833 541.018 389.819 539.488 389.087 537.736C388.355 535.984 387.989 534.1 387.989 532.084C387.989 530.092 388.355 528.214 389.087 526.45C389.819 524.686 390.833 523.144 392.129 521.824C393.425 520.504 394.955 519.46 396.719 518.692C398.483 517.924 400.397 517.54 402.461 517.54C404.525 517.54 406.433 517.906 408.185 518.638C409.937 519.37 411.455 520.348 412.739 521.572C414.023 522.796 415.031 524.188 415.763 525.748C416.495 527.308 416.861 528.916 416.861 530.572C416.861 531.844 416.717 532.948 416.429 533.884C416.141 534.82 415.763 535.594 415.295 536.206C414.827 536.818 414.293 537.268 413.693 537.556C413.093 537.844 412.469 537.988 411.821 537.988C410.837 537.988 410.081 537.73 409.553 537.214C409.025 536.698 408.761 535.984 408.761 535.072C408.761 534.88 408.779 534.592 408.815 534.208C408.851 533.824 408.917 533.38 409.013 532.876L410.453 524.704L408.041 524.38L407.573 526.864C407.357 526.48 407.093 526.108 406.781 525.748C406.469 525.388 406.097 525.07 405.665 524.794C405.233 524.518 404.741 524.296 404.189 524.128C403.637 523.96 403.013 523.876 402.317 523.876C401.309 523.876 400.307 524.104 399.311 524.56C398.315 525.016 397.421 525.646 396.629 526.45C395.837 527.254 395.201 528.202 394.721 529.294C394.241 530.386 394.001 531.568 394.001 532.84C394.001 533.824 394.169 534.718 394.505 535.522C394.841 536.326 395.303 537.016 395.891 537.592C396.479 538.168 397.163 538.612 397.943 538.924C398.723 539.236 399.557 539.392 400.445 539.392C401.789 539.392 402.941 539.098 403.901 538.51C404.861 537.922 405.689 537.208 406.385 536.368C406.721 537.28 407.315 538.012 408.167 538.564C409.019 539.116 410.105 539.392 411.425 539.392C412.241 539.392 413.057 539.218 413.873 538.87C414.689 538.522 415.409 537.988 416.033 537.268C416.657 536.548 417.167 535.636 417.563 534.532C417.959 533.428 418.157 532.108 418.157 530.572ZM406.889 530.68C406.889 531.52 406.727 532.33 406.403 533.11C406.079 533.89 405.647 534.58 405.107 535.18C404.567 535.78 403.937 536.26 403.217 536.62C402.497 536.98 401.753 537.16 400.985 537.16C399.689 537.16 398.633 536.77 397.817 535.99C397.001 535.21 396.593 534.1 396.593 532.66C396.593 531.724 396.761 530.86 397.097 530.068C397.433 529.276 397.871 528.586 398.411 527.998C398.951 527.41 399.575 526.948 400.283 526.612C400.991 526.276 401.729 526.108 402.497 526.108C403.121 526.108 403.703 526.222 404.243 526.45C404.783 526.678 405.251 526.996 405.647 527.404C406.043 527.812 406.349 528.298 406.565 528.862C406.781 529.426 406.889 530.032 406.889 530.68Z"></path>
<path d="M436.625 523.048C436.625 522.472 436.751 521.932 437.003 521.428C437.255 520.924 437.615 520.492 438.083 520.132C438.551 519.772 439.115 519.484 439.775 519.268C440.435 519.052 441.173 518.944 441.989 518.944C443.285 518.944 444.527 519.16 445.715 519.592C446.903 520.024 448.085 520.72 449.261 521.68L450.917 519.484C449.621 518.452 448.283 517.678 446.903 517.162C445.523 516.646 443.909 516.388 442.061 516.388C440.861 516.388 439.757 516.562 438.749 516.91C437.741 517.258 436.865 517.738 436.121 518.35C435.377 518.962 434.801 519.688 434.393 520.528C433.985 521.368 433.781 522.292 433.781 523.3C433.781 524.356 433.949 525.268 434.285 526.036C434.621 526.804 435.137 527.476 435.833 528.052C436.529 528.628 437.411 529.12 438.479 529.528C439.547 529.936 440.801 530.296 442.241 530.608C443.561 530.896 444.647 531.196 445.499 531.508C446.351 531.82 447.017 532.168 447.497 532.552C447.977 532.936 448.313 533.362 448.505 533.83C448.697 534.298 448.793 534.832 448.793 535.432C448.793 536.728 448.283 537.772 447.263 538.564C446.243 539.356 444.881 539.752 443.177 539.752C441.425 539.752 439.877 539.458 438.533 538.87C437.189 538.282 435.857 537.388 434.537 536.188L432.773 538.276C434.285 539.644 435.875 540.658 437.543 541.318C439.211 541.978 441.053 542.308 443.069 542.308C444.317 542.308 445.469 542.14 446.525 541.804C447.581 541.468 448.487 540.988 449.243 540.364C449.999 539.74 450.593 538.984 451.025 538.096C451.457 537.208 451.673 536.224 451.673 535.144C451.673 533.2 451.007 531.676 449.675 530.572C448.343 529.468 446.273 528.604 443.465 527.98C442.073 527.692 440.933 527.386 440.045 527.062C439.157 526.738 438.461 526.378 437.957 525.982C437.453 525.586 437.105 525.148 436.913 524.668C436.721 524.188 436.625 523.648 436.625 523.048Z"></path>
<path d="M460.565 525.784L466.469 525.784L466.469 523.336L460.565 523.336L460.565 517.72L457.793 517.72L457.793 523.336L455.201 523.336L455.201 525.784L457.793 525.784L457.793 537.016C457.793 537.952 457.925 538.756 458.189 539.428C458.453 540.1 458.819 540.646 459.287 541.066C459.755 541.486 460.313 541.792 460.961 541.984C461.609 542.176 462.305 542.272 463.049 542.272C463.721 542.272 464.327 542.206 464.867 542.074C465.407 541.942 465.917 541.744 466.397 541.48L466.397 539.104C465.917 539.344 465.467 539.512 465.047 539.608C464.627 539.704 464.177 539.752 463.697 539.752C462.761 539.752 462.005 539.524 461.429 539.068C460.853 538.612 460.565 537.808 460.565 536.656L460.565 525.784Z"></path>
<path d="M472.481 533.668L487.241 533.668C487.265 533.5 487.277 533.344 487.277 533.2C487.277 533.056 487.277 532.924 487.277 532.804C487.277 531.436 487.085 530.152 486.701 528.952C486.317 527.752 485.753 526.708 485.009 525.82C484.265 524.932 483.353 524.23 482.273 523.714C481.193 523.198 479.969 522.94 478.601 522.94C477.305 522.94 476.111 523.192 475.019 523.696C473.927 524.2 472.985 524.89 472.193 525.766C471.401 526.642 470.783 527.674 470.339 528.862C469.895 530.05 469.673 531.316 469.673 532.66C469.673 534.1 469.919 535.42 470.411 536.62C470.903 537.82 471.569 538.846 472.409 539.698C473.249 540.55 474.233 541.21 475.361 541.678C476.489 542.146 477.689 542.38 478.961 542.38C480.737 542.38 482.225 542.062 483.425 541.426C484.625 540.79 485.693 539.944 486.629 538.888L484.901 537.34C484.133 538.132 483.287 538.768 482.363 539.248C481.439 539.728 480.329 539.968 479.033 539.968C478.217 539.968 477.437 539.83 476.693 539.554C475.949 539.278 475.277 538.87 474.677 538.33C474.077 537.79 473.585 537.13 473.201 536.35C472.817 535.57 472.577 534.676 472.481 533.668ZM472.481 531.616C472.577 530.704 472.793 529.864 473.129 529.096C473.465 528.328 473.897 527.662 474.425 527.098C474.953 526.534 475.565 526.09 476.261 525.766C476.957 525.442 477.713 525.28 478.529 525.28C479.465 525.28 480.287 525.454 480.995 525.802C481.703 526.15 482.303 526.612 482.795 527.188C483.287 527.764 483.671 528.436 483.947 529.204C484.223 529.972 484.397 530.776 484.469 531.616L472.481 531.616Z"></path>
<path d="M498.725 538.78L492.461 523.336L489.401 523.336L497.465 542.092L499.913 542.092L508.013 523.336L505.025 523.336L498.725 538.78Z"></path>
<path d="M515.609 519.268L515.609 516.208L512.441 516.208L512.441 519.268L515.609 519.268ZM515.393 541.948L515.393 523.336L512.621 523.336L512.621 541.948L515.393 541.948Z"></path>
<path d="M523.493 533.668L538.253 533.668C538.277 533.5 538.289 533.344 538.289 533.2C538.289 533.056 538.289 532.924 538.289 532.804C538.289 531.436 538.097 530.152 537.713 528.952C537.329 527.752 536.765 526.708 536.021 525.82C535.277 524.932 534.365 524.23 533.285 523.714C532.205 523.198 530.981 522.94 529.613 522.94C528.317 522.94 527.123 523.192 526.031 523.696C524.939 524.2 523.997 524.89 523.205 525.766C522.413 526.642 521.795 527.674 521.351 528.862C520.907 530.05 520.685 531.316 520.685 532.66C520.685 534.1 520.931 535.42 521.423 536.62C521.915 537.82 522.581 538.846 523.421 539.698C524.261 540.55 525.245 541.21 526.373 541.678C527.501 542.146 528.701 542.38 529.973 542.38C531.749 542.38 533.237 542.062 534.437 541.426C535.637 540.79 536.705 539.944 537.641 538.888L535.913 537.34C535.145 538.132 534.299 538.768 533.375 539.248C532.451 539.728 531.341 539.968 530.045 539.968C529.229 539.968 528.449 539.83 527.705 539.554C526.961 539.278 526.289 538.87 525.689 538.33C525.089 537.79 524.597 537.13 524.213 536.35C523.829 535.57 523.589 534.676 523.493 533.668ZM523.493 531.616C523.589 530.704 523.805 529.864 524.141 529.096C524.477 528.328 524.909 527.662 525.437 527.098C525.965 526.534 526.577 526.09 527.273 525.766C527.969 525.442 528.725 525.28 529.541 525.28C530.477 525.28 531.299 525.454 532.007 525.802C532.715 526.15 533.315 526.612 533.807 527.188C534.299 527.764 534.683 528.436 534.959 529.204C535.235 529.972 535.409 530.776 535.481 531.616L523.493 531.616Z"></path>
<path d="M543.329 516.748L543.329 518.8L544.157 534.82L545.705 534.82L546.569 518.8L546.569 516.748L543.329 516.748ZM546.605 541.948L546.605 538.168L543.293 538.168L543.293 541.948L546.605 541.948Z"></path>
</g>
<g fill="#000000" opacity="1" stroke="none">
<path d="M240.315 559.735L239.811 558.943C237.683 560.143 236.043 561.607 234.891 563.335C233.739 565.063 233.163 567.023 233.163 569.215C233.163 571.407 233.739 573.367 234.891 575.095C236.043 576.823 237.683 578.287 239.811 579.487L240.315 578.695C238.411 577.527 236.951 576.159 235.935 574.591C234.919 573.023 234.411 571.231 234.411 569.215C234.411 567.199 234.919 565.407 235.935 563.839C236.951 562.271 238.411 560.903 240.315 559.735Z"></path>
<path d="M257.955 576.103L252.411 568.927C253.115 568.831 253.767 568.659 254.367 568.411C254.967 568.163 255.487 567.839 255.927 567.439C256.367 567.039 256.711 566.563 256.959 566.011C257.207 565.459 257.331 564.831 257.331 564.127L257.331 564.079C257.331 563.375 257.187 562.731 256.899 562.147C256.611 561.563 256.207 561.059 255.687 560.635C255.167 560.211 254.539 559.883 253.803 559.651C253.067 559.419 252.243 559.303 251.331 559.303L244.275 559.303L244.275 576.103L245.523 576.103L245.523 569.143L251.019 569.143L256.371 576.103L257.955 576.103ZM256.083 564.175C256.083 564.783 255.959 565.323 255.711 565.795C255.463 566.267 255.123 566.667 254.691 566.995C254.259 567.323 253.743 567.575 253.143 567.751C252.543 567.927 251.891 568.015 251.187 568.015L245.523 568.015L245.523 560.455L251.259 560.455C252.795 560.455 253.983 560.783 254.823 561.439C255.663 562.095 256.083 562.991 256.083 564.127L256.083 564.175Z"></path>
<path d="M272.859 569.983L272.859 569.935C272.859 569.071 272.703 568.255 272.391 567.487C272.079 566.719 271.643 566.047 271.083 565.471C270.523 564.895 269.863 564.435 269.103 564.091C268.343 563.747 267.507 563.575 266.595 563.575C265.683 563.575 264.843 563.747 264.075 564.091C263.307 564.435 262.639 564.903 262.071 565.495C261.503 566.087 261.063 566.767 260.751 567.535C260.439 568.303 260.283 569.119 260.283 569.983L260.283 570.031C260.283 570.895 260.439 571.711 260.751 572.479C261.063 573.247 261.499 573.919 262.059 574.495C262.619 575.071 263.279 575.531 264.039 575.875C264.799 576.219 265.635 576.391 266.547 576.391C267.459 576.391 268.299 576.219 269.067 575.875C269.835 575.531 270.503 575.063 271.071 574.471C271.639 573.879 272.079 573.199 272.391 572.431C272.703 571.663 272.859 570.847 272.859 569.983ZM271.587 570.031C271.587 570.751 271.463 571.431 271.215 572.071C270.967 572.711 270.623 573.267 270.183 573.739C269.743 574.211 269.215 574.587 268.599 574.867C267.983 575.147 267.315 575.287 266.595 575.287C265.891 575.287 265.231 575.151 264.615 574.879C263.999 574.607 263.463 574.231 263.007 573.751C262.551 573.271 262.195 572.707 261.939 572.059C261.683 571.411 261.555 570.719 261.555 569.983L261.555 569.935C261.555 569.215 261.679 568.535 261.927 567.895C262.175 567.255 262.519 566.699 262.959 566.227C263.399 565.755 263.927 565.379 264.543 565.099C265.159 564.819 265.827 564.679 266.547 564.679C267.251 564.679 267.911 564.815 268.527 565.087C269.143 565.359 269.679 565.735 270.135 566.215C270.591 566.695 270.947 567.259 271.203 567.907C271.459 568.555 271.587 569.247 271.587 569.983L271.587 570.031Z"></path>
<path d="M288.219 569.983L288.219 569.935C288.219 569.071 288.063 568.255 287.751 567.487C287.439 566.719 287.003 566.047 286.443 565.471C285.883 564.895 285.223 564.435 284.463 564.091C283.703 563.747 282.867 563.575 281.955 563.575C281.043 563.575 280.203 563.747 279.435 564.091C278.667 564.435 277.999 564.903 277.431 565.495C276.863 566.087 276.423 566.767 276.111 567.535C275.799 568.303 275.643 569.119 275.643 569.983L275.643 570.031C275.643 570.895 275.799 571.711 276.111 572.479C276.423 573.247 276.859 573.919 277.419 574.495C277.979 575.071 278.639 575.531 279.399 575.875C280.159 576.219 280.995 576.391 281.907 576.391C282.819 576.391 283.659 576.219 284.427 575.875C285.195 575.531 285.863 575.063 286.431 574.471C286.999 573.879 287.439 573.199 287.751 572.431C288.063 571.663 288.219 570.847 288.219 569.983ZM286.947 570.031C286.947 570.751 286.823 571.431 286.575 572.071C286.327 572.711 285.983 573.267 285.543 573.739C285.103 574.211 284.575 574.587 283.959 574.867C283.343 575.147 282.675 575.287 281.955 575.287C281.251 575.287 280.591 575.151 279.975 574.879C279.359 574.607 278.823 574.231 278.367 573.751C277.911 573.271 277.555 572.707 277.299 572.059C277.043 571.411 276.915 570.719 276.915 569.983L276.915 569.935C276.915 569.215 277.039 568.535 277.287 567.895C277.535 567.255 277.879 566.699 278.319 566.227C278.759 565.755 279.287 565.379 279.903 565.099C280.519 564.819 281.187 564.679 281.907 564.679C282.611 564.679 283.271 564.815 283.887 565.087C284.503 565.359 285.039 565.735 285.495 566.215C285.951 566.695 286.307 567.259 286.563 567.907C286.819 568.555 286.947 569.247 286.947 569.983L286.947 570.031Z"></path>
<path d="M310.347 576.103L310.347 568.687C310.347 567.919 310.239 567.219 310.023 566.587C309.807 565.955 309.495 565.419 309.087 564.979C308.679 564.539 308.183 564.195 307.599 563.947C307.015 563.699 306.363 563.575 305.643 563.575C305.067 563.575 304.551 563.647 304.095 563.791C303.639 563.935 303.231 564.131 302.871 564.379C302.511 564.627 302.195 564.911 301.923 565.231C301.651 565.551 301.419 565.879 301.227 566.215C301.051 565.863 300.839 565.527 300.591 565.207C300.343 564.887 300.051 564.607 299.715 564.367C299.379 564.127 298.991 563.935 298.551 563.791C298.111 563.647 297.627 563.575 297.099 563.575C296.555 563.575 296.071 563.643 295.647 563.779C295.223 563.915 294.851 564.099 294.531 564.331C294.211 564.563 293.927 564.827 293.679 565.123C293.431 565.419 293.211 565.727 293.019 566.047L293.019 563.863L291.843 563.863L291.843 576.103L293.019 576.103L293.019 569.047C293.019 568.423 293.119 567.847 293.319 567.319C293.519 566.791 293.795 566.327 294.147 565.927C294.499 565.527 294.915 565.215 295.395 564.991C295.875 564.767 296.387 564.655 296.931 564.655C298.035 564.655 298.907 565.019 299.547 565.747C300.187 566.475 300.507 567.479 300.507 568.759L300.507 576.103L301.683 576.103L301.683 568.975C301.683 568.287 301.787 567.675 301.995 567.139C302.203 566.603 302.483 566.151 302.835 565.783C303.187 565.415 303.599 565.135 304.071 564.943C304.543 564.751 305.035 564.655 305.547 564.655C306.683 564.655 307.571 565.019 308.211 565.747C308.851 566.475 309.171 567.503 309.171 568.831L309.171 576.103L310.347 576.103Z"></path>
<path d="M320.355 560.599L320.691 561.583L323.931 560.479L323.931 576.103L325.155 576.103L325.155 559.183L324.195 559.183L320.355 560.599Z"></path>
<path d="M343.155 567.679C343.155 566.511 342.995 565.403 342.675 564.355C342.355 563.307 341.895 562.387 341.295 561.595C340.695 560.803 339.967 560.175 339.111 559.711C338.255 559.247 337.291 559.015 336.219 559.015C335.147 559.015 334.183 559.251 333.327 559.723C332.471 560.195 331.739 560.831 331.131 561.631C330.523 562.431 330.055 563.355 329.727 564.403C329.399 565.451 329.235 566.559 329.235 567.727C329.235 568.895 329.395 570.003 329.715 571.051C330.035 572.099 330.495 573.019 331.095 573.811C331.695 574.603 332.423 575.231 333.279 575.695C334.135 576.159 335.099 576.391 336.171 576.391C337.243 576.391 338.207 576.155 339.063 575.683C339.919 575.211 340.651 574.575 341.259 573.775C341.867 572.975 342.335 572.051 342.663 571.003C342.991 569.955 343.155 568.847 343.155 567.679ZM341.859 567.727C341.859 568.719 341.727 569.667 341.463 570.571C341.199 571.475 340.823 572.275 340.335 572.971C339.847 573.667 339.255 574.223 338.559 574.639C337.863 575.055 337.083 575.263 336.219 575.263C335.355 575.263 334.571 575.051 333.867 574.627C333.163 574.203 332.563 573.643 332.067 572.947C331.571 572.251 331.191 571.447 330.927 570.535C330.663 569.623 330.531 568.671 330.531 567.679C330.531 566.703 330.663 565.759 330.927 564.847C331.191 563.935 331.567 563.131 332.055 562.435C332.543 561.739 333.135 561.183 333.831 560.767C334.527 560.351 335.307 560.143 336.171 560.143C337.035 560.143 337.819 560.355 338.523 560.779C339.227 561.203 339.827 561.763 340.323 562.459C340.819 563.155 341.199 563.963 341.463 564.883C341.727 565.803 341.859 566.751 341.859 567.727Z"></path>
<path d="M360.195 567.679C360.195 566.511 360.035 565.403 359.715 564.355C359.395 563.307 358.935 562.387 358.335 561.595C357.735 560.803 357.007 560.175 356.151 559.711C355.295 559.247 354.331 559.015 353.259 559.015C352.187 559.015 351.223 559.251 350.367 559.723C349.511 560.195 348.779 560.831 348.171 561.631C347.563 562.431 347.095 563.355 346.767 564.403C346.439 565.451 346.275 566.559 346.275 567.727C346.275 568.895 346.435 570.003 346.755 571.051C347.075 572.099 347.535 573.019 348.135 573.811C348.735 574.603 349.463 575.231 350.319 575.695C351.175 576.159 352.139 576.391 353.211 576.391C354.283 576.391 355.247 576.155 356.103 575.683C356.959 575.211 357.691 574.575 358.299 573.775C358.907 572.975 359.375 572.051 359.703 571.003C360.031 569.955 360.195 568.847 360.195 567.679ZM358.899 567.727C358.899 568.719 358.767 569.667 358.503 570.571C358.239 571.475 357.863 572.275 357.375 572.971C356.887 573.667 356.295 574.223 355.599 574.639C354.903 575.055 354.123 575.263 353.259 575.263C352.395 575.263 351.611 575.051 350.907 574.627C350.203 574.203 349.603 573.643 349.107 572.947C348.611 572.251 348.231 571.447 347.967 570.535C347.703 569.623 347.571 568.671 347.571 567.679C347.571 566.703 347.703 565.759 347.967 564.847C348.231 563.935 348.607 563.131 349.095 562.435C349.583 561.739 350.175 561.183 350.871 560.767C351.567 560.351 352.347 560.143 353.211 560.143C354.075 560.143 354.859 560.355 355.563 560.779C356.267 561.203 356.867 561.763 357.363 562.459C357.859 563.155 358.239 563.963 358.503 564.883C358.767 565.803 358.899 566.751 358.899 567.727Z"></path>
<path d="M362.547 578.071L362.835 578.671C363.555 578.399 364.067 578.047 364.371 577.615C364.675 577.183 364.827 576.591 364.827 575.839L364.827 574.063L363.243 574.063L363.243 576.103L363.891 576.103C363.923 576.567 363.835 576.943 363.627 577.231C363.419 577.519 363.059 577.799 362.547 578.071Z"></path>
<path d="M387.747 571.759L387.747 571.711C387.747 570.479 387.315 569.499 386.451 568.771C385.587 568.043 384.179 567.479 382.227 567.079C381.235 566.871 380.419 566.647 379.779 566.407C379.139 566.167 378.639 565.899 378.279 565.603C377.919 565.307 377.671 564.979 377.535 564.619C377.399 564.259 377.331 563.855 377.331 563.407L377.331 563.359C377.331 562.927 377.427 562.519 377.619 562.135C377.811 561.751 378.087 561.415 378.447 561.127C378.807 560.839 379.239 560.611 379.743 560.443C380.247 560.275 380.811 560.191 381.435 560.191C382.363 560.191 383.231 560.335 384.039 560.623C384.847 560.911 385.651 561.399 386.451 562.087L387.243 561.103C386.395 560.415 385.527 559.903 384.639 559.567C383.751 559.231 382.699 559.063 381.483 559.063C380.699 559.063 379.979 559.175 379.323 559.399C378.667 559.623 378.099 559.935 377.619 560.335C377.139 560.735 376.763 561.203 376.491 561.739C376.219 562.275 376.083 562.855 376.083 563.479L376.083 563.527C376.083 564.167 376.187 564.735 376.395 565.231C376.603 565.727 376.935 566.163 377.391 566.539C377.847 566.915 378.435 567.243 379.155 567.523C379.875 567.803 380.739 568.047 381.747 568.255C382.707 568.447 383.491 568.659 384.099 568.891C384.707 569.123 385.191 569.383 385.551 569.671C385.911 569.959 386.159 570.279 386.295 570.631C386.431 570.983 386.499 571.383 386.499 571.831L386.499 571.879C386.499 572.359 386.395 572.803 386.187 573.211C385.979 573.619 385.691 573.971 385.323 574.267C384.955 574.563 384.507 574.795 383.979 574.963C383.451 575.131 382.875 575.215 382.251 575.215C381.627 575.215 381.051 575.163 380.523 575.059C379.995 574.955 379.491 574.803 379.011 574.603C378.531 574.403 378.063 574.147 377.607 573.835C377.151 573.523 376.691 573.151 376.227 572.719L375.411 573.655C376.419 574.551 377.463 575.223 378.543 575.671C379.623 576.119 380.835 576.343 382.179 576.343C382.995 576.343 383.743 576.231 384.423 576.007C385.103 575.783 385.687 575.471 386.175 575.071C386.663 574.671 387.047 574.187 387.327 573.619C387.607 573.051 387.747 572.431 387.747 571.759Z"></path>
<path d="M397.539 575.887L397.539 574.783C397.187 574.943 396.875 575.055 396.603 575.119C396.331 575.183 396.043 575.215 395.739 575.215C395.019 575.215 394.431 575.039 393.975 574.687C393.519 574.335 393.291 573.719 393.291 572.839L393.291 564.943L397.587 564.943L397.587 563.863L393.291 563.863L393.291 559.951L392.115 559.951L392.115 563.863L390.339 563.863L390.339 564.943L392.115 564.943L392.115 572.959C392.115 573.535 392.203 574.035 392.379 574.459C392.555 574.883 392.799 575.235 393.111 575.515C393.423 575.795 393.787 575.999 394.203 576.127C394.619 576.255 395.067 576.319 395.547 576.319C395.931 576.319 396.279 576.283 396.591 576.211C396.903 576.139 397.219 576.031 397.539 575.887Z"></path>
<path d="M401.115 570.463L411.267 570.463C411.283 570.367 411.291 570.295 411.291 570.247C411.291 570.183 411.291 570.111 411.291 570.031L411.291 569.983C411.291 569.071 411.159 568.227 410.895 567.451C410.631 566.675 410.255 565.999 409.767 565.423C409.279 564.847 408.691 564.395 408.003 564.067C407.315 563.739 406.539 563.575 405.675 563.575C404.843 563.575 404.075 563.743 403.371 564.079C402.667 564.415 402.055 564.871 401.535 565.447C401.015 566.023 400.607 566.699 400.311 567.475C400.015 568.251 399.867 569.079 399.867 569.959L399.867 570.007C399.867 570.967 400.027 571.839 400.347 572.623C400.667 573.407 401.103 574.079 401.655 574.639C402.207 575.199 402.847 575.631 403.575 575.935C404.303 576.239 405.067 576.391 405.867 576.391C407.035 576.391 408.015 576.175 408.807 575.743C409.599 575.311 410.307 574.759 410.931 574.087L410.115 573.367C409.603 573.911 409.015 574.367 408.351 574.735C407.687 575.103 406.875 575.287 405.915 575.287C405.307 575.287 404.727 575.179 404.175 574.963C403.623 574.747 403.131 574.431 402.699 574.015C402.267 573.599 401.907 573.095 401.619 572.503C401.331 571.911 401.163 571.231 401.115 570.463ZM401.115 569.407C401.163 568.735 401.315 568.107 401.571 567.523C401.827 566.939 402.151 566.435 402.543 566.011C402.935 565.587 403.395 565.255 403.923 565.015C404.451 564.775 405.019 564.655 405.627 564.655C406.331 564.655 406.947 564.787 407.475 565.051C408.003 565.315 408.447 565.667 408.807 566.107C409.167 566.547 409.447 567.051 409.647 567.619C409.847 568.187 409.971 568.783 410.019 569.407L401.115 569.407Z"></path>
<path d="M424.875 563.863L423.555 563.863L418.875 574.783L414.243 563.863L412.875 563.863L418.371 576.199L419.379 576.199L424.875 563.863Z"></path>
<path d="M427.779 570.463L437.931 570.463C437.947 570.367 437.955 570.295 437.955 570.247C437.955 570.183 437.955 570.111 437.955 570.031L437.955 569.983C437.955 569.071 437.823 568.227 437.559 567.451C437.295 566.675 436.919 565.999 436.431 565.423C435.943 564.847 435.355 564.395 434.667 564.067C433.979 563.739 433.203 563.575 432.339 563.575C431.507 563.575 430.739 563.743 430.035 564.079C429.331 564.415 428.719 564.871 428.199 565.447C427.679 566.023 427.271 566.699 426.975 567.475C426.679 568.251 426.531 569.079 426.531 569.959L426.531 570.007C426.531 570.967 426.691 571.839 427.011 572.623C427.331 573.407 427.767 574.079 428.319 574.639C428.871 575.199 429.511 575.631 430.239 575.935C430.967 576.239 431.731 576.391 432.531 576.391C433.699 576.391 434.679 576.175 435.471 575.743C436.263 575.311 436.971 574.759 437.595 574.087L436.779 573.367C436.267 573.911 435.679 574.367 435.015 574.735C434.351 575.103 433.539 575.287 432.579 575.287C431.971 575.287 431.391 575.179 430.839 574.963C430.287 574.747 429.795 574.431 429.363 574.015C428.931 573.599 428.571 573.095 428.283 572.503C427.995 571.911 427.827 571.231 427.779 570.463ZM427.779 569.407C427.827 568.735 427.979 568.107 428.235 567.523C428.491 566.939 428.815 566.435 429.207 566.011C429.599 565.587 430.059 565.255 430.587 565.015C431.115 564.775 431.683 564.655 432.291 564.655C432.995 564.655 433.611 564.787 434.139 565.051C434.667 565.315 435.111 565.667 435.471 566.107C435.831 566.547 436.111 567.051 436.311 567.619C436.511 568.187 436.635 568.783 436.683 569.407L427.779 569.407Z"></path>
<path d="M451.875 576.103L451.875 568.615C451.875 567.879 451.767 567.203 451.551 566.587C451.335 565.971 451.015 565.439 450.591 564.991C450.167 564.543 449.651 564.195 449.043 563.947C448.435 563.699 447.747 563.575 446.979 563.575C445.859 563.575 444.947 563.823 444.243 564.319C443.539 564.815 442.979 565.423 442.563 566.143L442.563 563.863L441.387 563.863L441.387 576.103L442.563 576.103L442.563 569.023C442.563 568.383 442.671 567.795 442.887 567.259C443.103 566.723 443.403 566.263 443.787 565.879C444.171 565.495 444.619 565.195 445.131 564.979C445.643 564.763 446.203 564.655 446.811 564.655C448.059 564.655 449.019 565.035 449.691 565.795C450.363 566.555 450.699 567.567 450.699 568.831L450.699 576.103L451.875 576.103Z"></path>
<path d="M464.283 572.767L464.283 572.719C464.283 572.175 464.167 571.719 463.935 571.351C463.703 570.983 463.395 570.667 463.011 570.403C462.627 570.139 462.195 569.923 461.715 569.755C461.235 569.587 460.747 569.431 460.251 569.287C459.819 569.159 459.395 569.027 458.979 568.891C458.563 568.755 458.199 568.599 457.887 568.423C457.575 568.247 457.323 568.035 457.131 567.787C456.939 567.539 456.843 567.247 456.843 566.911L456.843 566.863C456.843 566.255 457.095 565.747 457.599 565.339C458.103 564.931 458.779 564.727 459.627 564.727C460.283 564.727 460.935 564.839 461.583 565.063C462.231 565.287 462.835 565.583 463.395 565.951L464.019 564.967C463.411 564.551 462.719 564.223 461.943 563.983C461.167 563.743 460.411 563.623 459.675 563.623C459.083 563.623 458.539 563.707 458.043 563.875C457.547 564.043 457.123 564.279 456.771 564.583C456.419 564.887 456.143 565.243 455.943 565.651C455.743 566.059 455.643 566.511 455.643 567.007L455.643 567.055C455.643 567.599 455.767 568.055 456.015 568.423C456.263 568.791 456.587 569.099 456.987 569.347C457.387 569.595 457.839 569.799 458.343 569.959C458.847 570.119 459.347 570.271 459.843 570.415C460.275 570.543 460.683 570.671 461.067 570.799C461.451 570.927 461.795 571.087 462.099 571.279C462.403 571.471 462.643 571.695 462.819 571.951C462.995 572.207 463.083 572.511 463.083 572.863L463.083 572.911C463.083 573.631 462.799 574.199 462.231 574.615C461.663 575.031 460.963 575.239 460.131 575.239C459.347 575.239 458.587 575.099 457.851 574.819C457.115 574.539 456.411 574.143 455.739 573.631L455.043 574.567C455.699 575.095 456.475 575.523 457.371 575.851C458.267 576.179 459.163 576.343 460.059 576.343C460.651 576.343 461.203 576.259 461.715 576.091C462.227 575.923 462.675 575.683 463.059 575.371C463.443 575.059 463.743 574.683 463.959 574.243C464.175 573.803 464.283 573.311 464.283 572.767Z"></path>
<path d="M479.763 569.983L479.763 569.935C479.763 569.071 479.607 568.255 479.295 567.487C478.983 566.719 478.547 566.047 477.987 565.471C477.427 564.895 476.767 564.435 476.007 564.091C475.247 563.747 474.411 563.575 473.499 563.575C472.587 563.575 471.747 563.747 470.979 564.091C470.211 564.435 469.543 564.903 468.975 565.495C468.407 566.087 467.967 566.767 467.655 567.535C467.343 568.303 467.187 569.119 467.187 569.983L467.187 570.031C467.187 570.895 467.343 571.711 467.655 572.479C467.967 573.247 468.403 573.919 468.963 574.495C469.523 575.071 470.183 575.531 470.943 575.875C471.703 576.219 472.539 576.391 473.451 576.391C474.363 576.391 475.203 576.219 475.971 575.875C476.739 575.531 477.407 575.063 477.975 574.471C478.543 573.879 478.983 573.199 479.295 572.431C479.607 571.663 479.763 570.847 479.763 569.983ZM478.491 570.031C478.491 570.751 478.367 571.431 478.119 572.071C477.871 572.711 477.527 573.267 477.087 573.739C476.647 574.211 476.119 574.587 475.503 574.867C474.887 575.147 474.219 575.287 473.499 575.287C472.795 575.287 472.135 575.151 471.519 574.879C470.903 574.607 470.367 574.231 469.911 573.751C469.455 573.271 469.099 572.707 468.843 572.059C468.587 571.411 468.459 570.719 468.459 569.983L468.459 569.935C468.459 569.215 468.583 568.535 468.831 567.895C469.079 567.255 469.423 566.699 469.863 566.227C470.303 565.755 470.831 565.379 471.447 565.099C472.063 564.819 472.731 564.679 473.451 564.679C474.155 564.679 474.815 564.815 475.431 565.087C476.047 565.359 476.583 565.735 477.039 566.215C477.495 566.695 477.851 567.259 478.107 567.907C478.363 568.555 478.491 569.247 478.491 569.983L478.491 570.031Z"></path>
<path d="M493.875 576.103L493.875 568.615C493.875 567.879 493.767 567.203 493.551 566.587C493.335 565.971 493.015 565.439 492.591 564.991C492.167 564.543 491.651 564.195 491.043 563.947C490.435 563.699 489.747 563.575 488.979 563.575C487.859 563.575 486.947 563.823 486.243 564.319C485.539 564.815 484.979 565.423 484.563 566.143L484.563 563.863L483.387 563.863L483.387 576.103L484.563 576.103L484.563 569.023C484.563 568.383 484.671 567.795 484.887 567.259C485.103 566.723 485.403 566.263 485.787 565.879C486.171 565.495 486.619 565.195 487.131 564.979C487.643 564.763 488.203 564.655 488.811 564.655C490.059 564.655 491.019 565.035 491.691 565.795C492.363 566.555 492.699 567.567 492.699 568.831L492.699 576.103L493.875 576.103Z"></path>
<path d="M518.811 576.103L518.811 559.303L517.563 559.303L517.563 567.079L506.811 567.079L506.811 559.303L505.563 559.303L505.563 576.103L506.811 576.103L506.811 568.231L517.563 568.231L517.563 576.103L518.811 576.103Z"></path>
<path d="M533.091 576.103L533.091 568.471C533.091 566.871 532.635 565.671 531.723 564.871C530.811 564.071 529.563 563.671 527.979 563.671C527.131 563.671 526.363 563.767 525.675 563.959C524.987 564.151 524.307 564.407 523.635 564.727L524.067 565.759C524.627 565.471 525.219 565.235 525.843 565.051C526.467 564.867 527.155 564.775 527.907 564.775C529.171 564.775 530.159 565.087 530.871 565.711C531.583 566.335 531.939 567.271 531.939 568.519L531.939 569.047C531.347 568.887 530.739 568.759 530.115 568.663C529.491 568.567 528.747 568.519 527.883 568.519C527.083 568.519 526.355 568.607 525.699 568.783C525.043 568.959 524.483 569.215 524.019 569.551C523.555 569.887 523.191 570.303 522.927 570.799C522.663 571.295 522.531 571.863 522.531 572.503L522.531 572.551C522.531 573.191 522.671 573.751 522.951 574.231C523.231 574.711 523.595 575.111 524.043 575.431C524.491 575.751 524.995 575.991 525.555 576.151C526.115 576.311 526.683 576.391 527.259 576.391C527.835 576.391 528.367 576.323 528.855 576.187C529.343 576.051 529.779 575.875 530.163 575.659C530.547 575.443 530.887 575.195 531.183 574.915C531.479 574.635 531.731 574.351 531.939 574.063L531.939 576.103L533.091 576.103ZM531.963 571.519C531.963 572.079 531.839 572.591 531.591 573.055C531.343 573.519 531.007 573.915 530.583 574.243C530.159 574.571 529.667 574.827 529.107 575.011C528.547 575.195 527.955 575.287 527.331 575.287C526.867 575.287 526.419 575.223 525.987 575.095C525.555 574.967 525.175 574.783 524.847 574.543C524.519 574.303 524.259 574.011 524.067 573.667C523.875 573.323 523.779 572.927 523.779 572.479L523.779 572.431C523.779 571.567 524.127 570.875 524.823 570.355C525.519 569.835 526.515 569.575 527.811 569.575C528.691 569.575 529.475 569.635 530.163 569.755C530.851 569.875 531.451 569.999 531.963 570.127L531.963 571.519Z"></path>
<path d="M538.659 576.103L538.659 558.583L537.483 558.583L537.483 576.103L538.659 576.103Z"></path>
<path d="M544.635 576.103L544.635 558.583L543.459 558.583L543.459 576.103L544.635 576.103Z"></path>
<path d="M548.499 559.735C550.403 560.903 551.863 562.271 552.879 563.839C553.895 565.407 554.403 567.199 554.403 569.215C554.403 571.231 553.895 573.023 552.879 574.591C551.863 576.159 550.403 577.527 548.499 578.695L549.003 579.487C551.131 578.287 552.771 576.823 553.923 575.095C555.075 573.367 555.651 571.407 555.651 569.215C555.651 567.023 555.075 565.063 553.923 563.335C552.771 561.607 551.131 560.143 549.003 558.943L548.499 559.735Z"></path>
</g>
<path d="M3497.95 204.451L3887.95 204.451L3887.95 204.451L3887.95 584.451L3887.95 584.451L3497.95 584.451L3497.95 584.451L3497.95 204.451L3497.95 204.451Z" fill="#a6192e" fill-rule="nonzero" opacity="1" stroke="none"></path>
<path d="M3529.95 204.451L3855.95 204.451L3855.95 204.451L3855.95 584.451L3855.95 584.451L3529.95 584.451L3529.95 584.451L3529.95 204.451L3529.95 204.451Z" fill="#a6192e" fill-rule="nonzero" opacity="1" stroke="none"></path>
<path d="M3614.15 259.25C3613.73 259.054 3613.47 258.806 3613.29 258.627L3607.41 252.738C3607.81 252.627 3608.66 252.321 3609.48 252.056C3610.86 251.554 3611.62 251.055 3612.65 249.998C3615.66 246.738 3615.59 241.075 3611.86 238.646C3610.48 237.713 3609.43 237.444 3607.74 237.453L3594.93 237.453L3594.93 238.646C3595.35 238.68 3595.61 238.735 3596 238.85C3596.47 239.004 3596.82 239.178 3597.1 239.579C3597.41 240.031 3597.46 240.261 3597.47 240.789L3597.46 257.302C3597.45 257.831 3597.42 258.061 3597.1 258.512C3596.82 258.917 3596.47 259.088 3596 259.241C3595.62 259.36 3595.35 259.39 3594.93 259.424L3594.93 260.618L3603.66 260.618L3603.67 259.42C3603.26 259.386 3602.99 259.356 3602.6 259.237C3602.13 259.079 3601.78 258.909 3601.5 258.508C3601.19 258.056 3601.14 257.826 3601.13 257.298L3601.13 253.117L3603 253.117L3610.57 260.622L3616.94 260.622L3616.95 259.424L3615.89 259.424C3615.29 259.424 3614.69 259.493 3614.15 259.25ZM3601.1 251.468L3601.1 239.11L3605.35 239.11C3607.82 239.102 3609.55 240.286 3610.54 242.566C3611.06 243.691 3611.14 244.471 3611 245.69C3610.76 247.527 3609.92 248.698 3608.47 249.84C3606.96 251.102 3605.58 251.473 3603.62 251.468C3603.62 251.49 3602.16 251.451 3601.1 251.468Z" fill="#ffffff" fill-rule="nonzero" opacity="1" stroke="none"></path>
<path d="M3569.75 246.014C3571.14 245.455 3571.9 244.544 3572.28 243.09C3572.54 241.965 3572.46 241.211 3572.01 240.167C3571.31 238.607 3570.12 237.977 3568.43 237.576C3567.86 237.465 3567.52 237.47 3566.9 237.444L3555.09 237.444L3555.09 238.637C3555.5 238.671 3555.77 238.701 3556.16 238.821C3556.63 238.974 3556.98 239.149 3557.26 239.549C3557.57 240.001 3557.6 240.231 3557.61 240.759L3557.62 257.272C3557.61 257.801 3557.57 258.031 3557.26 258.483C3556.97 258.887 3556.62 259.058 3556.16 259.211C3555.77 259.331 3555.5 259.373 3555.08 259.407L3555.09 260.609L3561.4 260.609L3568.04 260.609C3569.72 260.613 3570.78 260.345 3572.15 259.416C3575.88 256.983 3575.95 251.319 3572.95 248.063C3571.92 247.007 3571.14 246.508 3569.76 246.005L3569.75 246.014ZM3561.39 239.11L3566.54 239.11C3567.23 239.097 3567.68 239.204 3568.26 239.575C3569.13 240.214 3569.47 240.985 3569.46 242.029C3569.47 243.811 3567.87 244.978 3566.14 245C3565.66 245 3565.4 245.008 3564.94 245L3561.39 245L3561.39 239.106L3561.39 239.11ZM3570.83 255.508C3569.83 257.788 3568.11 258.973 3565.64 258.964L3561.39 258.964L3561.39 246.606C3562.44 246.623 3563.91 246.585 3563.91 246.606C3565.87 246.606 3567.25 246.977 3568.76 248.234C3570.21 249.372 3571.05 250.544 3571.29 252.385C3571.43 253.603 3571.34 254.383 3570.83 255.508Z" fill="#ffffff" fill-rule="nonzero" opacity="1" stroke="none"></path>
<path d="M3542.3 261.351C3549.09 261.333 3554.61 255.751 3554.59 248.869C3554.61 242.021 3549.09 236.438 3542.3 236.451C3535.49 236.438 3529.97 242.017 3529.95 248.869C3529.97 255.751 3535.49 261.333 3542.3 261.351ZM3542.3 238.045C3547.07 238.019 3550.51 242.89 3550.49 248.869C3550.51 254.856 3547.07 259.718 3542.3 259.693C3537.5 259.723 3534.06 254.856 3534.05 248.869C3534.06 242.89 3537.51 238.019 3542.3 238.045Z" fill="#ffffff" fill-rule="nonzero" opacity="1" stroke="none"></path>
<path d="M3643.86 259.424C3643.45 259.39 3643.18 259.36 3642.79 259.241C3642.32 259.088 3641.97 258.913 3641.69 258.512C3641.38 258.061 3641.33 257.831 3641.32 257.302L3641.32 240.768C3641.33 240.24 3641.38 240.009 3641.69 239.558C3641.97 239.153 3642.32 238.982 3642.79 238.829C3643.18 238.71 3643.45 238.68 3643.86 238.646L3643.86 237.453L3635.15 237.453L3635.15 238.646C3635.57 238.68 3635.83 238.714 3636.21 238.833C3636.68 238.987 3637.03 239.161 3637.31 239.562C3637.63 240.014 3637.68 240.244 3637.69 240.772L3637.68 257.306C3637.67 257.835 3637.63 258.065 3637.31 258.517C3637.03 258.922 3636.68 259.092 3636.21 259.245C3635.83 259.365 3635.56 259.395 3635.14 259.429L3635.14 260.622L3643.86 260.622L3643.86 259.429L3643.86 259.424Z" fill="#ffffff" fill-rule="nonzero" opacity="1" stroke="none"></path>
<path d="M3646.12 238.825C3646.59 238.978 3646.94 239.153 3647.22 239.553C3647.54 240.005 3647.58 240.235 3647.59 240.764L3647.59 257.26C3647.58 257.788 3647.55 258.056 3647.23 258.508C3646.95 258.913 3646.6 259.083 3646.13 259.237C3645.74 259.356 3645.47 259.386 3645.06 259.42L3645.06 260.613L3651.94 260.613L3651.94 259.42C3651.52 259.386 3651.25 259.356 3650.87 259.237C3650.4 259.083 3650.05 258.909 3649.77 258.508C3649.45 258.056 3649.41 257.826 3649.4 257.298L3649.38 242.268L3663.68 254.102L3663.68 257.289C3663.67 257.818 3663.65 258.056 3663.34 258.508C3663.06 258.913 3662.71 259.083 3662.24 259.237C3661.85 259.356 3661.58 259.386 3661.17 259.42L3661.17 260.613L3668.05 260.613L3668.05 259.42C3667.63 259.386 3667.36 259.356 3666.97 259.237C3666.5 259.083 3666.16 258.909 3665.87 258.508C3665.56 258.056 3665.52 257.826 3665.52 257.298L3665.51 240.759C3665.52 240.231 3665.57 240.001 3665.89 239.549C3666.17 239.149 3666.52 238.974 3666.99 238.821C3667.37 238.701 3667.63 238.671 3668.05 238.642L3668.05 237.448L3661.13 237.448L3661.14 238.637C3661.56 238.671 3661.83 238.701 3662.21 238.821C3662.68 238.978 3663.07 239.149 3663.36 239.549C3663.67 240.001 3663.67 240.231 3663.68 240.759L3663.68 249.372L3649.17 237.444L3645.04 237.444L3645.04 238.637C3645.46 238.671 3645.73 238.701 3646.11 238.821L3646.12 238.825Z" fill="#ffffff" fill-rule="nonzero" opacity="1" stroke="none"></path>
<path d="M3619.94 239.553C3620.25 240.005 3620.29 240.235 3620.3 240.764L3620.32 257.294C3620.31 257.822 3620.26 258.052 3619.95 258.504C3619.67 258.909 3619.32 259.079 3618.85 259.233C3618.46 259.352 3618.19 259.382 3617.78 259.416L3617.78 260.613L3634.31 260.613L3634.31 255.743L3633.41 255.743C3633.41 255.743 3633.22 256.505 3632.97 257C3632.67 257.571 3632.41 257.848 3631.92 258.201C3631.14 258.772 3630.53 258.939 3629.6 258.93L3623.95 258.93L3623.95 240.768C3623.96 240.24 3624 240.009 3624.32 239.558C3624.6 239.153 3624.94 238.982 3625.42 238.829C3625.8 238.71 3626.07 238.68 3626.49 238.646L3626.49 237.453L3617.78 237.453L3617.78 238.646C3618.19 238.68 3618.45 238.714 3618.84 238.833C3619.31 238.987 3619.66 239.161 3619.94 239.562L3619.94 239.553Z" fill="#ffffff" fill-rule="nonzero" opacity="1" stroke="none"></path>
<path d="M3594.04 255.751L3593.13 255.751C3593.13 255.751 3592.95 256.514 3592.69 257.008C3592.4 257.579 3592.14 257.856 3591.65 258.21C3590.86 258.781 3590.3 258.947 3589.36 258.939L3581.88 258.964L3581.88 246.615L3586.7 246.615C3587.14 246.615 3587.34 246.644 3587.72 246.913C3588.07 247.152 3588.21 247.441 3588.34 247.838C3588.44 248.166 3588.47 248.392 3588.49 248.741L3589.5 248.733L3589.52 242.924L3588.49 242.894C3588.47 243.244 3588.44 243.474 3588.34 243.798C3588.21 244.194 3588.06 244.488 3587.72 244.723C3587.34 244.987 3587.15 245.017 3586.7 245.025L3581.88 245.025L3581.88 239.11L3589.72 239.098C3590.25 239.106 3590.48 239.14 3590.93 239.455C3591.33 239.737 3591.5 240.086 3591.66 240.555C3591.78 240.943 3591.81 241.211 3591.84 241.629L3592.88 241.599L3592.88 237.453L3575.78 237.453L3575.78 238.646C3576.2 238.68 3576.47 238.71 3576.85 238.829C3577.32 238.982 3577.67 239.157 3577.95 239.558C3578.27 240.009 3578.31 240.24 3578.32 240.768L3578.34 257.302C3578.33 257.831 3578.29 258.061 3577.97 258.512C3577.69 258.917 3577.34 259.088 3576.87 259.241C3576.48 259.36 3576.21 259.39 3575.8 259.424L3575.81 260.618L3594.04 260.618L3594.04 255.747L3594.04 255.751Z" fill="#ffffff" fill-rule="nonzero" opacity="1" stroke="none"></path>
<path d="M3586.15 270.956L3585.67 270.956L3585.67 271.011C3585.67 271.548 3585.63 271.817 3585.58 271.817C3585.58 271.817 3585.54 271.812 3585.41 271.727C3585.35 271.689 3585.29 271.642 3585.21 271.595C3584.91 271.378 3584.5 271.079 3584.06 271.079C3583.73 271.079 3582.59 271.765 3582.59 272.494C3582.59 272.818 3582.82 273.104 3583.09 273.104C3583.28 273.104 3583.62 272.882 3583.62 272.669C3583.62 272.618 3583.58 272.575 3583.53 272.515C3583.45 272.422 3583.33 272.29 3583.33 272.089C3583.33 271.996 3583.39 271.898 3583.53 271.898C3583.73 271.898 3583.95 272 3584.23 272.217C3583.77 273.568 3583 274.254 3581.96 274.254C3581.39 274.254 3580.69 273.947 3580.5 273.202C3581.38 272.626 3584.11 270.721 3584.11 269.264C3584.11 268.842 3583.92 268.565 3583.64 268.565C3583.29 268.565 3582.93 268.876 3582.93 269.098C3582.93 269.149 3582.96 269.209 3582.99 269.281C3583.04 269.392 3583.1 269.545 3583.1 269.737C3583.1 270.3 3582.58 270.879 3582.24 271.237C3582.24 271.224 3582.24 271.211 3582.24 271.203C3582.24 270.704 3581.9 270.329 3581.45 270.329C3581.17 270.329 3580.48 270.696 3580.09 271.122C3579.56 271.693 3579.3 272.332 3579.3 273.082C3579.3 274.433 3580.2 275.379 3581.49 275.379C3583.61 275.379 3584.45 273.278 3584.69 272.515C3584.77 272.567 3584.84 272.618 3584.91 272.665C3585.2 272.861 3585.41 273.006 3585.59 273.006C3585.82 273.006 3586.21 272.835 3586.21 271.706C3586.21 271.616 3586.21 271.292 3586.16 271.007L3586.15 270.96L3586.15 270.956ZM3580.34 272.827C3580.34 272.827 3580.34 272.366 3580.35 272.328C3580.36 272.158 3580.39 271.987 3580.42 271.817C3580.42 271.77 3580.43 271.727 3580.45 271.68C3580.46 271.638 3580.46 271.582 3580.48 271.54C3580.54 271.369 3580.62 271.186 3580.77 271.062C3580.83 271.02 3580.9 270.986 3580.97 270.99C3581.17 271.003 3581.31 271.173 3581.37 271.356C3581.44 271.582 3581.42 271.834 3581.31 272.047C3581.26 272.153 3581.17 272.234 3581.08 272.315C3580.94 272.439 3580.85 272.498 3580.72 272.588C3580.62 272.656 3580.52 272.724 3580.42 272.784L3580.33 272.831L3580.34 272.827Z" fill="#ffffff" fill-rule="nonzero" opacity="1" stroke="none"></path>
<path d="M3533.21 273.64C3532.4 273.64 3531.84 272.967 3531.84 272.106L3531.84 272.089C3531.84 271.254 3532.4 270.564 3533.21 270.564C3533.76 270.564 3534.14 270.836 3534.47 271.237L3535.66 270.308C3535.16 269.609 3534.4 269.119 3533.23 269.119C3531.49 269.119 3530.2 270.432 3530.2 272.106L3530.2 272.123C3530.2 273.836 3531.52 275.094 3533.17 275.094C3534.43 275.094 3535.16 274.544 3535.7 273.798L3534.5 272.946C3534.16 273.363 3533.8 273.645 3533.21 273.645L3533.21 273.64Z" fill="#ffffff" fill-rule="nonzero" opacity="1" stroke="none"></path>
<path d="M3539.92 269.119C3538.15 269.119 3536.82 270.457 3536.82 272.106L3536.82 272.123C3536.82 273.773 3538.13 275.094 3539.91 275.094C3541.68 275.094 3543.01 273.756 3543.01 272.106L3543.01 272.089C3543.01 270.44 3541.7 269.119 3539.92 269.119ZM3541.38 272.123C3541.38 272.95 3540.79 273.658 3539.92 273.658C3539.05 273.658 3538.45 272.937 3538.45 272.106L3538.45 272.089C3538.45 271.258 3539.03 270.555 3539.91 270.555C3540.78 270.555 3541.38 271.267 3541.38 272.106L3541.38 272.123Z" fill="#ffffff" fill-rule="nonzero" opacity="1" stroke="none"></path>
<path d="M3546.07 269.234L3544.48 269.234L3544.48 274.978L3548.85 274.978L3548.85 273.581L3546.07 273.581L3546.07 269.234Z" fill="#ffffff" fill-rule="nonzero" opacity="1" stroke="none"></path>
<path d="M3551.94 269.234L3550.35 269.234L3550.35 274.978L3554.72 274.978L3554.72 273.581L3551.94 273.581L3551.94 269.234Z" fill="#ffffff" fill-rule="nonzero" opacity="1" stroke="none"></path>
<path d="M3557.8 272.711L3560.56 272.711L3560.56 271.459L3557.8 271.459L3557.8 270.581L3560.84 270.581L3560.84 269.234L3556.22 269.234L3556.22 274.978L3560.89 274.978L3560.89 273.623L3557.8 273.623L3557.8 272.711Z" fill="#ffffff" fill-rule="nonzero" opacity="1" stroke="none"></path>
<path d="M3565.35 272.788L3566.47 272.788L3566.47 273.487C3566.24 273.645 3565.95 273.726 3565.55 273.726C3564.64 273.726 3563.99 273.061 3563.99 272.128L3563.99 272.111C3563.99 271.233 3564.63 270.543 3565.46 270.543C3566.04 270.543 3566.44 270.739 3566.85 271.084L3567.79 269.95C3567.18 269.426 3566.46 269.124 3565.45 269.124C3563.68 269.124 3562.37 270.436 3562.37 272.111L3562.37 272.128C3562.37 273.866 3563.7 275.098 3565.49 275.098C3566.54 275.098 3567.38 274.71 3567.98 274.203L3567.98 271.625L3565.35 271.625L3565.35 272.788Z" fill="#ffffff" fill-rule="nonzero" opacity="1" stroke="none"></path>
<path d="M3571.33 272.711L3574.09 272.711L3574.09 271.459L3571.33 271.459L3571.33 270.581L3574.38 270.581L3574.38 269.234L3569.76 269.234L3569.76 274.978L3574.42 274.978L3574.42 273.623L3571.33 273.623L3571.33 272.711Z" fill="#ffffff" fill-rule="nonzero" opacity="1" stroke="none"></path>
<path d="M3592.43 273.64C3591.63 273.64 3591.06 272.967 3591.06 272.106L3591.06 272.089C3591.06 271.254 3591.63 270.564 3592.43 270.564C3592.98 270.564 3593.36 270.836 3593.69 271.237L3594.89 270.308C3594.38 269.609 3593.63 269.119 3592.45 269.119C3590.71 269.119 3589.43 270.432 3589.43 272.106L3589.43 272.123C3589.43 273.836 3590.75 275.094 3592.39 275.094C3593.65 275.094 3594.38 274.544 3594.93 273.798L3593.73 272.946C3593.38 273.363 3593.03 273.645 3592.43 273.645L3592.43 273.64Z" fill="#ffffff" fill-rule="nonzero" opacity="1" stroke="none"></path>
<path d="M3599.17 269.119C3597.4 269.119 3596.07 270.457 3596.07 272.106L3596.07 272.123C3596.07 273.773 3597.38 275.094 3599.16 275.094C3600.93 275.094 3602.26 273.756 3602.26 272.106L3602.26 272.089C3602.26 270.44 3600.95 269.119 3599.17 269.119ZM3600.63 272.123C3600.63 272.95 3600.04 273.658 3599.17 273.658C3598.31 273.658 3597.7 272.937 3597.7 272.106L3597.7 272.089C3597.7 271.258 3598.28 270.555 3599.16 270.555C3600.04 270.555 3600.63 271.267 3600.63 272.106L3600.63 272.123Z" fill="#ffffff" fill-rule="nonzero" opacity="1" stroke="none"></path>
<path d="M3607.64 272.268L3605.28 269.234L3603.79 269.234L3603.79 274.978L3605.37 274.978L3605.37 271.825L3607.83 274.978L3609.22 274.978L3609.22 269.234L3607.64 269.234L3607.64 272.268Z" fill="#ffffff" fill-rule="nonzero" opacity="1" stroke="none"></path>
<path d="M3613.65 271.399C3612.84 271.22 3612.64 271.105 3612.64 270.841L3612.64 270.824C3612.64 270.611 3612.83 270.453 3613.22 270.453C3613.73 270.453 3614.3 270.64 3614.83 271.02L3615.62 269.895C3615 269.396 3614.24 269.132 3613.26 269.132C3611.88 269.132 3611.03 269.903 3611.03 270.968L3611.03 270.986C3611.03 272.157 3611.98 272.503 3613.2 272.784C3613.99 272.971 3614.17 273.095 3614.17 273.342L3614.17 273.359C3614.17 273.606 3613.94 273.751 3613.51 273.751C3612.85 273.751 3612.22 273.513 3611.65 273.061L3610.76 274.118C3611.48 274.748 3612.44 275.068 3613.45 275.068C3614.85 275.068 3615.78 274.369 3615.78 273.197L3615.78 273.18C3615.78 272.106 3614.95 271.68 3613.64 271.39L3613.65 271.399Z" fill="#ffffff" fill-rule="nonzero" opacity="1" stroke="none"></path>
<path d="M3619.06 272.711L3621.82 272.711L3621.82 271.459L3619.06 271.459L3619.06 270.581L3622.11 270.581L3622.11 269.234L3617.49 269.234L3617.49 274.978L3622.15 274.978L3622.15 273.623L3619.06 273.623L3619.06 272.711Z" fill="#ffffff" fill-rule="nonzero" opacity="1" stroke="none"></path>
<path d="M3629.24 271.203L3629.24 271.186C3629.24 270.619 3629.07 270.184 3628.74 269.848C3628.35 269.46 3627.74 269.234 3626.87 269.234L3624.15 269.234L3624.15 274.978L3625.74 274.978L3625.74 273.24L3626.45 273.24L3627.61 274.978L3629.43 274.978L3628.06 272.976C3628.78 272.673 3629.24 272.089 3629.24 271.203ZM3627.65 271.309C3627.65 271.727 3627.33 271.991 3626.8 271.991L3625.74 271.991L3625.74 270.606L3626.79 270.606C3627.31 270.606 3627.65 270.836 3627.65 271.297L3627.65 271.314L3627.65 271.309Z" fill="#ffffff" fill-rule="nonzero" opacity="1" stroke="none"></path>
<path d="M3633.28 272.869L3631.97 269.234L3630.2 269.234L3632.52 275.017L3634 275.017L3636.33 269.234L3634.59 269.234L3633.28 272.869Z" fill="#ffffff" fill-rule="nonzero" opacity="1" stroke="none"></path>
<path d="M3638.87 269.192L3636.43 274.979L3638.09 274.979L3638.5 273.943L3640.73 273.943L3641.14 274.979L3642.84 274.979L3640.4 269.192L3638.86 269.192L3638.87 269.192ZM3638.97 272.703L3639.62 271.079L3640.26 272.703L3638.97 272.703Z" fill="#ffffff" fill-rule="nonzero" opacity="1" stroke="none"></path>
<path d="M3643.17 270.628L3644.88 270.628L3644.88 274.978L3646.48 274.978L3646.48 270.628L3648.2 270.628L3648.2 269.234L3643.17 269.234L3643.17 270.628Z" fill="#ffffff" fill-rule="nonzero" opacity="1" stroke="none"></path>
<path d="M3652.12 269.119C3650.35 269.119 3649.02 270.457 3649.02 272.106L3649.02 272.123C3649.02 273.773 3650.33 275.094 3652.1 275.094C3653.87 275.094 3655.2 273.756 3655.2 272.106L3655.2 272.089C3655.2 270.44 3653.89 269.119 3652.12 269.119ZM3653.57 272.123C3653.57 272.95 3652.99 273.658 3652.12 273.658C3651.25 273.658 3650.64 272.937 3650.64 272.106L3650.64 272.089C3650.64 271.258 3651.22 270.555 3652.1 270.555C3652.98 270.555 3653.57 271.267 3653.57 272.106L3653.57 272.123Z" fill="#ffffff" fill-rule="nonzero" opacity="1" stroke="none"></path>
<path d="M3661.68 271.203L3661.68 271.186C3661.68 270.619 3661.51 270.184 3661.17 269.848C3660.79 269.46 3660.18 269.234 3659.3 269.234L3656.58 269.234L3656.58 274.978L3658.18 274.978L3658.18 273.24L3658.89 273.24L3660.04 274.978L3661.87 274.978L3660.5 272.976C3661.21 272.673 3661.68 272.089 3661.68 271.203ZM3660.08 271.309C3660.08 271.727 3659.76 271.991 3659.23 271.991L3658.17 271.991L3658.17 270.606L3659.22 270.606C3659.75 270.606 3660.08 270.836 3660.08 271.297L3660.08 271.314L3660.08 271.309Z" fill="#ffffff" fill-rule="nonzero" opacity="1" stroke="none"></path>
<path d="M3666.64 269.234L3665.45 271.326L3664.27 269.234L3662.46 269.234L3664.65 272.826L3664.65 274.978L3666.24 274.978L3666.24 272.801L3668.42 269.234L3666.64 269.234Z" fill="#ffffff" fill-rule="nonzero" opacity="1" stroke="none"></path>
</g>
</svg>
