<?xml version="1.0" encoding="UTF-8" standalone="no"?>
<!-- Created with Vectornator (http://vectornator.io/) -->
<svg xmlns="http://www.w3.org/2000/svg" xmlns:xlink="http://www.w3.org/1999/xlink" height="100%" stroke-miterlimit="10" style="fill-rule:nonzero;clip-rule:evenodd;stroke-linecap:round;stroke-linejoin:round;" version="1.1" viewBox="0 0 900 900" width="100%" xml:space="preserve">
<defs></defs>
<g id="Layer-1">
<path d="M774.549 176.309C823.878 228.907 805.397 345.761 762.608 419.967C719.96 494.173 652.72 525.59 603.533 580.037C554.205 634.625 522.788 712.101 464.93 738.684C406.929 765.126 322.488 740.675 253.826 686.086C185.021 631.64 132.139 547.198 111.526 442.144C90.9131 337.089 102.712 211.422 171.374 158.824C240.036 106.225 365.704 126.696 486.964 131.103C608.367 135.368 725.22 123.711 774.549 176.309" fill="#e87e08" fill-rule="nonzero" opacity="1" stroke="none"></path>
</g>
<g id="timeandlocate">
<g opacity="1">
<path d="M247.498 275.207C236.684 275.207 227.885 284.006 227.885 294.82C227.885 305.635 236.684 314.433 247.498 314.433C258.313 314.433 267.112 305.635 267.112 294.82C267.112 284.006 258.313 275.207 247.498 275.207ZM247.498 309.763C239.259 309.763 232.555 303.06 232.555 294.82C232.555 286.58 239.259 279.877 247.498 279.877C255.738 279.877 262.442 286.58 262.442 294.82C262.442 303.06 255.738 309.763 247.498 309.763Z" fill="#000000" fill-rule="nonzero" opacity="1" stroke="none"></path>
<path d="M247.685 284.076C246.703 284.076 245.908 284.871 245.908 285.853L245.908 293.898L240.235 299.571C239.541 300.264 239.541 301.39 240.235 302.084C240.929 302.778 242.054 302.778 242.748 302.084L249.462 295.37L249.462 293.549L249.462 285.853C249.462 284.871 248.666 284.076 247.685 284.076Z" fill="#000000" fill-rule="nonzero" opacity="1" stroke="none"></path>
</g>
<path d="M261.677 441.502C254.017 433.842 241.599 433.842 233.939 441.502C226.28 449.16 226.28 461.58 233.939 469.24L247.808 483.107L261.677 469.239C269.336 461.58 269.336 449.16 261.677 441.502ZM247.808 443.506C250.778 443.506 253.186 445.914 253.186 448.885C253.186 451.856 250.778 454.263 247.808 454.263C244.837 454.263 242.429 451.856 242.429 448.885C242.429 445.914 244.837 443.506 247.808 443.506ZM240.091 464.003C240.091 459.741 243.546 456.285 247.808 456.285C252.069 456.285 255.525 459.741 255.525 464.003L240.091 464.003Z" fill="#000000" fill-rule="nonzero" opacity="1" stroke="none"></path>
<g opacity="1">
<path d="M303.546 299.676C303.546 298.114 303.044 296.801 302.04 295.735C301.036 294.669 299.754 293.851 298.192 293.281C298.787 293.009 299.357 292.68 299.902 292.296C300.448 291.912 300.925 291.478 301.334 290.995C301.743 290.511 302.065 289.96 302.3 289.34C302.536 288.721 302.653 288.027 302.653 287.258C302.653 286.242 302.412 285.313 301.929 284.47C301.445 283.627 300.801 282.896 299.995 282.277C299.19 281.657 298.248 281.18 297.17 280.845C296.092 280.511 294.958 280.343 293.768 280.343C292.578 280.343 291.444 280.511 290.366 280.845C289.288 281.18 288.346 281.657 287.541 282.277C286.735 282.896 286.091 283.627 285.608 284.47C285.124 285.313 284.883 286.242 284.883 287.258C284.883 288.027 285 288.721 285.236 289.34C285.471 289.96 285.793 290.511 286.202 290.995C286.611 291.478 287.088 291.912 287.634 292.296C288.179 292.68 288.749 293.009 289.344 293.281C287.782 293.851 286.5 294.675 285.496 295.753C284.492 296.832 283.99 298.151 283.99 299.713C283.99 300.803 284.238 301.807 284.734 302.724C285.23 303.641 285.917 304.422 286.797 305.066C287.677 305.711 288.712 306.213 289.902 306.572C291.091 306.932 292.38 307.111 293.768 307.111C295.156 307.111 296.445 306.932 297.634 306.572C298.824 306.213 299.859 305.711 300.739 305.066C301.619 304.422 302.306 303.641 302.802 302.724C303.298 301.807 303.546 300.791 303.546 299.676ZM299.716 287.444C299.716 288.163 299.562 288.814 299.252 289.396C298.942 289.979 298.521 290.48 297.988 290.902C297.455 291.323 296.823 291.652 296.092 291.887C295.36 292.122 294.586 292.24 293.768 292.24C292.95 292.24 292.176 292.122 291.444 291.887C290.713 291.652 290.081 291.323 289.548 290.902C289.015 290.48 288.594 289.979 288.284 289.396C287.975 288.814 287.82 288.163 287.82 287.444C287.82 286.775 287.968 286.168 288.266 285.623C288.563 285.077 288.978 284.6 289.511 284.191C290.044 283.782 290.676 283.466 291.407 283.243C292.138 283.02 292.925 282.909 293.768 282.909C294.611 282.909 295.398 283.02 296.129 283.243C296.86 283.466 297.492 283.782 298.025 284.191C298.558 284.6 298.973 285.083 299.27 285.641C299.568 286.199 299.716 286.8 299.716 287.444ZM300.572 299.639C300.572 300.308 300.417 300.94 300.107 301.535C299.797 302.129 299.351 302.65 298.768 303.096C298.186 303.542 297.473 303.895 296.631 304.156C295.788 304.416 294.834 304.546 293.768 304.546C292.702 304.546 291.748 304.416 290.905 304.156C290.063 303.895 289.35 303.542 288.768 303.096C288.185 302.65 287.739 302.129 287.429 301.535C287.119 300.94 286.965 300.308 286.965 299.639C286.965 298.895 287.138 298.22 287.485 297.612C287.832 297.005 288.315 296.485 288.935 296.051C289.555 295.617 290.28 295.276 291.11 295.028C291.94 294.781 292.826 294.657 293.768 294.657C294.71 294.657 295.596 294.781 296.426 295.028C297.257 295.276 297.975 295.617 298.583 296.051C299.19 296.485 299.673 297.005 300.032 297.612C300.392 298.22 300.572 298.895 300.572 299.639Z" fill="#000000" fill-rule="nonzero" opacity="1" stroke="none"></path>
<path d="M326.782 289.786C328.591 289.786 329.998 290.226 331.001 291.106C332.005 291.986 332.507 293.294 332.507 295.028L332.507 295.698C331.64 295.45 330.747 295.252 329.83 295.103C328.913 294.954 327.835 294.88 326.596 294.88C325.381 294.88 324.272 295.016 323.268 295.289C322.265 295.561 321.397 295.958 320.666 296.478C319.935 296.999 319.371 297.65 318.974 298.43C318.578 299.211 318.38 300.109 318.38 301.126C318.38 302.142 318.584 303.022 318.993 303.765C319.402 304.509 319.947 305.135 320.629 305.643C321.31 306.151 322.079 306.529 322.934 306.777C323.789 307.024 324.663 307.148 325.555 307.148C327.265 307.148 328.684 306.814 329.812 306.145C330.939 305.475 331.838 304.707 332.507 303.84L332.507 306.739L335.258 306.739L335.258 294.991C335.258 292.438 334.552 290.511 333.139 289.21C331.726 287.909 329.706 287.258 327.079 287.258C325.666 287.258 324.415 287.401 323.324 287.686C322.234 287.971 321.156 288.361 320.09 288.857L320.945 291.199C321.837 290.778 322.748 290.437 323.677 290.177C324.607 289.917 325.642 289.786 326.782 289.786ZM326.893 296.999C328.083 296.999 329.143 297.086 330.072 297.259C331.001 297.433 331.826 297.619 332.544 297.817L332.544 299.676C332.544 300.444 332.377 301.144 332.042 301.776C331.708 302.408 331.249 302.954 330.667 303.412C330.084 303.871 329.403 304.23 328.622 304.49C327.841 304.75 327.005 304.881 326.113 304.881C325.468 304.881 324.855 304.794 324.272 304.62C323.69 304.447 323.176 304.193 322.729 303.858C322.283 303.524 321.93 303.121 321.67 302.65C321.41 302.179 321.279 301.634 321.279 301.014C321.279 299.775 321.763 298.796 322.729 298.077C323.696 297.358 325.084 296.999 326.893 296.999Z" fill="#000000" fill-rule="nonzero" opacity="1" stroke="none"></path>
<path d="M356.598 290.939C356.078 289.848 355.309 288.938 354.293 288.206C353.277 287.475 351.988 287.11 350.427 287.11C349.609 287.11 348.89 287.209 348.27 287.407C347.651 287.605 347.093 287.872 346.597 288.206C346.102 288.541 345.662 288.931 345.278 289.377C344.893 289.824 344.54 290.282 344.218 290.753L344.218 287.519L341.355 287.519L341.355 306.739L344.218 306.739L344.218 295.772C344.218 294.88 344.354 294.068 344.627 293.337C344.9 292.606 345.278 291.968 345.761 291.422C346.244 290.877 346.808 290.456 347.452 290.158C348.097 289.861 348.803 289.712 349.572 289.712C351.108 289.712 352.317 290.214 353.196 291.218C354.076 292.222 354.516 293.628 354.516 295.437L354.516 306.739L357.342 306.739L357.342 295.661C357.342 294.719 357.484 293.876 357.769 293.132C358.054 292.389 358.438 291.763 358.922 291.255C359.405 290.747 359.969 290.363 360.613 290.102C361.258 289.842 361.939 289.712 362.658 289.712C364.22 289.712 365.44 290.214 366.32 291.218C367.2 292.222 367.64 293.653 367.64 295.512L367.64 306.739L370.503 306.739L370.503 294.843C370.503 292.438 369.871 290.549 368.607 289.173C367.343 287.797 365.595 287.11 363.365 287.11C362.522 287.11 361.76 287.209 361.078 287.407C360.397 287.605 359.783 287.878 359.238 288.225C358.693 288.572 358.203 288.981 357.769 289.452C357.336 289.923 356.945 290.418 356.598 290.939Z" fill="#000000" fill-rule="nonzero" opacity="1" stroke="none"></path>
<path d="M397.419 297.073L397.419 294.062L387.084 294.062L387.084 297.073L397.419 297.073Z" fill="#000000" fill-rule="nonzero" opacity="1" stroke="none"></path>
<path d="M412.03 282.723L412.736 285.102L417.644 283.578L417.644 306.739L420.544 306.739L420.544 280.529L418.387 280.529L412.03 282.723Z" fill="#000000" fill-rule="nonzero" opacity="1" stroke="none"></path>
<path d="M425.34 282.723L426.046 285.102L430.953 283.578L430.953 306.739L433.853 306.739L433.853 280.529L431.697 280.529L425.34 282.723Z" fill="#000000" fill-rule="nonzero" opacity="1" stroke="none"></path>
<path d="M471.365 297.11C471.365 295.524 471.105 294.111 470.585 292.872C470.064 291.633 469.37 290.586 468.503 289.731C467.635 288.876 466.65 288.225 465.547 287.779C464.444 287.333 463.323 287.11 462.183 287.11C461.29 287.11 460.479 287.227 459.747 287.463C459.016 287.698 458.353 288.008 457.758 288.392C457.164 288.776 456.625 289.229 456.141 289.749C455.658 290.27 455.218 290.815 454.821 291.385L454.821 287.519L451.959 287.519L451.959 312.688L454.821 312.688L454.821 303.059C455.193 303.604 455.621 304.125 456.104 304.62C456.587 305.116 457.126 305.55 457.721 305.922C458.316 306.293 458.985 306.591 459.729 306.814C460.472 307.037 461.29 307.148 462.183 307.148C463.348 307.148 464.481 306.919 465.584 306.461C466.687 306.002 467.666 305.345 468.521 304.49C469.376 303.635 470.064 302.588 470.585 301.349C471.105 300.109 471.365 298.697 471.365 297.11ZM468.428 297.148C468.428 298.313 468.249 299.36 467.889 300.289C467.53 301.219 467.047 301.999 466.439 302.631C465.832 303.263 465.113 303.747 464.283 304.081C463.453 304.416 462.579 304.583 461.662 304.583C460.77 304.583 459.909 304.403 459.078 304.044C458.248 303.685 457.504 303.183 456.848 302.538C456.191 301.894 455.67 301.107 455.286 300.178C454.902 299.248 454.71 298.226 454.71 297.11C454.71 295.995 454.902 294.979 455.286 294.062C455.67 293.145 456.191 292.364 456.848 291.72C457.504 291.075 458.248 290.573 459.078 290.214C459.909 289.855 460.77 289.675 461.662 289.675C462.579 289.675 463.447 289.848 464.265 290.195C465.082 290.542 465.801 291.044 466.421 291.701C467.04 292.358 467.53 293.145 467.889 294.062C468.249 294.979 468.428 296.008 468.428 297.148Z" fill="#000000" fill-rule="nonzero" opacity="1" stroke="none"></path>
<path d="M491.888 290.939C491.367 289.848 490.599 288.938 489.583 288.206C488.566 287.475 487.277 287.11 485.716 287.11C484.898 287.11 484.179 287.209 483.56 287.407C482.94 287.605 482.382 287.872 481.887 288.206C481.391 288.541 480.951 288.931 480.567 289.377C480.183 289.824 479.83 290.282 479.507 290.753L479.507 287.519L476.645 287.519L476.645 306.739L479.507 306.739L479.507 295.772C479.507 294.88 479.644 294.068 479.916 293.337C480.189 292.606 480.567 291.968 481.05 291.422C481.534 290.877 482.097 290.456 482.742 290.158C483.386 289.861 484.093 289.712 484.861 289.712C486.398 289.712 487.606 290.214 488.486 291.218C489.366 292.222 489.806 293.628 489.806 295.437L489.806 306.739L492.631 306.739L492.631 295.661C492.631 294.719 492.774 293.876 493.059 293.132C493.344 292.389 493.728 291.763 494.211 291.255C494.694 290.747 495.258 290.363 495.903 290.102C496.547 289.842 497.229 289.712 497.947 289.712C499.509 289.712 500.73 290.214 501.609 291.218C502.489 292.222 502.929 293.653 502.929 295.512L502.929 306.739L505.792 306.739L505.792 294.843C505.792 292.438 505.16 290.549 503.896 289.173C502.632 287.797 500.884 287.11 498.654 287.11C497.811 287.11 497.049 287.209 496.367 287.407C495.686 287.605 495.072 287.878 494.527 288.225C493.982 288.572 493.492 288.981 493.059 289.452C492.625 289.923 492.235 290.418 491.888 290.939Z" fill="#000000" fill-rule="nonzero" opacity="1" stroke="none"></path>
</g>
<g opacity="1">
<path d="M293.002 437.852C293.696 437.852 294.365 437.97 295.01 438.205C295.654 438.441 296.212 438.775 296.683 439.209C297.153 439.643 297.531 440.163 297.816 440.77C298.101 441.377 298.244 442.065 298.244 442.833C298.244 443.477 298.151 444.103 297.965 444.71C297.779 445.317 297.469 445.937 297.036 446.569C296.602 447.201 296.038 447.876 295.344 448.595C294.65 449.313 293.808 450.119 292.817 451.011L283.375 459.338L283.375 461.605L301.552 461.605L301.552 458.929L287.761 458.929L294.712 452.758C295.852 451.767 296.831 450.856 297.649 450.026C298.467 449.196 299.148 448.39 299.693 447.61C300.239 446.829 300.641 446.042 300.902 445.249C301.162 444.456 301.292 443.577 301.292 442.61C301.292 441.545 301.094 440.559 300.697 439.655C300.301 438.75 299.743 437.97 299.024 437.313C298.306 436.656 297.457 436.142 296.478 435.77C295.499 435.399 294.415 435.213 293.226 435.213C292.086 435.213 291.063 435.337 290.159 435.585C289.254 435.832 288.437 436.192 287.705 436.663C286.974 437.133 286.299 437.716 285.68 438.41C285.06 439.104 284.453 439.884 283.858 440.752L286.014 442.313C287.055 440.851 288.108 439.742 289.174 438.986C290.239 438.23 291.516 437.852 293.002 437.852Z" fill="#000000" fill-rule="nonzero" opacity="1" stroke="none"></path>
<path d="M309.916 450.602C309.916 449.71 310.058 448.892 310.343 448.149C310.628 447.405 311.031 446.767 311.551 446.234C312.072 445.702 312.685 445.293 313.391 445.008C314.098 444.723 314.86 444.58 315.677 444.58C317.387 444.58 318.701 445.101 319.618 446.141C320.535 447.182 320.993 448.595 320.993 450.379L320.993 461.605L323.855 461.605L323.855 449.673C323.855 448.533 323.688 447.492 323.353 446.55C323.019 445.609 322.536 444.797 321.904 444.116C321.272 443.434 320.504 442.907 319.599 442.536C318.695 442.164 317.66 441.978 316.495 441.978C314.835 441.978 313.484 442.344 312.443 443.075C311.403 443.806 310.56 444.692 309.916 445.733L309.916 442.387L307.054 442.387L307.054 461.605L309.916 461.605L309.916 450.602Z" fill="#000000" fill-rule="nonzero" opacity="1" stroke="none"></path>
<path d="M348.24 461.605L348.24 434.469L345.378 434.469L345.378 446.067C345.006 445.522 344.579 445.002 344.095 444.506C343.612 444.01 343.073 443.577 342.479 443.205C341.884 442.833 341.215 442.536 340.471 442.313C339.728 442.09 338.91 441.978 338.018 441.978C336.853 441.978 335.726 442.207 334.635 442.666C333.545 443.124 332.566 443.781 331.699 444.636C330.831 445.491 330.137 446.538 329.617 447.777C329.097 449.016 328.836 450.429 328.836 452.015C328.836 453.601 329.097 455.013 329.617 456.252C330.137 457.491 330.831 458.538 331.699 459.393C332.566 460.248 333.545 460.899 334.635 461.345C335.726 461.791 336.853 462.014 338.018 462.014C338.91 462.014 339.722 461.902 340.453 461.679C341.184 461.456 341.847 461.147 342.441 460.75C343.036 460.354 343.575 459.895 344.058 459.375C344.542 458.854 344.981 458.309 345.378 457.739L345.378 461.605L348.24 461.605ZM345.489 451.977C345.489 453.093 345.297 454.115 344.913 455.044C344.529 455.973 344.009 456.76 343.352 457.405C342.695 458.049 341.952 458.551 341.122 458.91C340.292 459.269 339.43 459.449 338.538 459.449C337.621 459.449 336.754 459.276 335.936 458.929C335.118 458.582 334.4 458.08 333.78 457.423C333.161 456.766 332.671 455.98 332.312 455.063C331.953 454.146 331.773 453.117 331.773 451.977C331.773 450.813 331.953 449.766 332.312 448.836C332.671 447.907 333.155 447.127 333.762 446.495C334.369 445.863 335.081 445.379 335.899 445.045C336.717 444.71 337.597 444.543 338.538 444.543C339.43 444.543 340.292 444.723 341.122 445.082C341.952 445.441 342.695 445.943 343.352 446.588C344.009 447.232 344.529 448.012 344.913 448.929C345.297 449.846 345.489 450.862 345.489 451.977Z" fill="#000000" fill-rule="nonzero" opacity="1" stroke="none"></path>
<path d="M369.688 442.461L369.688 440.9C369.688 438.174 370.804 436.811 373.034 436.811C373.53 436.811 373.988 436.855 374.409 436.941C374.831 437.028 375.301 437.146 375.822 437.295L375.822 434.804C375.351 434.631 374.874 434.507 374.391 434.432C373.908 434.358 373.331 434.321 372.662 434.321C370.804 434.321 369.373 434.866 368.369 435.956C367.365 437.047 366.863 438.645 366.863 440.752L366.863 442.424L364.224 442.424L364.224 444.915L366.863 444.915L366.863 461.605L369.726 461.605L369.726 444.915L375.785 444.915L375.785 442.461L369.688 442.461Z" fill="#000000" fill-rule="nonzero" opacity="1" stroke="none"></path>
<path d="M382.55 461.605L382.55 434.469L379.688 434.469L379.688 461.605L382.55 461.605Z" fill="#000000" fill-rule="nonzero" opacity="1" stroke="none"></path>
<path d="M408.05 451.977C408.05 450.614 407.802 449.326 407.307 448.112C406.811 446.897 406.117 445.838 405.225 444.933C404.333 444.029 403.273 443.31 402.047 442.777C400.82 442.245 399.488 441.978 398.051 441.978C396.589 441.978 395.244 442.245 394.018 442.777C392.791 443.31 391.732 444.035 390.839 444.952C389.947 445.869 389.253 446.941 388.758 448.167C388.262 449.394 388.014 450.689 388.014 452.052C388.014 453.415 388.262 454.703 388.758 455.918C389.253 457.132 389.947 458.191 390.839 459.096C391.732 460 392.785 460.719 393.999 461.252C395.213 461.785 396.539 462.051 397.976 462.051C399.414 462.051 400.752 461.785 401.991 461.252C403.23 460.719 404.296 459.994 405.188 459.077C406.08 458.16 406.78 457.089 407.288 455.862C407.796 454.635 408.05 453.34 408.05 451.977ZM405.113 452.052C405.113 453.093 404.94 454.065 404.593 454.97C404.246 455.874 403.763 456.661 403.143 457.33C402.524 457.999 401.78 458.526 400.913 458.91C400.046 459.294 399.092 459.486 398.051 459.486C397.035 459.486 396.093 459.288 395.226 458.891C394.358 458.495 393.609 457.962 392.977 457.293C392.345 456.624 391.849 455.831 391.49 454.914C391.131 453.997 390.951 453.018 390.951 451.977C390.951 450.937 391.124 449.964 391.471 449.059C391.818 448.155 392.295 447.362 392.902 446.68C393.51 445.999 394.247 445.466 395.114 445.082C395.982 444.698 396.936 444.506 397.976 444.506C398.992 444.506 399.934 444.704 400.801 445.101C401.669 445.497 402.425 446.036 403.069 446.718C403.713 447.399 404.215 448.198 404.574 449.115C404.934 450.032 405.113 451.011 405.113 452.052Z" fill="#000000" fill-rule="nonzero" opacity="1" stroke="none"></path>
<path d="M432.063 451.977C432.063 450.614 431.815 449.326 431.32 448.112C430.824 446.897 430.13 445.838 429.238 444.933C428.346 444.029 427.287 443.31 426.06 442.777C424.833 442.245 423.501 441.978 422.064 441.978C420.602 441.978 419.257 442.245 418.031 442.777C416.804 443.31 415.745 444.035 414.853 444.952C413.96 445.869 413.267 446.941 412.771 448.167C412.275 449.394 412.027 450.689 412.027 452.052C412.027 453.415 412.275 454.703 412.771 455.918C413.267 457.132 413.96 458.191 414.853 459.096C415.745 460 416.798 460.719 418.012 461.252C419.226 461.785 420.552 462.051 421.99 462.051C423.427 462.051 424.765 461.785 426.004 461.252C427.243 460.719 428.309 459.994 429.201 459.077C430.093 458.16 430.793 457.089 431.301 455.862C431.809 454.635 432.063 453.34 432.063 451.977ZM429.127 452.052C429.127 453.093 428.953 454.065 428.606 454.97C428.259 455.874 427.776 456.661 427.156 457.33C426.537 457.999 425.794 458.526 424.926 458.91C424.059 459.294 423.105 459.486 422.064 459.486C421.048 459.486 420.106 459.288 419.239 458.891C418.371 458.495 417.622 457.962 416.99 457.293C416.358 456.624 415.862 455.831 415.503 454.914C415.144 453.997 414.964 453.018 414.964 451.977C414.964 450.937 415.138 449.964 415.484 449.059C415.831 448.155 416.308 447.362 416.916 446.68C417.523 445.999 418.26 445.466 419.127 445.082C419.995 444.698 420.949 444.506 421.99 444.506C423.006 444.506 423.947 444.704 424.815 445.101C425.682 445.497 426.438 446.036 427.082 446.718C427.726 447.399 428.228 448.198 428.588 449.115C428.947 450.032 429.127 451.011 429.127 452.052Z" fill="#000000" fill-rule="nonzero" opacity="1" stroke="none"></path>
<path d="M440.092 453.948C440.092 452.51 440.291 451.24 440.687 450.137C441.084 449.035 441.629 448.112 442.323 447.368C443.017 446.625 443.828 446.067 444.757 445.695C445.687 445.324 446.672 445.138 447.713 445.138L447.936 445.138L447.936 442.053C447.019 442.028 446.164 442.139 445.371 442.387C444.578 442.635 443.847 443 443.178 443.484C442.509 443.967 441.914 444.543 441.393 445.212C440.873 445.881 440.439 446.612 440.092 447.405L440.092 442.387L437.23 442.387L437.23 461.605L440.092 461.605L440.092 453.948Z" fill="#000000" fill-rule="nonzero" opacity="1" stroke="none"></path>
<path d="M494.698 449.859C494.698 447.926 494.283 446.067 493.453 444.283C492.623 442.499 491.477 440.931 490.014 439.581C488.552 438.23 486.836 437.152 484.866 436.347C482.896 435.541 480.771 435.139 478.491 435.139C476.211 435.139 474.08 435.572 472.098 436.44C470.115 437.307 468.393 438.478 466.931 439.952C465.469 441.427 464.316 443.149 463.474 445.119C462.631 447.089 462.21 449.19 462.21 451.42C462.21 453.65 462.625 455.744 463.455 457.702C464.285 459.66 465.444 461.376 466.931 462.85C468.418 464.325 470.171 465.49 472.19 466.344C474.21 467.199 476.409 467.627 478.789 467.627C480.721 467.627 482.487 467.379 484.086 466.883C485.684 466.388 487.202 465.706 488.639 464.839L488.044 463.835C486.607 464.678 485.17 465.31 483.732 465.731C482.295 466.152 480.647 466.363 478.789 466.363C476.558 466.363 474.508 465.973 472.637 465.192C470.766 464.412 469.161 463.346 467.823 461.995C466.485 460.645 465.438 459.065 464.682 457.256C463.926 455.447 463.548 453.502 463.548 451.42C463.548 449.363 463.926 447.424 464.682 445.602C465.438 443.781 466.485 442.189 467.823 440.826C469.161 439.463 470.741 438.385 472.562 437.592C474.384 436.799 476.36 436.402 478.491 436.402C480.622 436.402 482.592 436.78 484.401 437.536C486.211 438.292 487.778 439.302 489.104 440.566C490.43 441.829 491.47 443.267 492.226 444.878C492.982 446.488 493.36 448.149 493.36 449.859C493.36 451.172 493.211 452.312 492.914 453.278C492.617 454.245 492.226 455.044 491.743 455.676C491.26 456.308 490.708 456.773 490.089 457.07C489.469 457.367 488.825 457.516 488.156 457.516C487.14 457.516 486.359 457.25 485.814 456.717C485.269 456.184 484.996 455.447 484.996 454.505C484.996 454.307 485.015 454.01 485.052 453.613C485.089 453.217 485.157 452.758 485.256 452.238L486.743 443.8L484.253 443.465L483.77 446.03C483.547 445.633 483.274 445.249 482.952 444.878C482.63 444.506 482.246 444.178 481.799 443.893C481.353 443.608 480.845 443.378 480.275 443.205C479.705 443.031 479.061 442.945 478.342 442.945C477.302 442.945 476.267 443.18 475.239 443.651C474.21 444.122 473.287 444.772 472.469 445.602C471.651 446.433 470.995 447.412 470.499 448.539C470.004 449.667 469.756 450.887 469.756 452.201C469.756 453.217 469.929 454.14 470.276 454.97C470.623 455.8 471.1 456.512 471.707 457.107C472.314 457.702 473.021 458.16 473.826 458.483C474.631 458.805 475.493 458.966 476.409 458.966C477.797 458.966 478.987 458.662 479.978 458.055C480.969 457.448 481.824 456.711 482.543 455.843C482.89 456.785 483.503 457.541 484.383 458.111C485.263 458.681 486.384 458.966 487.747 458.966C488.59 458.966 489.432 458.786 490.275 458.427C491.117 458.067 491.861 457.516 492.505 456.773C493.149 456.029 493.676 455.088 494.085 453.948C494.494 452.808 494.698 451.445 494.698 449.859ZM483.063 449.97C483.063 450.838 482.896 451.674 482.561 452.479C482.227 453.285 481.781 453.997 481.223 454.617C480.666 455.236 480.015 455.732 479.272 456.104C478.528 456.475 477.76 456.661 476.967 456.661C475.629 456.661 474.539 456.258 473.696 455.453C472.853 454.648 472.432 453.502 472.432 452.015C472.432 451.048 472.606 450.156 472.952 449.338C473.299 448.52 473.752 447.808 474.309 447.201C474.867 446.594 475.511 446.117 476.242 445.77C476.973 445.423 477.735 445.249 478.528 445.249C479.173 445.249 479.774 445.367 480.331 445.602C480.889 445.838 481.372 446.166 481.781 446.588C482.19 447.009 482.506 447.511 482.729 448.093C482.952 448.675 483.063 449.301 483.063 449.97Z" fill="#000000" fill-rule="nonzero" opacity="1" stroke="none"></path>
<path d="M520.124 457.256L512.689 435.585L509.493 435.585L518.786 461.791L521.239 461.791L528.413 440.677L535.55 461.791L538.041 461.791L547.334 435.585L544.249 435.585L536.814 457.256L529.677 435.51L527.261 435.51L520.124 457.256Z" fill="#000000" fill-rule="nonzero" opacity="1" stroke="none"></path>
<path d="M554.954 438.187L554.954 435.027L551.683 435.027L551.683 438.187L554.954 438.187ZM554.731 461.605L554.731 442.387L551.869 442.387L551.869 461.605L554.731 461.605Z" fill="#000000" fill-rule="nonzero" opacity="1" stroke="none"></path>
<path d="M564.507 461.605L564.507 434.469L561.645 434.469L561.645 461.605L564.507 461.605Z" fill="#000000" fill-rule="nonzero" opacity="1" stroke="none"></path>
<path d="M589.45 461.605L589.45 434.469L586.588 434.469L586.588 446.067C586.216 445.522 585.788 445.002 585.305 444.506C584.822 444.01 584.283 443.577 583.688 443.205C583.093 442.833 582.424 442.536 581.681 442.313C580.937 442.09 580.12 441.978 579.227 441.978C578.063 441.978 576.935 442.207 575.845 442.666C574.754 443.124 573.776 443.781 572.908 444.636C572.041 445.491 571.347 446.538 570.827 447.777C570.306 449.016 570.046 450.429 570.046 452.015C570.046 453.601 570.306 455.013 570.827 456.252C571.347 457.491 572.041 458.538 572.908 459.393C573.776 460.248 574.754 460.899 575.845 461.345C576.935 461.791 578.063 462.014 579.227 462.014C580.12 462.014 580.931 461.902 581.662 461.679C582.393 461.456 583.056 461.147 583.651 460.75C584.246 460.354 584.785 459.895 585.268 459.375C585.751 458.854 586.191 458.309 586.588 457.739L586.588 461.605L589.45 461.605ZM586.699 451.977C586.699 453.093 586.507 454.115 586.123 455.044C585.739 455.973 585.218 456.76 584.562 457.405C583.905 458.049 583.162 458.551 582.331 458.91C581.501 459.269 580.64 459.449 579.748 459.449C578.831 459.449 577.964 459.276 577.146 458.929C576.328 458.582 575.609 458.08 574.99 457.423C574.37 456.766 573.881 455.98 573.522 455.063C573.162 454.146 572.983 453.117 572.983 451.977C572.983 450.813 573.162 449.766 573.522 448.836C573.881 447.907 574.364 447.127 574.971 446.495C575.578 445.863 576.291 445.379 577.109 445.045C577.926 444.71 578.806 444.543 579.748 444.543C580.64 444.543 581.501 444.723 582.331 445.082C583.162 445.441 583.905 445.943 584.562 446.588C585.218 447.232 585.739 448.012 586.123 448.929C586.507 449.846 586.699 450.862 586.699 451.977Z" fill="#000000" fill-rule="nonzero" opacity="1" stroke="none"></path>
<path d="M597.553 453.055L612.794 453.055C612.819 452.882 612.831 452.721 612.831 452.572C612.831 452.424 612.831 452.287 612.831 452.163C612.831 450.751 612.633 449.425 612.236 448.186C611.84 446.947 611.257 445.869 610.489 444.952C609.721 444.035 608.779 443.31 607.664 442.777C606.549 442.245 605.285 441.978 603.873 441.978C602.534 441.978 601.301 442.238 600.174 442.759C599.046 443.279 598.074 443.992 597.256 444.896C596.438 445.801 595.8 446.866 595.342 448.093C594.883 449.32 594.654 450.627 594.654 452.015C594.654 453.502 594.908 454.865 595.416 456.104C595.924 457.343 596.612 458.402 597.479 459.282C598.346 460.162 599.362 460.843 600.527 461.326C601.692 461.809 602.931 462.051 604.244 462.051C606.078 462.051 607.615 461.723 608.854 461.066C610.093 460.409 611.195 459.536 612.162 458.445L610.378 456.847C609.585 457.665 608.711 458.322 607.757 458.817C606.803 459.313 605.657 459.561 604.319 459.561C603.476 459.561 602.671 459.418 601.902 459.133C601.134 458.848 600.44 458.427 599.821 457.869C599.201 457.312 598.693 456.63 598.297 455.825C597.9 455.019 597.652 454.096 597.553 453.055ZM597.553 450.937C597.652 449.995 597.875 449.128 598.222 448.335C598.569 447.542 599.015 446.854 599.561 446.272C600.106 445.689 600.738 445.231 601.456 444.896C602.175 444.562 602.956 444.394 603.798 444.394C604.765 444.394 605.613 444.574 606.344 444.933C607.076 445.293 607.695 445.77 608.203 446.364C608.711 446.959 609.108 447.653 609.393 448.446C609.678 449.239 609.857 450.069 609.932 450.937L597.553 450.937Z" fill="#000000" fill-rule="nonzero" opacity="1" stroke="none"></path>
<path d="M620.711 453.948C620.711 452.51 620.91 451.24 621.306 450.137C621.703 449.035 622.248 448.112 622.942 447.368C623.636 446.625 624.447 446.067 625.377 445.695C626.306 445.324 627.291 445.138 628.332 445.138L628.555 445.138L628.555 442.053C627.638 442.028 626.783 442.139 625.99 442.387C625.197 442.635 624.466 443 623.797 443.484C623.128 443.967 622.533 444.543 622.013 445.212C621.492 445.881 621.058 446.612 620.711 447.405L620.711 442.387L617.849 442.387L617.849 461.605L620.711 461.605L620.711 453.948Z" fill="#000000" fill-rule="nonzero" opacity="1" stroke="none"></path>
</g>
<g opacity="1">
<path d="M288.936 482.411L288.416 481.593C286.218 482.832 284.525 484.344 283.335 486.129C282.146 487.913 281.551 489.937 281.551 492.2C281.551 494.464 282.146 496.488 283.335 498.272C284.525 500.056 286.218 501.568 288.416 502.807L288.936 501.989C286.97 500.783 285.462 499.371 284.413 497.752C283.364 496.132 282.839 494.282 282.839 492.2C282.839 490.119 283.364 488.268 284.413 486.649C285.462 485.03 286.97 483.617 288.936 482.411Z" fill="#000000" fill-rule="nonzero" opacity="1" stroke="none"></path>
<path d="M307.151 499.313L301.426 491.903C302.153 491.804 302.827 491.626 303.446 491.37C304.066 491.114 304.603 490.779 305.057 490.366C305.511 489.953 305.867 489.462 306.123 488.892C306.379 488.322 306.507 487.673 306.507 486.946L306.507 486.897C306.507 486.17 306.358 485.505 306.061 484.902C305.763 484.299 305.346 483.778 304.809 483.34C304.272 482.903 303.624 482.564 302.864 482.324C302.104 482.085 301.253 481.965 300.311 481.965L293.025 481.965L293.025 499.313L294.314 499.313L294.314 492.126L299.989 492.126L305.516 499.313L307.151 499.313ZM305.218 486.996C305.218 487.624 305.09 488.181 304.834 488.669C304.578 489.156 304.227 489.569 303.781 489.908C303.335 490.247 302.802 490.507 302.182 490.689C301.563 490.87 300.889 490.961 300.163 490.961L294.314 490.961L294.314 483.155L300.237 483.155C301.823 483.155 303.05 483.493 303.917 484.171C304.785 484.848 305.218 485.773 305.218 486.946L305.218 486.996Z" fill="#000000" fill-rule="nonzero" opacity="1" stroke="none"></path>
<path d="M322.541 492.993L322.541 492.944C322.541 492.052 322.38 491.209 322.058 490.416C321.736 489.623 321.286 488.929 320.707 488.334C320.129 487.739 319.448 487.264 318.663 486.909C317.878 486.554 317.015 486.376 316.073 486.376C315.131 486.376 314.264 486.554 313.471 486.909C312.678 487.264 311.988 487.748 311.401 488.359C310.815 488.97 310.361 489.672 310.038 490.465C309.716 491.259 309.555 492.101 309.555 492.993L309.555 493.043C309.555 493.935 309.716 494.778 310.038 495.571C310.361 496.364 310.811 497.058 311.389 497.652C311.967 498.247 312.649 498.722 313.434 499.077C314.218 499.433 315.082 499.61 316.023 499.61C316.965 499.61 317.833 499.433 318.626 499.077C319.419 498.722 320.108 498.239 320.695 497.628C321.281 497.016 321.736 496.314 322.058 495.521C322.38 494.728 322.541 493.885 322.541 492.993ZM321.228 493.043C321.228 493.786 321.1 494.489 320.844 495.149C320.588 495.81 320.232 496.384 319.778 496.872C319.324 497.359 318.778 497.747 318.142 498.037C317.506 498.326 316.816 498.47 316.073 498.47C315.346 498.47 314.665 498.33 314.028 498.049C313.392 497.768 312.839 497.38 312.368 496.884C311.897 496.389 311.53 495.806 311.265 495.137C311.001 494.468 310.869 493.753 310.869 492.993L310.869 492.944C310.869 492.2 310.997 491.498 311.253 490.837C311.509 490.176 311.864 489.602 312.318 489.115C312.773 488.627 313.318 488.239 313.954 487.95C314.59 487.661 315.28 487.516 316.023 487.516C316.75 487.516 317.432 487.657 318.068 487.938C318.704 488.219 319.258 488.607 319.728 489.102C320.199 489.598 320.567 490.18 320.831 490.85C321.096 491.519 321.228 492.233 321.228 492.993L321.228 493.043Z" fill="#000000" fill-rule="nonzero" opacity="1" stroke="none"></path>
<path d="M338.402 492.993L338.402 492.944C338.402 492.052 338.241 491.209 337.919 490.416C337.597 489.623 337.146 488.929 336.568 488.334C335.99 487.739 335.308 487.264 334.524 486.909C333.739 486.554 332.876 486.376 331.934 486.376C330.992 486.376 330.125 486.554 329.332 486.909C328.539 487.264 327.849 487.748 327.262 488.359C326.676 488.97 326.221 489.672 325.899 490.465C325.577 491.259 325.416 492.101 325.416 492.993L325.416 493.043C325.416 493.935 325.577 494.778 325.899 495.571C326.221 496.364 326.672 497.058 327.25 497.652C327.828 498.247 328.51 498.722 329.295 499.077C330.079 499.433 330.943 499.61 331.884 499.61C332.826 499.61 333.693 499.433 334.486 499.077C335.28 498.722 335.969 498.239 336.556 497.628C337.142 497.016 337.597 496.314 337.919 495.521C338.241 494.728 338.402 493.885 338.402 492.993ZM337.089 493.043C337.089 493.786 336.961 494.489 336.705 495.149C336.448 495.81 336.093 496.384 335.639 496.872C335.185 497.359 334.639 497.747 334.003 498.037C333.367 498.326 332.677 498.47 331.934 498.47C331.207 498.47 330.525 498.33 329.889 498.049C329.253 497.768 328.7 497.38 328.229 496.884C327.758 496.389 327.39 495.806 327.126 495.137C326.862 494.468 326.73 493.753 326.73 492.993L326.73 492.944C326.73 492.2 326.858 491.498 327.114 490.837C327.37 490.176 327.725 489.602 328.179 489.115C328.634 488.627 329.179 488.239 329.815 487.95C330.451 487.661 331.141 487.516 331.884 487.516C332.611 487.516 333.293 487.657 333.929 487.938C334.565 488.219 335.118 488.607 335.589 489.102C336.06 489.598 336.428 490.18 336.692 490.85C336.956 491.519 337.089 492.233 337.089 492.993L337.089 493.043Z" fill="#000000" fill-rule="nonzero" opacity="1" stroke="none"></path>
<path d="M361.252 499.313L361.252 491.655C361.252 490.862 361.14 490.139 360.917 489.487C360.694 488.834 360.372 488.28 359.951 487.826C359.529 487.372 359.017 487.017 358.414 486.76C357.811 486.504 357.138 486.376 356.394 486.376C355.8 486.376 355.267 486.451 354.796 486.599C354.325 486.748 353.904 486.95 353.532 487.207C353.16 487.463 352.834 487.756 352.553 488.086C352.272 488.417 352.033 488.755 351.834 489.102C351.653 488.739 351.434 488.392 351.178 488.062C350.921 487.731 350.62 487.442 350.273 487.194C349.926 486.946 349.525 486.748 349.071 486.599C348.617 486.451 348.117 486.376 347.572 486.376C347.01 486.376 346.51 486.447 346.072 486.587C345.635 486.727 345.25 486.917 344.92 487.157C344.59 487.397 344.296 487.669 344.04 487.975C343.784 488.28 343.557 488.599 343.359 488.929L343.359 486.674L342.144 486.674L342.144 499.313L343.359 499.313L343.359 492.027C343.359 491.382 343.462 490.788 343.668 490.242C343.875 489.697 344.16 489.218 344.523 488.805C344.887 488.392 345.316 488.07 345.812 487.839C346.308 487.607 346.836 487.492 347.398 487.492C348.538 487.492 349.439 487.867 350.1 488.619C350.76 489.371 351.091 490.408 351.091 491.729L351.091 499.313L352.305 499.313L352.305 491.952C352.305 491.242 352.413 490.61 352.627 490.057C352.842 489.503 353.131 489.036 353.495 488.656C353.858 488.276 354.284 487.987 354.771 487.789C355.258 487.591 355.766 487.492 356.295 487.492C357.468 487.492 358.385 487.867 359.046 488.619C359.707 489.371 360.037 490.432 360.037 491.804L360.037 499.313L361.252 499.313Z" fill="#000000" fill-rule="nonzero" opacity="1" stroke="none"></path>
<path d="M378.426 482.857C378.938 482.857 379.434 482.944 379.913 483.117C380.392 483.291 380.809 483.539 381.165 483.861C381.52 484.183 381.805 484.575 382.02 485.038C382.234 485.501 382.342 486.013 382.342 486.575C382.342 487.037 382.276 487.483 382.143 487.913C382.011 488.342 381.796 488.789 381.499 489.251C381.202 489.714 380.805 490.209 380.31 490.738C379.814 491.267 379.211 491.853 378.5 492.498L372.032 498.346L372.032 499.313L383.878 499.313L383.878 498.074L374.064 498.074L379.368 493.266C380.128 492.572 380.78 491.94 381.326 491.37C381.871 490.8 382.321 490.255 382.676 489.734C383.031 489.214 383.292 488.694 383.457 488.173C383.622 487.653 383.705 487.095 383.705 486.5C383.705 485.823 383.573 485.191 383.308 484.604C383.044 484.018 382.685 483.51 382.23 483.08C381.776 482.651 381.235 482.316 380.607 482.077C379.979 481.837 379.293 481.717 378.55 481.717C377.79 481.717 377.113 481.804 376.518 481.977C375.923 482.151 375.382 482.399 374.895 482.721C374.407 483.043 373.961 483.431 373.556 483.886C373.151 484.34 372.759 484.856 372.379 485.435L373.346 486.079C374.073 485.038 374.824 484.241 375.601 483.687C376.377 483.134 377.319 482.857 378.426 482.857Z" fill="#000000" fill-rule="nonzero" opacity="1" stroke="none"></path>
<path d="M401.449 490.614C401.449 489.408 401.284 488.264 400.953 487.182C400.623 486.1 400.148 485.15 399.528 484.332C398.909 483.514 398.157 482.865 397.273 482.386C396.389 481.907 395.394 481.668 394.287 481.668C393.18 481.668 392.185 481.911 391.301 482.399C390.417 482.886 389.661 483.543 389.033 484.369C388.405 485.195 387.922 486.149 387.583 487.231C387.245 488.314 387.075 489.458 387.075 490.664C387.075 491.87 387.24 493.014 387.571 494.096C387.901 495.178 388.376 496.128 388.996 496.946C389.615 497.764 390.367 498.412 391.251 498.892C392.135 499.371 393.13 499.61 394.237 499.61C395.344 499.61 396.34 499.367 397.224 498.879C398.108 498.392 398.863 497.735 399.491 496.909C400.119 496.083 400.602 495.129 400.941 494.047C401.28 492.964 401.449 491.82 401.449 490.614ZM400.111 490.664C400.111 491.688 399.975 492.667 399.702 493.6C399.429 494.534 399.041 495.36 398.537 496.079C398.033 496.797 397.422 497.372 396.703 497.801C395.985 498.231 395.179 498.445 394.287 498.445C393.395 498.445 392.585 498.227 391.858 497.789C391.131 497.351 390.512 496.773 390 496.054C389.487 495.335 389.095 494.505 388.822 493.563C388.55 492.622 388.413 491.639 388.413 490.614C388.413 489.606 388.55 488.632 388.822 487.69C389.095 486.748 389.483 485.918 389.987 485.199C390.491 484.48 391.102 483.906 391.821 483.477C392.54 483.047 393.345 482.832 394.237 482.832C395.13 482.832 395.939 483.051 396.666 483.489C397.393 483.927 398.013 484.505 398.525 485.224C399.037 485.943 399.429 486.777 399.702 487.727C399.975 488.677 400.111 489.656 400.111 490.664Z" fill="#000000" fill-rule="nonzero" opacity="1" stroke="none"></path>
<path d="M417.31 494.654C417.31 494.142 417.211 493.662 417.013 493.216C416.814 492.77 416.546 492.365 416.207 492.002C415.868 491.639 415.464 491.316 414.993 491.035C414.522 490.755 414.014 490.523 413.469 490.342C413.898 490.176 414.307 489.966 414.695 489.71C415.084 489.454 415.426 489.16 415.724 488.83C416.021 488.499 416.261 488.124 416.443 487.702C416.624 487.281 416.715 486.806 416.715 486.277C416.715 485.6 416.55 484.98 416.22 484.419C415.889 483.857 415.451 483.378 414.906 482.981C414.361 482.585 413.737 482.275 413.035 482.052C412.333 481.829 411.61 481.717 410.866 481.717C410.123 481.717 409.4 481.829 408.698 482.052C407.996 482.275 407.372 482.585 406.827 482.981C406.282 483.378 405.844 483.857 405.513 484.419C405.183 484.98 405.018 485.6 405.018 486.277C405.018 486.806 405.109 487.281 405.29 487.702C405.472 488.124 405.712 488.499 406.009 488.83C406.306 489.16 406.649 489.454 407.038 489.71C407.426 489.966 407.835 490.176 408.264 490.342C407.719 490.523 407.211 490.755 406.74 491.035C406.269 491.316 405.865 491.639 405.526 492.002C405.187 492.365 404.919 492.77 404.72 493.216C404.522 493.662 404.423 494.142 404.423 494.654C404.423 495.381 404.588 496.046 404.919 496.649C405.249 497.252 405.703 497.768 406.282 498.198C406.86 498.627 407.541 498.962 408.326 499.201C409.111 499.441 409.958 499.561 410.866 499.561C411.775 499.561 412.622 499.441 413.407 499.201C414.191 498.962 414.873 498.627 415.451 498.198C416.03 497.768 416.484 497.252 416.814 496.649C417.145 496.046 417.31 495.381 417.31 494.654ZM415.377 486.277C415.377 486.822 415.257 487.314 415.018 487.752C414.778 488.19 414.452 488.565 414.039 488.879C413.626 489.193 413.146 489.437 412.601 489.61C412.056 489.784 411.478 489.871 410.866 489.871C410.255 489.871 409.677 489.784 409.132 489.61C408.586 489.437 408.107 489.193 407.694 488.879C407.281 488.565 406.955 488.19 406.715 487.752C406.476 487.314 406.356 486.822 406.356 486.277C406.356 485.782 406.472 485.327 406.703 484.914C406.934 484.501 407.252 484.142 407.657 483.836C408.062 483.53 408.541 483.295 409.095 483.13C409.648 482.965 410.239 482.882 410.866 482.882C411.494 482.882 412.085 482.965 412.638 483.13C413.192 483.295 413.671 483.53 414.076 483.836C414.481 484.142 414.799 484.501 415.03 484.914C415.261 485.327 415.377 485.782 415.377 486.277ZM415.972 494.703C415.972 495.199 415.856 495.67 415.625 496.116C415.393 496.562 415.059 496.954 414.621 497.293C414.183 497.632 413.646 497.9 413.01 498.099C412.374 498.297 411.66 498.396 410.866 498.396C410.073 498.396 409.359 498.297 408.723 498.099C408.087 497.9 407.55 497.632 407.112 497.293C406.674 496.954 406.34 496.562 406.108 496.116C405.877 495.67 405.761 495.199 405.761 494.703C405.761 494.158 405.893 493.658 406.158 493.204C406.422 492.75 406.786 492.353 407.248 492.014C407.711 491.676 408.252 491.415 408.871 491.234C409.491 491.052 410.156 490.961 410.866 490.961C411.577 490.961 412.242 491.052 412.861 491.234C413.481 491.415 414.022 491.676 414.485 492.014C414.947 492.353 415.311 492.75 415.575 493.204C415.84 493.658 415.972 494.158 415.972 494.703Z" fill="#000000" fill-rule="nonzero" opacity="1" stroke="none"></path>
<path d="M419.986 501.345L420.284 501.965C421.027 501.684 421.556 501.32 421.87 500.874C422.184 500.428 422.341 499.817 422.341 499.04L422.341 497.206L420.705 497.206L420.705 499.313L421.374 499.313C421.407 499.792 421.316 500.18 421.102 500.478C420.887 500.775 420.515 501.064 419.986 501.345Z" fill="#000000" fill-rule="nonzero" opacity="1" stroke="none"></path>
<path d="M457.879 481.965L456.541 481.965L451.089 497.405L446.008 481.915L445.017 481.915L439.936 497.405L434.484 481.965L433.047 481.965L439.342 499.437L440.383 499.437L445.463 484.369L450.543 499.437L451.584 499.437L457.879 481.965Z" fill="#000000" fill-rule="nonzero" opacity="1" stroke="none"></path>
<path d="M462.588 483.378L462.588 481.717L461.076 481.717L461.076 483.378L462.588 483.378ZM462.439 499.313L462.439 486.674L461.225 486.674L461.225 499.313L462.439 499.313Z" fill="#000000" fill-rule="nonzero" opacity="1" stroke="none"></path>
<path d="M468.61 499.313L468.61 481.222L467.396 481.222L467.396 499.313L468.61 499.313Z" fill="#000000" fill-rule="nonzero" opacity="1" stroke="none"></path>
<path d="M485.14 499.313L485.14 481.222L483.926 481.222L483.926 489.4C483.661 489.003 483.36 488.623 483.021 488.26C482.682 487.896 482.302 487.574 481.881 487.293C481.46 487.012 480.985 486.789 480.456 486.624C479.927 486.459 479.349 486.376 478.721 486.376C477.961 486.376 477.214 486.529 476.478 486.835C475.743 487.14 475.086 487.578 474.508 488.148C473.93 488.718 473.463 489.412 473.108 490.23C472.753 491.048 472.575 491.969 472.575 492.993L472.575 493.043C472.575 494.067 472.753 494.988 473.108 495.806C473.463 496.624 473.93 497.314 474.508 497.875C475.086 498.437 475.743 498.867 476.478 499.164C477.214 499.462 477.961 499.61 478.721 499.61C479.349 499.61 479.923 499.524 480.444 499.35C480.964 499.177 481.435 498.949 481.856 498.669C482.278 498.388 482.658 498.057 482.996 497.677C483.335 497.297 483.645 496.901 483.926 496.488L483.926 499.313L485.14 499.313ZM484 493.018C484 493.828 483.855 494.563 483.566 495.224C483.277 495.885 482.893 496.455 482.414 496.934C481.935 497.413 481.385 497.785 480.766 498.049C480.146 498.313 479.506 498.445 478.845 498.445C478.184 498.445 477.552 498.317 476.949 498.061C476.346 497.805 475.818 497.442 475.363 496.971C474.909 496.5 474.55 495.926 474.285 495.249C474.021 494.571 473.889 493.819 473.889 492.993L473.889 492.944C473.889 492.101 474.017 491.345 474.273 490.676C474.529 490.007 474.88 489.441 475.326 488.979C475.772 488.516 476.297 488.161 476.9 487.913C477.503 487.665 478.151 487.541 478.845 487.541C479.506 487.541 480.146 487.673 480.766 487.938C481.385 488.202 481.935 488.57 482.414 489.04C482.893 489.511 483.277 490.081 483.566 490.75C483.855 491.42 484 492.159 484 492.969L484 493.018Z" fill="#000000" fill-rule="nonzero" opacity="1" stroke="none"></path>
<path d="M490.171 493.489L500.654 493.489C500.67 493.39 500.679 493.315 500.679 493.266C500.679 493.2 500.679 493.125 500.679 493.043L500.679 492.993C500.679 492.052 500.542 491.18 500.27 490.379C499.997 489.577 499.609 488.879 499.105 488.285C498.601 487.69 497.994 487.223 497.283 486.884C496.573 486.546 495.772 486.376 494.88 486.376C494.02 486.376 493.227 486.55 492.5 486.897C491.773 487.244 491.141 487.715 490.605 488.309C490.068 488.904 489.646 489.602 489.341 490.404C489.035 491.205 488.882 492.06 488.882 492.969L488.882 493.018C488.882 494.009 489.047 494.91 489.378 495.719C489.708 496.529 490.158 497.223 490.728 497.801C491.298 498.379 491.959 498.825 492.711 499.139C493.463 499.453 494.252 499.61 495.078 499.61C496.284 499.61 497.296 499.387 498.114 498.941C498.931 498.495 499.663 497.925 500.307 497.231L499.464 496.488C498.936 497.049 498.328 497.52 497.643 497.9C496.957 498.28 496.119 498.47 495.127 498.47C494.5 498.47 493.901 498.359 493.331 498.136C492.761 497.913 492.253 497.586 491.806 497.157C491.36 496.727 490.989 496.207 490.691 495.595C490.394 494.984 490.22 494.282 490.171 493.489ZM490.171 492.399C490.22 491.705 490.377 491.056 490.642 490.453C490.906 489.85 491.241 489.33 491.645 488.892C492.05 488.454 492.525 488.111 493.07 487.863C493.616 487.615 494.202 487.492 494.83 487.492C495.557 487.492 496.193 487.628 496.738 487.9C497.283 488.173 497.742 488.537 498.114 488.991C498.485 489.445 498.775 489.966 498.981 490.552C499.188 491.139 499.316 491.754 499.365 492.399L490.171 492.399Z" fill="#000000" fill-rule="nonzero" opacity="1" stroke="none"></path>
<path d="M511.038 487.814L511.038 486.475C510.41 486.459 509.811 486.537 509.241 486.711C508.671 486.884 508.146 487.14 507.667 487.479C507.188 487.818 506.759 488.227 506.379 488.706C505.999 489.185 505.685 489.705 505.437 490.267L505.437 486.674L504.223 486.674L504.223 499.313L505.437 499.313L505.437 494.133C505.437 493.109 505.586 492.204 505.883 491.42C506.18 490.635 506.581 489.974 507.085 489.437C507.589 488.9 508.171 488.495 508.832 488.223C509.493 487.95 510.187 487.814 510.914 487.814L511.038 487.814Z" fill="#000000" fill-rule="nonzero" opacity="1" stroke="none"></path>
<path d="M535.523 499.313L535.523 481.965L534.234 481.965L534.234 489.995L523.132 489.995L523.132 481.965L521.843 481.965L521.843 499.313L523.132 499.313L523.132 491.184L534.234 491.184L534.234 499.313L535.523 499.313Z" fill="#000000" fill-rule="nonzero" opacity="1" stroke="none"></path>
<path d="M550.269 499.313L550.269 491.432C550.269 489.78 549.798 488.541 548.856 487.715C547.914 486.889 546.626 486.475 544.99 486.475C544.114 486.475 543.321 486.575 542.611 486.773C541.9 486.971 541.198 487.235 540.504 487.566L540.95 488.632C541.529 488.334 542.14 488.09 542.784 487.9C543.429 487.71 544.139 487.615 544.916 487.615C546.221 487.615 547.241 487.938 547.976 488.582C548.711 489.226 549.079 490.193 549.079 491.482L549.079 492.027C548.468 491.862 547.84 491.729 547.196 491.63C546.551 491.531 545.783 491.482 544.891 491.482C544.065 491.482 543.313 491.572 542.636 491.754C541.958 491.936 541.38 492.2 540.901 492.547C540.422 492.894 540.046 493.324 539.773 493.836C539.501 494.348 539.364 494.935 539.364 495.595L539.364 495.645C539.364 496.306 539.509 496.884 539.798 497.38C540.087 497.875 540.463 498.289 540.926 498.619C541.388 498.949 541.909 499.197 542.487 499.362C543.065 499.528 543.652 499.61 544.246 499.61C544.841 499.61 545.391 499.54 545.895 499.4C546.398 499.259 546.849 499.077 547.245 498.854C547.642 498.631 547.993 498.375 548.298 498.086C548.604 497.797 548.864 497.504 549.079 497.206L549.079 499.313L550.269 499.313ZM549.104 494.579C549.104 495.158 548.976 495.686 548.72 496.165C548.464 496.645 548.117 497.054 547.679 497.392C547.241 497.731 546.733 497.995 546.155 498.185C545.576 498.375 544.965 498.47 544.321 498.47C543.842 498.47 543.379 498.404 542.933 498.272C542.487 498.14 542.095 497.95 541.756 497.702C541.417 497.454 541.149 497.153 540.95 496.797C540.752 496.442 540.653 496.033 540.653 495.571L540.653 495.521C540.653 494.629 541.012 493.914 541.731 493.377C542.45 492.84 543.478 492.572 544.816 492.572C545.725 492.572 546.535 492.634 547.245 492.758C547.956 492.882 548.575 493.01 549.104 493.142L549.104 494.579Z" fill="#000000" fill-rule="nonzero" opacity="1" stroke="none"></path>
<path d="M556.018 499.313L556.018 481.222L554.804 481.222L554.804 499.313L556.018 499.313Z" fill="#000000" fill-rule="nonzero" opacity="1" stroke="none"></path>
<path d="M562.189 499.313L562.189 481.222L560.975 481.222L560.975 499.313L562.189 499.313Z" fill="#000000" fill-rule="nonzero" opacity="1" stroke="none"></path>
<path d="M566.179 482.411C568.145 483.617 569.653 485.03 570.702 486.649C571.751 488.268 572.276 490.119 572.276 492.2C572.276 494.282 571.751 496.132 570.702 497.752C569.653 499.371 568.145 500.783 566.179 501.989L566.7 502.807C568.897 501.568 570.59 500.056 571.78 498.272C572.97 496.488 573.564 494.464 573.564 492.2C573.564 489.937 572.97 487.913 571.78 486.129C570.59 484.344 568.897 482.832 566.7 481.593L566.179 482.411Z" fill="#000000" fill-rule="nonzero" opacity="1" stroke="none"></path>
</g>
</g>
</svg>
