<?xml version="1.0" encoding="UTF-8"?>
<svg xmlns="http://www.w3.org/2000/svg" id="Layer_1" viewBox="0 0 432 180">
  <defs>
    <style>.cls-1{fill:#231f20;}</style>
  </defs>
  <g>
    <path class="cls-1" d="M251.11,97.83c-.98-.46-1.59-1.04-2.01-1.46l-13.81-13.82c.95-.26,2.94-.98,4.86-1.6,3.24-1.18,5.03-2.35,7.45-4.83,7.05-7.65,6.88-20.94-1.87-26.64-3.23-2.19-5.7-2.82-9.66-2.8h-30.05s0,2.8,0,2.8c.98,.08,1.59,.21,2.5,.48,1.1,.36,1.92,.77,2.58,1.71,.74,1.06,.84,1.6,.86,2.84l-.02,38.75c-.02,1.24-.09,1.78-.83,2.84-.66,.95-1.48,1.35-2.58,1.71-.91,.28-1.54,.35-2.52,.43v2.8h20.49s.03-2.81,.03-2.81c-.98-.08-1.61-.15-2.52-.43-1.1-.37-1.92-.77-2.58-1.71-.74-1.06-.84-1.6-.86-2.84v-9.81s4.38,0,4.38,0l17.76,17.61h14.96l.02-2.81h-2.49c-1.42,0-2.81,.16-4.09-.41Zm-30.62-18.26v-29h9.97c5.79-.02,9.85,2.76,12.19,8.11,1.2,2.64,1.41,4.47,1.07,7.33-.57,4.31-2.53,7.06-5.93,9.74-3.54,2.96-6.78,3.83-11.39,3.82,0,.05-3.43-.04-5.91,0Z"></path>
    <path class="cls-1" d="M146.93,66.77c3.25-1.31,5.04-3.45,5.92-6.86,.62-2.64,.44-4.41-.62-6.86-1.64-3.66-4.45-5.14-8.41-6.08-1.33-.26-2.14-.25-3.58-.31h-27.73v2.8c.98,.08,1.61,.15,2.52,.43,1.1,.36,1.92,.77,2.58,1.71,.74,1.06,.8,1.6,.83,2.84l.02,38.75c-.02,1.24-.12,1.78-.86,2.84-.66,.95-1.48,1.35-2.58,1.71-.91,.28-1.54,.38-2.52,.46l.02,2.82h14.8s15.58,0,15.58,0c3.96,.01,6.43-.62,9.66-2.8,8.75-5.71,8.92-19,1.87-26.64-2.42-2.48-4.24-3.65-7.48-4.83Zm-19.63-16.2h12.08c1.62-.03,2.68,.22,4.05,1.09,2.04,1.5,2.84,3.31,2.8,5.76,.04,4.18-3.72,6.92-7.79,6.97-1.12,0-1.73,.02-2.8,0h-8.34v-13.83Zm22.16,38.48c-2.34,5.35-6.39,8.13-12.19,8.11h-9.97v-29c2.47,.04,5.91-.05,5.91,0,4.61,0,7.84,.87,11.39,3.82,3.41,2.67,5.37,5.42,5.93,9.74,.34,2.86,.13,4.69-1.07,7.33Z"></path>
    <path class="cls-1" d="M82.51,102.76c15.92-.04,28.88-13.14,28.83-29.29,.06-16.07-12.91-29.17-28.83-29.14-15.98-.03-28.95,13.06-28.98,29.14,.03,16.15,13,29.25,28.98,29.29Zm0-54.69c11.19-.06,19.27,11.37,19.21,25.4,.06,14.05-8.02,25.46-19.21,25.4-11.26,.07-19.33-11.35-19.36-25.4,.03-14.03,8.11-25.46,19.36-25.4Z"></path>
    <path class="cls-1" d="M320.84,98.24c-.98-.08-1.61-.15-2.52-.43-1.1-.36-1.92-.77-2.58-1.71-.74-1.06-.84-1.6-.86-2.84V54.46c.02-1.24,.12-1.78,.86-2.84,.66-.95,1.47-1.35,2.58-1.71,.91-.28,1.54-.35,2.52-.43v-2.8h-20.44v2.8c.97,.08,1.58,.16,2.49,.44,1.1,.36,1.92,.77,2.58,1.71,.74,1.06,.87,1.6,.89,2.84l-.03,38.8c-.02,1.24-.12,1.78-.86,2.84-.66,.95-1.48,1.35-2.58,1.71-.91,.28-1.54,.35-2.52,.43v2.8h20.47s0-2.8,0-2.8Z"></path>
    <path class="cls-1" d="M326.14,49.9c1.1,.36,1.92,.77,2.58,1.71,.74,1.06,.84,1.6,.86,2.84v38.71c-.01,1.24-.1,1.87-.84,2.93-.66,.95-1.48,1.35-2.58,1.71-.91,.28-1.54,.35-2.52,.43v2.8h16.14s.01-2.8,.01-2.8c-.98-.08-1.61-.15-2.52-.43-1.1-.36-1.92-.77-2.58-1.71-.74-1.06-.84-1.6-.86-2.84l-.05-35.27,33.56,27.77v7.48c-.02,1.24-.06,1.8-.8,2.86-.66,.95-1.48,1.35-2.58,1.71-.91,.28-1.54,.35-2.52,.43v2.8h16.15v-2.8c-.98-.08-1.61-.15-2.52-.43-1.1-.36-1.92-.77-2.58-1.71-.74-1.06-.82-1.6-.84-2.84l-.02-38.81c.02-1.24,.15-1.78,.89-2.84,.66-.94,1.48-1.35,2.58-1.71,.91-.28,1.51-.35,2.49-.42v-2.8h-16.23l.02,2.79c.98,.08,1.61,.15,2.52,.43,1.1,.37,2.02,.77,2.68,1.71,.74,1.06,.74,1.6,.76,2.84v20.21l-34.05-27.99h-9.69v2.8c.98,.08,1.61,.15,2.52,.43Z"></path>
    <path class="cls-1" d="M264.69,51.61c.74,1.06,.84,1.6,.86,2.84l.03,38.79c-.02,1.24-.12,1.78-.86,2.84-.66,.95-1.48,1.35-2.58,1.71-.91,.28-1.54,.35-2.52,.43l.02,2.81h38.79s0-11.43,0-11.43h-2.13s-.43,1.79-1.03,2.95c-.69,1.34-1.3,1.99-2.45,2.82-1.84,1.34-3.27,1.73-5.45,1.71h-13.26V54.46c.03-1.24,.12-1.78,.86-2.84,.66-.95,1.47-1.35,2.58-1.71,.91-.28,1.54-.35,2.52-.43v-2.8h-20.44v2.8c.97,.08,1.58,.16,2.49,.44,1.1,.36,1.92,.77,2.58,1.71Z"></path>
    <path class="cls-1" d="M203.92,89.62h-2.13s-.43,1.79-1.03,2.95c-.69,1.34-1.3,1.99-2.45,2.82-1.84,1.34-3.17,1.73-5.36,1.71l-17.56,.06v-28.98h11.31c1.04,0,1.5,.07,2.4,.7,.8,.56,1.14,1.24,1.44,2.17,.23,.77,.3,1.3,.36,2.12l2.36-.02,.05-13.63-2.41-.07c-.06,.82-.13,1.36-.36,2.12-.31,.93-.65,1.62-1.44,2.17-.89,.62-1.35,.69-2.4,.71h-11.31v-13.88l18.39-.03c1.24,.02,1.78,.1,2.84,.84,.95,.66,1.35,1.48,1.71,2.58,.28,.91,.35,1.54,.43,2.52l2.45-.07v-9.73h-40.14v2.8c.98,.08,1.61,.15,2.52,.43,1.1,.36,1.92,.77,2.58,1.71,.74,1.06,.84,1.6,.86,2.84l.04,38.8c-.02,1.24-.12,1.78-.86,2.84-.66,.95-1.48,1.35-2.58,1.71-.91,.28-1.54,.35-2.52,.43l.02,2.8h42.79v-11.43Z"></path>
  </g>
  <g>
    <path class="cls-1" d="M185.4,125.3h-1.11v.13c-.02,1.26-.1,1.89-.23,1.89,0,0-.09-.01-.4-.21-.13-.09-.28-.2-.45-.31-.71-.51-1.68-1.21-2.72-1.21-.77,0-3.43,1.61-3.43,3.32,0,.76,.54,1.43,1.16,1.43,.45,0,1.25-.52,1.25-1.02,0-.12-.09-.22-.21-.36-.2-.22-.47-.53-.47-1,0-.22,.14-.45,.46-.45,.47,0,1,.24,1.66,.75-1.09,3.17-2.89,4.78-5.34,4.78-1.33,0-2.98-.72-3.43-2.47,2.07-1.35,8.48-5.82,8.48-9.24,0-.99-.44-1.64-1.11-1.64-.82,0-1.66,.73-1.66,1.25,0,.12,.06,.26,.14,.43,.12,.26,.27,.62,.27,1.07,0,1.32-1.22,2.68-2.03,3.52,0-.03,0-.06,0-.08,0-1.17-.8-2.05-1.86-2.05-.66,0-2.26,.86-3.19,1.86-1.25,1.34-1.86,2.84-1.86,4.6,0,3.17,2.12,5.39,5.16,5.39,4.97,0,6.94-4.93,7.49-6.72,.19,.12,.36,.24,.52,.35,.68,.46,1.17,.8,1.61,.8,.54,0,1.45-.4,1.45-3.05,0-.21,0-.97-.12-1.64l-.02-.11Zm-13.63,4.39s.01-1.08,.02-1.17c.03-.4,.09-.8,.16-1.2,.02-.11,.04-.21,.07-.32,.03-.1,.04-.23,.09-.33,.13-.4,.33-.83,.68-1.12,.13-.1,.29-.18,.45-.17,.48,.03,.8,.43,.94,.86,.17,.53,.13,1.12-.13,1.62-.13,.25-.33,.44-.54,.63-.32,.29-.55,.43-.84,.64-.23,.16-.47,.32-.72,.46l-.19,.11Z"></path>
    <path class="cls-1" d="M61.17,131.6c-1.89,0-3.22-1.58-3.22-3.6v-.04c0-1.96,1.33-3.58,3.22-3.58,1.29,0,2.18,.64,2.95,1.58l2.81-2.18c-1.19-1.64-2.96-2.79-5.72-2.79-4.08,0-7.09,3.08-7.09,7.01v.04c0,4.02,3.1,6.97,6.95,6.97,2.96,0,4.68-1.29,5.95-3.04l-2.81-2c-.81,.98-1.64,1.64-3.04,1.64Z"></path>
    <path class="cls-1" d="M76.93,120.99c-4.16,0-7.28,3.14-7.28,7.01v.04c0,3.87,3.08,6.97,7.24,6.97s7.28-3.14,7.28-7.01v-.04c0-3.87-3.08-6.97-7.24-6.97Zm3.41,7.05c0,1.94-1.37,3.6-3.41,3.6s-3.47-1.69-3.47-3.64v-.04c0-1.95,1.37-3.6,3.43-3.6s3.45,1.67,3.45,3.64v.04Z"></path>
    <polygon class="cls-1" points="91.35 121.26 87.62 121.26 87.62 134.74 97.88 134.74 97.88 131.46 91.35 131.46 91.35 121.26"></polygon>
    <polygon class="cls-1" points="105.13 121.26 101.4 121.26 101.4 134.74 111.66 134.74 111.66 131.46 105.13 131.46 105.13 121.26"></polygon>
    <polygon class="cls-1" points="118.88 129.42 125.35 129.42 125.35 126.48 118.88 126.48 118.88 124.42 126.02 124.42 126.02 121.26 115.18 121.26 115.18 134.74 126.12 134.74 126.12 131.56 118.88 131.56 118.88 129.42"></polygon>
    <path class="cls-1" d="M136.59,129.6h2.64v1.64c-.54,.37-1.23,.56-2.16,.56-2.14,0-3.66-1.56-3.66-3.75v-.04c0-2.06,1.5-3.68,3.45-3.68,1.35,0,2.29,.46,3.25,1.27l2.2-2.66c-1.42-1.23-3.1-1.94-5.47-1.94-4.16,0-7.24,3.08-7.24,7.01v.04c0,4.08,3.12,6.97,7.32,6.97,2.46,0,4.43-.91,5.85-2.1v-6.05h-6.18v2.73Z"></path>
    <polygon class="cls-1" points="150.64 129.42 157.11 129.42 157.11 126.48 150.64 126.48 150.64 124.42 157.79 124.42 157.79 121.26 146.94 121.26 146.94 134.74 157.88 134.74 157.88 131.56 150.64 131.56 150.64 129.42"></polygon>
    <path class="cls-1" d="M200.15,131.6c-1.89,0-3.22-1.58-3.22-3.6v-.04c0-1.96,1.33-3.58,3.22-3.58,1.29,0,2.18,.64,2.95,1.58l2.81-2.18c-1.19-1.64-2.96-2.79-5.72-2.79-4.08,0-7.09,3.08-7.09,7.01v.04c0,4.02,3.1,6.97,6.95,6.97,2.96,0,4.68-1.29,5.95-3.04l-2.81-2c-.81,.98-1.64,1.64-3.04,1.64Z"></path>
    <path class="cls-1" d="M215.97,120.99c-4.16,0-7.28,3.14-7.28,7.01v.04c0,3.87,3.08,6.97,7.24,6.97s7.28-3.14,7.28-7.01v-.04c0-3.87-3.08-6.97-7.24-6.97Zm3.41,7.05c0,1.94-1.37,3.6-3.41,3.6s-3.47-1.69-3.47-3.64v-.04c0-1.95,1.37-3.6,3.43-3.6s3.45,1.67,3.45,3.64v.04Z"></path>
    <polygon class="cls-1" points="235.84 128.38 230.3 121.26 226.81 121.26 226.81 134.74 230.51 134.74 230.51 127.34 236.28 134.74 239.54 134.74 239.54 121.26 235.84 121.26 235.84 128.38"></polygon>
    <path class="cls-1" d="M249.93,126.34c-1.89-.42-2.35-.69-2.35-1.31v-.04c0-.5,.44-.87,1.35-.87,1.19,0,2.54,.44,3.77,1.33l1.87-2.64c-1.46-1.17-3.25-1.79-5.55-1.79-3.24,0-5.22,1.81-5.22,4.31v.04c0,2.75,2.21,3.56,5.08,4.22,1.85,.44,2.29,.73,2.29,1.31v.04c0,.58-.54,.92-1.56,.92-1.56,0-3.02-.56-4.37-1.62l-2.08,2.48c1.68,1.48,3.93,2.23,6.32,2.23,3.27,0,5.45-1.64,5.45-4.39v-.04c0-2.52-1.93-3.52-5.01-4.2Z"></path>
    <polygon class="cls-1" points="262.64 129.42 269.11 129.42 269.11 126.48 262.64 126.48 262.64 124.42 269.78 124.42 269.78 121.26 258.94 121.26 258.94 134.74 269.88 134.74 269.88 131.56 262.64 131.56 262.64 129.42"></polygon>
    <path class="cls-1" d="M286.53,125.88v-.04c0-1.33-.4-2.35-1.19-3.14-.9-.91-2.33-1.44-4.39-1.44h-6.37v13.48h3.74v-4.08h1.66l2.71,4.08h4.29l-3.22-4.7c1.68-.71,2.77-2.08,2.77-4.16Zm-3.74,.25c0,.98-.75,1.6-2,1.6h-2.48v-3.25h2.46c1.23,0,2.02,.54,2.02,1.62v.04Z"></path>
    <polygon class="cls-1" points="296 129.79 292.94 121.26 288.78 121.26 294.23 134.83 297.69 134.83 303.16 121.26 299.08 121.26 296 129.79"></polygon>
    <path class="cls-1" d="M309.11,121.16l-5.72,13.58h3.91l.96-2.43h5.22l.96,2.43h4l-5.74-13.58h-3.6Zm.25,8.24l1.52-3.81,1.5,3.81h-3.02Z"></path>
    <polygon class="cls-1" points="319.21 124.53 323.23 124.53 323.23 134.74 326.97 134.74 326.97 124.53 331.01 124.53 331.01 121.26 319.21 121.26 319.21 124.53"></polygon>
    <path class="cls-1" d="M340.21,120.99c-4.16,0-7.28,3.14-7.28,7.01v.04c0,3.87,3.08,6.97,7.24,6.97s7.28-3.14,7.28-7.01v-.04c0-3.87-3.08-6.97-7.24-6.97Zm3.41,7.05c0,1.94-1.37,3.6-3.41,3.6s-3.47-1.69-3.47-3.64v-.04c0-1.95,1.37-3.6,3.43-3.6s3.45,1.67,3.45,3.64v.04Z"></path>
    <path class="cls-1" d="M362.64,125.88v-.04c0-1.33-.4-2.35-1.19-3.14-.9-.91-2.33-1.44-4.39-1.44h-6.37v13.48h3.74v-4.08h1.66l2.71,4.08h4.29l-3.22-4.7c1.68-.71,2.77-2.08,2.77-4.16Zm-3.74,.25c0,.98-.75,1.6-2,1.6h-2.48v-3.25h2.46c1.23,0,2.02,.54,2.02,1.62v.04Z"></path>
    <polygon class="cls-1" points="374.29 121.26 371.5 126.17 368.72 121.26 364.47 121.26 369.61 129.69 369.61 134.74 373.34 134.74 373.34 129.63 378.47 121.26 374.29 121.26"></polygon>
  </g>
</svg>
