<?xml version="1.0" encoding="UTF-8"?>
<svg xmlns="http://www.w3.org/2000/svg" xmlns:xlink="http://www.w3.org/1999/xlink" id="visual" viewBox="0 0 1512 851" width="1512" height="851" version="1.1">
  <path d="M0 248L25.2 243.7C50.3 239.3 100.7 230.7 151 215C201.3 199.3 251.7 176.7 302.2 182.3C352.7 188 403.3 222 453.8 224.8C504.3 227.7 554.7 199.3 605 190.8C655.3 182.3 705.7 193.7 756 207.8C806.3 222 856.7 239 907 236.2C957.3 233.3 1007.7 210.7 1058.2 193.7C1108.7 176.7 1159.3 165.3 1209.8 166.8C1260.3 168.3 1310.7 182.7 1361 182.7C1411.3 182.7 1461.7 168.3 1486.8 161.2L1512 154L1512 0L1486.8 0C1461.7 0 1411.3 0 1361 0C1310.7 0 1260.3 0 1209.8 0C1159.3 0 1108.7 0 1058.2 0C1007.7 0 957.3 0 907 0C856.7 0 806.3 0 756 0C705.7 0 655.3 0 605 0C554.7 0 504.3 0 453.8 0C403.3 0 352.7 0 302.2 0C251.7 0 201.3 0 151 0C100.7 0 50.3 0 25.2 0L0 0Z" fill="#d2e67a"></path>
  <path d="M0 503L25.2 488.8C50.3 474.7 100.7 446.3 151 436.5C201.3 426.7 251.7 435.3 302.2 439.7C352.7 444 403.3 444 453.8 435.3C504.3 426.7 554.7 409.3 605 403.5C655.3 397.7 705.7 403.3 756 410.5C806.3 417.7 856.7 426.3 907 435C957.3 443.7 1007.7 452.3 1058.2 453.8C1108.7 455.3 1159.3 449.7 1209.8 452.5C1260.3 455.3 1310.7 466.7 1361 460.8C1411.3 455 1461.7 432 1486.8 420.5L1512 409L1512 152L1486.8 159.2C1461.7 166.3 1411.3 180.7 1361 180.7C1310.7 180.7 1260.3 166.3 1209.8 164.8C1159.3 163.3 1108.7 174.7 1058.2 191.7C1007.7 208.7 957.3 231.3 907 234.2C856.7 237 806.3 220 756 205.8C705.7 191.7 655.3 180.3 605 188.8C554.7 197.3 504.3 225.7 453.8 222.8C403.3 220 352.7 186 302.2 180.3C251.7 174.7 201.3 197.3 151 213C100.7 228.7 50.3 237.3 25.2 241.7L0 246Z" fill="#d9e16a"></path>
  <path d="M0 605L25.2 595.2C50.3 585.3 100.7 565.7 151 567.2C201.3 568.7 251.7 591.3 302.2 598.3C352.7 605.3 403.3 596.7 453.8 585.3C504.3 574 554.7 560 605 558.7C655.3 557.3 705.7 568.7 756 580C806.3 591.3 856.7 602.7 907 598.3C957.3 594 1007.7 574 1058.2 566.8C1108.7 559.7 1159.3 565.3 1209.8 568.2C1260.3 571 1310.7 571 1361 573.8C1411.3 576.7 1461.7 582.3 1486.8 585.2L1512 588L1512 407L1486.8 418.5C1461.7 430 1411.3 453 1361 458.8C1310.7 464.7 1260.3 453.3 1209.8 450.5C1159.3 447.7 1108.7 453.3 1058.2 451.8C1007.7 450.3 957.3 441.7 907 433C856.7 424.3 806.3 415.7 756 408.5C705.7 401.3 655.3 395.7 605 401.5C554.7 407.3 504.3 424.7 453.8 433.3C403.3 442 352.7 442 302.2 437.7C251.7 433.3 201.3 424.7 151 434.5C100.7 444.3 50.3 472.7 25.2 486.8L0 501Z" fill="#e2dc5b"></path>
  <path d="M0 665L25.2 657.8C50.3 650.7 100.7 636.3 151 637.7C201.3 639 251.7 656 302.2 664.5C352.7 673 403.3 673 453.8 668.8C504.3 664.7 554.7 656.3 605 656.3C655.3 656.3 705.7 664.7 756 671.7C806.3 678.7 856.7 684.3 907 681.5C957.3 678.7 1007.7 667.3 1058.2 660.3C1108.7 653.3 1159.3 650.7 1209.8 649.3C1260.3 648 1310.7 648 1361 655C1411.3 662 1461.7 676 1486.8 683L1512 690L1512 586L1486.8 583.2C1461.7 580.3 1411.3 574.7 1361 571.8C1310.7 569 1260.3 569 1209.8 566.2C1159.3 563.3 1108.7 557.7 1058.2 564.8C1007.7 572 957.3 592 907 596.3C856.7 600.7 806.3 589.3 756 578C705.7 566.7 655.3 555.3 605 556.7C554.7 558 504.3 572 453.8 583.3C403.3 594.7 352.7 603.3 302.2 596.3C251.7 589.3 201.3 566.7 151 565.2C100.7 563.7 50.3 583.3 25.2 593.2L0 603Z" fill="#ebd64b"></path>
  <path d="M0 750L25.2 748.5C50.3 747 100.7 744 151 744C201.3 744 251.7 747 302.2 751.3C352.7 755.7 403.3 761.3 453.8 767C504.3 772.7 554.7 778.3 605 779.7C655.3 781 705.7 778 756 775.2C806.3 772.3 856.7 769.7 907 765.5C957.3 761.3 1007.7 755.7 1058.2 751.3C1108.7 747 1159.3 744 1209.8 745.3C1260.3 746.7 1310.7 752.3 1361 759.5C1411.3 766.7 1461.7 775.3 1486.8 779.7L1512 784L1512 688L1486.8 681C1461.7 674 1411.3 660 1361 653C1310.7 646 1260.3 646 1209.8 647.3C1159.3 648.7 1108.7 651.3 1058.2 658.3C1007.7 665.3 957.3 676.7 907 679.5C856.7 682.3 806.3 676.7 756 669.7C705.7 662.7 655.3 654.3 605 654.3C554.7 654.3 504.3 662.7 453.8 666.8C403.3 671 352.7 671 302.2 662.5C251.7 654 201.3 637 151 635.7C100.7 634.3 50.3 648.7 25.2 655.8L0 663Z" fill="#f5cf3b"></path>
  <path d="M0 852L25.2 852C50.3 852 100.7 852 151 852C201.3 852 251.7 852 302.2 852C352.7 852 403.3 852 453.8 852C504.3 852 554.7 852 605 852C655.3 852 705.7 852 756 852C806.3 852 856.7 852 907 852C957.3 852 1007.7 852 1058.2 852C1108.7 852 1159.3 852 1209.8 852C1260.3 852 1310.7 852 1361 852C1411.3 852 1461.7 852 1486.8 852L1512 852L1512 782L1486.8 777.7C1461.7 773.3 1411.3 764.7 1361 757.5C1310.7 750.3 1260.3 744.7 1209.8 743.3C1159.3 742 1108.7 745 1058.2 749.3C1007.7 753.7 957.3 759.3 907 763.5C856.7 767.7 806.3 770.3 756 773.2C705.7 776 655.3 779 605 777.7C554.7 776.3 504.3 770.7 453.8 765C403.3 759.3 352.7 753.7 302.2 749.3C251.7 745 201.3 742 151 742C100.7 742 50.3 745 25.2 746.5L0 748Z" fill="#ffc72c"></path>
</svg>
