<?xml version="1.0" encoding="UTF-8"?>
<svg xmlns="http://www.w3.org/2000/svg" xmlns:xlink="http://www.w3.org/1999/xlink" id="visual" viewBox="0 0 834 1112" width="834" height="1112" version="1.1">
  <path d="M0 323L13.8 317.5C27.7 312 55.3 301 83.2 280.7C111 260.3 139 230.7 166.8 238.2C194.7 245.7 222.3 290.3 250.2 294C278 297.7 306 260.3 333.8 249.2C361.7 238 389.3 253 417 271.7C444.7 290.3 472.3 312.7 500.2 309C528 305.3 556 275.7 583.8 253.3C611.7 231 639.3 216 667.2 217.8C695 219.7 723 238.3 750.8 238.3C778.7 238.3 806.3 219.7 820.2 210.3L834 201L834 0L820.2 0C806.3 0 778.7 0 750.8 0C723 0 695 0 667.2 0C639.3 0 611.7 0 583.8 0C556 0 528 0 500.2 0C472.3 0 444.7 0 417 0C389.3 0 361.7 0 333.8 0C306 0 278 0 250.2 0C222.3 0 194.7 0 166.8 0C139 0 111 0 83.2 0C55.3 0 27.7 0 13.8 0L0 0Z" fill="#d2e67a"></path>
  <path d="M0 657L13.8 638.5C27.7 620 55.3 583 83.2 570C111 557 139 568 166.8 573.5C194.7 579 222.3 579 250.2 568C278 557 306 535 333.8 527.7C361.7 520.3 389.3 527.7 417 536.8C444.7 546 472.3 557 500.2 568C528 579 556 590 583.8 591.8C611.7 593.7 639.3 586.3 667.2 590.2C695 594 723 609 750.8 601.7C778.7 594.3 806.3 564.7 820.2 549.8L834 535L834 199L820.2 208.3C806.3 217.7 778.7 236.3 750.8 236.3C723 236.3 695 217.7 667.2 215.8C639.3 214 611.7 229 583.8 251.3C556 273.7 528 303.3 500.2 307C472.3 310.7 444.7 288.3 417 269.7C389.3 251 361.7 236 333.8 247.2C306 258.3 278 295.7 250.2 292C222.3 288.3 194.7 243.7 166.8 236.2C139 228.7 111 258.3 83.2 278.7C55.3 299 27.7 310 13.8 315.5L0 321Z" fill="#d9e16a"></path>
  <path d="M0 791L13.8 778C27.7 765 55.3 739 83.2 740.8C111 742.7 139 772.3 166.8 781.5C194.7 790.7 222.3 779.3 250.2 764.5C278 749.7 306 731.3 333.8 729.5C361.7 727.7 389.3 742.3 417 757.2C444.7 772 472.3 787 500.2 781.5C528 776 556 750 583.8 740.7C611.7 731.3 639.3 738.7 667.2 742.3C695 746 723 746 750.8 749.7C778.7 753.3 806.3 760.7 820.2 764.3L834 768L834 533L820.2 547.8C806.3 562.7 778.7 592.3 750.8 599.7C723 607 695 592 667.2 588.2C639.3 584.3 611.7 591.7 583.8 589.8C556 588 528 577 500.2 566C472.3 555 444.7 544 417 534.8C389.3 525.7 361.7 518.3 333.8 525.7C306 533 278 555 250.2 566C222.3 577 194.7 577 166.8 571.5C139 566 111 555 83.2 568C55.3 581 27.7 618 13.8 636.5L0 655Z" fill="#e2dc5b"></path>
  <path d="M0 868L13.8 858.8C27.7 849.7 55.3 831.3 83.2 833.2C111 835 139 857 166.8 868C194.7 879 222.3 879 250.2 873.5C278 868 306 857 333.8 857C361.7 857 389.3 868 417 877.3C444.7 886.7 472.3 894.3 500.2 890.7C528 887 556 872 583.8 862.7C611.7 853.3 639.3 849.7 667.2 847.8C695 846 723 846 750.8 855.3C778.7 864.7 806.3 883.3 820.2 892.7L834 902L834 766L820.2 762.3C806.3 758.7 778.7 751.3 750.8 747.7C723 744 695 744 667.2 740.3C639.3 736.7 611.7 729.3 583.8 738.7C556 748 528 774 500.2 779.5C472.3 785 444.7 770 417 755.2C389.3 740.3 361.7 725.7 333.8 727.5C306 729.3 278 747.7 250.2 762.5C222.3 777.3 194.7 788.7 166.8 779.5C139 770.3 111 740.7 83.2 738.8C55.3 737 27.7 763 13.8 776L0 789Z" fill="#ebd64b"></path>
  <path d="M0 980L13.8 978C27.7 976 55.3 972 83.2 972C111 972 139 976 166.8 981.7C194.7 987.3 222.3 994.7 250.2 1002C278 1009.3 306 1016.7 333.8 1018.5C361.7 1020.3 389.3 1016.7 417 1013C444.7 1009.3 472.3 1005.7 500.2 1000.2C528 994.7 556 987.3 583.8 981.7C611.7 976 639.3 972 667.2 973.8C695 975.7 723 983.3 750.8 992.7C778.7 1002 806.3 1013 820.2 1018.5L834 1024L834 900L820.2 890.7C806.3 881.3 778.7 862.7 750.8 853.3C723 844 695 844 667.2 845.8C639.3 847.7 611.7 851.3 583.8 860.7C556 870 528 885 500.2 888.7C472.3 892.3 444.7 884.7 417 875.3C389.3 866 361.7 855 333.8 855C306 855 278 866 250.2 871.5C222.3 877 194.7 877 166.8 866C139 855 111 833 83.2 831.2C55.3 829.3 27.7 847.7 13.8 856.8L0 866Z" fill="#f5cf3b"></path>
  <path d="M0 1113L13.8 1113C27.7 1113 55.3 1113 83.2 1113C111 1113 139 1113 166.8 1113C194.7 1113 222.3 1113 250.2 1113C278 1113 306 1113 333.8 1113C361.7 1113 389.3 1113 417 1113C444.7 1113 472.3 1113 500.2 1113C528 1113 556 1113 583.8 1113C611.7 1113 639.3 1113 667.2 1113C695 1113 723 1113 750.8 1113C778.7 1113 806.3 1113 820.2 1113L834 1113L834 1022L820.2 1016.5C806.3 1011 778.7 1000 750.8 990.7C723 981.3 695 973.7 667.2 971.8C639.3 970 611.7 974 583.8 979.7C556 985.3 528 992.7 500.2 998.2C472.3 1003.7 444.7 1007.3 417 1011C389.3 1014.7 361.7 1018.3 333.8 1016.5C306 1014.7 278 1007.3 250.2 1000C222.3 992.7 194.7 985.3 166.8 979.7C139 974 111 970 83.2 970C55.3 970 27.7 974 13.8 976L0 978Z" fill="#ffc72c"></path>
</svg>
